<?xml version="1.0" encoding="UTF-8"?>
<!DOCTYPE svg PUBLIC "-//W3C//DTD SVG 1.1//EN" "http://www.w3.org/Graphics/SVG/1.1/DTD/svg11.dtd">
<!-- Creator: CorelDRAW -->
<svg xmlns="http://www.w3.org/2000/svg" xml:space="preserve" width="173.311mm" height="202.482mm" version="1.1" style="shape-rendering:geometricPrecision; text-rendering:geometricPrecision; image-rendering:optimizeQuality; fill-rule:evenodd; clip-rule:evenodd"
viewBox="0 0 1811.92 2116.89"
 xmlns:xlink="http://www.w3.org/1999/xlink"
 xmlns:xodm="http://www.corel.com/coreldraw/odm/2003">
 <defs>
  <style type="text/css">
   <![CDATA[
    .fil4 {fill:#FEFEFE}
    .fil9 {fill:#FEFEFE}
    .fil0 {fill:#FBD89B}
    .fil3 {fill:#E88AB9}
    .fil7 {fill:#E582B4}
    .fil6 {fill:#E0D2D2}
    .fil5 {fill:#CC6192}
    .fil2 {fill:#C99065}
    .fil8 {fill:#C98E65}
    .fil1 {fill:#5B302E}
   ]]>
  </style>
 </defs>
 <g id="Camada_x0020_1">
  <metadata id="CorelCorpID_0Corel-Layer"/>
  <g id="_2502371612544">
   <g>
    <path class="fil0" d="M1188.82 869.11c13.62,-7.92 49.43,0.38 61.39,4.35l36.73 18.52c7.55,4.82 18.8,14.4 24.03,23.23l18.41 35.11c5.7,16.92 1.87,7.22 3.94,19.29 1.21,7.06 4.83,3.93 3.47,28.86l-14.18 48.41c-7.61,15.18 -20.83,34.59 -34.23,43.77l-3.47 1.96c-10.2,6.04 -0.99,2.44 -17.71,10.8l-18.73 6.98c-5.94,1.45 -5.46,0.63 -11.65,2.71 -8.39,2.82 -20.26,1.62 -30.1,1.65 -28.32,0.09 -14.52,-0.79 -26.82,-3.35 -12.9,-2.68 -20.02,-7.14 -33.16,-13.86 -6.27,-3.21 -3.16,-0.61 -8.66,-5.82 -14.2,-13.44 -14.13,-4.68 -30.82,-32.92l-2.76 -4.26c-1.13,-1.52 -2.19,-2.61 -3.12,-4.01 -3.75,-5.62 -5.19,-12.23 -7.09,-17.89l-3.59 -10.78c-2.6,-7.8 -2.13,-48.73 -1.33,-53.66 2.02,-12.44 14.58,-44.21 23.55,-53.07 19.09,-18.86 22.31,-24.75 42.65,-35.06 19.92,-10.1 28.8,-8.38 33.24,-10.97zm-663.63 245.64c-10.39,0 -3.56,-1.42 -12.69,-3.3 -15.89,-3.28 -14.05,-4.47 -29.48,-12.2 -7.92,-3.97 -29.06,-19.14 -32.89,-24.08 -8.94,-11.53 -18.83,-28.82 -23.44,-42.44l-0.89 -2.74c-7.15,-22.44 -4.26,-7.43 -4.26,-40.5 -0,-19.44 -1.38,-26.57 6.76,-43.52l2.43 -4.71c0.8,-1.57 1.44,-2.84 2.39,-4.75l4.56 -9.6c4.96,-10.66 6.21,-10.12 15.88,-19.78 5,-5 9.89,-9.93 14.93,-15.07 5.29,-5.41 18.96,-12.3 26.72,-15.65l27.6 -7.96c9.1,-2.82 25.8,-1.27 36.03,-1.27 7.39,0 32.73,9.33 42.81,14.26 1.67,0.82 3.34,1.61 4.75,2.3l2.41 1.16c8.94,4.63 25.86,18.13 31.9,26.02l13.39 22.26c0.18,0.37 0.4,0.82 0.58,1.19l5.81 11.96c6.69,17.63 3.32,11.88 5.23,23.29 2.42,14.41 3.37,-11.68 3.37,30.49 0,11.65 -1.6,3.44 -3.2,11.21 -1.93,9.37 1.69,3.26 -3.39,17.97 -0.78,2.27 -0.86,3.14 -1.67,5.44 -9.91,27.85 -26.82,45.36 -49.42,62.25 -7.27,5.44 -18.9,9.72 -27.68,12.52l-58.52 5.24zm992.52 -117.61c-5.08,-2.63 -7.66,-4.57 -10.42,-12.48 -3,-8.59 0.13,-13.3 -1.68,-21.35l-5.88 -20.79c-0.15,-0.43 -0.3,-0.9 -0.44,-1.34l-13.09 -25.96c-0.22,-0.33 -0.5,-0.76 -0.72,-1.1l-3.21 -5.7c-4.95,-7.13 -9.81,-7.49 -14.42,-17.07l-2.49 -11.52c-0.26,-9.14 -0.42,-11.51 2.86,-18.43 0.17,-0.37 0.39,-0.83 0.57,-1.19 2.5,-4.86 -0.94,-0.56 2.71,-4.45 5.82,-6.22 2.77,-0.77 8.7,-4.34l7.93 -2.59c10.31,-1.32 15.14,-0.59 20.13,3.74 19.39,16.85 35.39,39.79 44.52,63.64 0.16,0.43 0.32,0.89 0.47,1.33l2.6 8.06c3.41,9.92 0.88,9.89 2.76,16.84 1.36,5 2.45,0.79 3.04,11.51 1.05,18.77 2.95,38.78 -16.07,45.19 -4.28,1.44 -10,1.51 -15.02,1.32l-11.68 -2.72c-0.37,-0.18 -0.82,-0.41 -1.18,-0.6zm-326.8 -218.35c-9.86,-1.33 -1.09,-1.22 -9.45,-3.01 -4.35,-0.93 -6.95,-0.11 -11.32,-1.13 -7.97,-1.87 0.95,-1.73 -9.46,-3 -4.29,-0.52 -9.75,0.35 -14.1,-0.14 -5.16,-0.58 -1.94,-0.23 -5.47,-1.44 -7.14,-2.46 -15.61,-0.22 -26.21,-3.99l-5.56 -1.71c-1.67,-0.25 -5.19,-0.24 -6.98,-0.23 -19.85,0.08 -21.39,-3.7 -33.64,-3.67 -31.82,0.07 -25.12,-3.72 -47.87,-3.6 -8.88,0.05 -17.8,0.09 -26.68,0.1 -11.09,0.02 -11.29,-3.33 -20.99,-3.87 -12.2,-0.68 -114.75,-1.56 -123.75,0.89 -0.49,0.13 -0.9,0.33 -1.36,0.48 -15.2,4.97 -35.75,2.25 -52.13,2.29 -10.59,0.03 -12.28,4.94 -20.47,3.5 -6.3,-1.11 -13.38,-3.85 -17.96,-8.45 -6.71,-6.73 -7.6,-5.22 -7.77,-17.12 -0.09,-6 0.07,-14.96 2.13,-19.51 2.97,-6.56 9.51,-9.27 16.04,-12.12 0.38,-0.16 0.81,-0.4 1.2,-0.55 13.1,-4.89 35.57,3.49 47.62,-3.36 7.49,-4.26 149.05,-1.67 179.43,-1.64 14.66,0.02 8.95,3.25 21.01,3.87 8.13,0.42 18.34,-0.06 26.69,-0.11 14.8,-0.08 10.68,-0.66 22,2.73 7.75,2.32 17.47,0.5 25.9,0.85 11.7,0.49 6.63,3.85 21.05,3.87 6.16,0.01 14.62,-0.63 19.78,1.13 7.23,2.47 19.92,1.48 26.02,4.01 5.51,2.28 14.17,1.25 20.98,3.24 5.93,1.73 1.24,2.3 11.16,2.7l65.28 13.09c0.43,0.14 0.86,0.35 1.3,0.48l2.83 0.75c0.53,0.12 1,0.15 1.54,0.25 1.98,0.38 2.35,0.18 4.64,0.72l35.22 9.16c0.43,0.15 0.88,0.33 1.31,0.48 1.78,0.61 2.4,0.71 4.11,1.27l9.34 3.17c5.05,1.62 4.94,1.73 9.33,3.16l64.34 23.73c9.72,4.56 17.37,5.46 26.54,14.32 7.17,6.92 12.52,13.12 7.8,30.51 -2.64,9.73 -11.5,16.15 -20.94,17.08 -8.92,0.88 -15.94,-0.13 -23.21,-4 -6.24,-3.32 -2.43,-1.56 -8.94,-3.49l-27.93 -11.23c-15.05,-7.49 -33.11,-12.05 -49.02,-16.79l-84.9 -20.88c-0.45,-0.13 -0.87,-0.34 -1.31,-0.49 -5.03,-1.65 2.03,-0.01 -3.82,-1.48 -5.04,-1.27 -8.45,-0.18 -13.36,-0.84zm-1029.01 115.5c-2.2,104.58 -0.13,211.61 -0.13,316.49 0,16.27 -3.71,62.03 3.31,73.47 9.82,16.01 2.85,5.94 17.79,21.03 7.32,7.39 22.91,25.05 30.93,29.66 7.11,4.09 4.91,3.48 10.61,8.4l8.69 5.56c0.1,0.07 2.63,2.01 2.99,2.27 1.18,0.85 1.8,1.32 3.13,2.14l15.24 9.74c1.14,0.74 4.04,3.26 6.09,4.63 4.93,3.28 8.02,4.13 12.74,6.6 2.12,1.11 2.96,1.6 5.56,2.92l21.44 10.55c4.87,2.46 9.59,4.77 13.06,6.57 0.75,0.39 5.94,2.94 5.96,2.94 0.42,0.16 0.88,0.33 1.31,0.47 0.44,0.15 0.92,0.28 1.37,0.42 0.46,0.15 0.94,0.25 1.4,0.39l84.28 30.47c0.44,0.15 0.89,0.32 1.33,0.48l9.38 3.14c0.43,0.15 0.89,0.33 1.32,0.48 0.42,0.15 0.86,0.35 1.28,0.5l47.6 12.82c5.52,1.08 3.51,0.37 8.59,1.99l7.23 1.84c6.88,1.31 3.58,0.74 8.33,2.24l81.98 16.26c3.37,0.13 5.22,-0.27 8.65,0.43 9.32,1.9 -0.18,1.04 7.85,2.81 6.64,1.46 13.06,-0.7 20.02,1.34 6.87,2.01 -1.32,0.78 6.4,2.4 10.4,2.18 9.49,-2.69 27.16,2.96 6.52,2.08 11.5,0.74 18.57,1.01 13.51,0.52 4.51,3.11 17.47,3.87 6.16,0.36 13.51,-0.5 19.7,-0.19 13.26,0.67 3.89,2.65 15.74,3.83 12.65,1.26 28.12,-2.56 39.5,1.19 16.45,5.42 58.85,2.48 77.37,2.48 -0.35,-0.29 -0.88,-1.17 -1.05,-0.87l-3.27 -2.93c-0.26,-0.24 -0.75,-0.72 -1.12,-1.08 -3.25,-3.49 0.13,-0.24 -3.68,-2.22l-9.51 -4.6c-2.66,-1.6 -1.26,-0.52 -4.03,-3.05 -2.31,-2.12 -1.16,-1.57 -3.53,-3.62 -3.82,-3.31 -1.68,-1.43 -4.29,-2.95 -9.12,-5.33 -14.03,-14.27 -20.36,-22.13 -6.63,-8.24 -8.43,-12.51 -11.73,-21.44l-7.08 -21.42c-6.11,-21.14 -2.16,-48.79 -2.82,-71.76 -3.94,-2.05 -2.39,-1.54 -5.75,-3.32 -13.69,-7.24 -19.75,-10.07 -32.17,-22.28 -7.06,-6.94 -10.08,-8.19 -14.67,-17.39 -11.09,-22.26 -17.98,-35.65 -17.44,-61.47 0.17,-8.19 -0.42,-6.24 2.45,-12.22 5.69,-11.88 7.92,-10.51 18.12,-14.43 6.81,-2.62 6.74,-2.61 15.28,0.37 2.46,0.86 3.02,0.59 5.42,1.45 19.33,6.86 12.59,21.63 16.19,32.26 0.18,0.54 0.82,2.01 1.01,2.55 0.15,0.43 0.31,0.89 0.45,1.33l7.28 17.58c2.67,5.25 2.34,4.69 6.74,9.14 8.06,8.13 28.31,16.53 37.89,16.67l13.82 -3.05c0.55,-0.12 1,-0.19 1.52,-0.33 0.5,-0.13 0.95,-0.26 1.43,-0.42l23.79 -17.12c4.54,-7.74 5.09,-5.9 7.99,-15.12 1.69,-5.39 6.61,-9.89 -1.14,-14.43l-4.8 -2.36c-3.93,-1.89 -5.33,-2.49 -8.29,-4.06 -15.94,-8.41 -46.39,-43.96 -52.28,-63.34 -1.97,-6.49 -0.27,-3.33 -3.1,-9.47 -4.81,-10.44 -3.13,-9.96 -5.4,-20.06 -1.93,-8.61 -1.71,0.34 -2.99,-9.39 -0.39,-2.98 -0.11,-8.96 -0.12,-12.25l2.19 -17.04c0.16,-0.43 0.35,-0.89 0.5,-1.33 4.74,-13.5 9.75,-26.58 17.96,-38.1 6.81,-9.56 18.72,-17.7 29.01,-22.81 20.27,-10.07 16.07,-7.24 32.65,-12.64 10.8,-3.52 50.28,-1.98 59.65,1.04 2.76,0.89 0.86,0.45 4.4,1.16 24.57,4.88 27.84,14.17 41.14,21.87 3.87,2.24 4.67,1.6 8.47,5.81l15.45 22c0.23,0.5 0.89,1.94 1.1,2.47l5.65 16.44c6.9,20.58 3.53,28.96 0.21,44.38l-8.66 29.33c-5.03,14.91 -15.06,27.39 -25.85,38.15l-42.76 31.44c-1.19,9.94 7.49,27.93 14.21,33.47 3.57,2.95 2.06,0.93 5.71,3.21 5.05,3.16 7.94,6.73 14.36,8.74 19.51,6.13 15.71,3.65 24.48,1.67 7.82,-1.77 4.11,0.55 11.7,-2.89 7.07,-3.2 13.88,-6.79 19.39,-12.54 4.41,-4.61 3.69,-3.91 6.43,-9.46 14.47,-29.3 5.25,-35.64 15.79,-46.44 1.17,-1.2 2.22,-2.58 3.52,-3.59l16.13 -6.33c5.64,-1.27 18.35,4.06 22.08,7.82 9.76,9.87 10.64,26.26 7.44,40.32 -1.36,5.98 -1.08,1.92 -2.34,6.5l-10.43 27.13c-10.68,22 -25.48,35.28 -47.24,46.25l-9.34 5.13c-0.76,25.77 3.27,60.36 -5.16,83.61 -4.54,12.55 -13.77,27.97 -21.74,36.4 -9.94,10.52 -0.9,5.51 -13.75,14.54 -6.83,4.8 -9.41,10.05 -17.91,14.17 -4.81,2.33 -12.23,4.42 -15.64,7.96 -3.19,3.14 -6.51,3.11 -9.5,5.05 36.51,0 17.17,-3.72 35.82,-3.77 13.59,-0.04 27.24,0.1 40.84,0.1 40.56,0.01 17.42,-3.9 56.65,-3.67 34.06,0.2 7.34,-4.2 37.15,-3.75 8.77,0.13 12.43,0.8 19.59,-1.71 8.52,-2.99 5.88,-1.95 17.69,-1.87 13.92,0.09 8.54,-2.25 17.69,-3.62 5.68,-0.85 13.54,0.61 19.16,-0.33l7.82 -2.76c4.5,-1.19 5.65,-0.55 10.16,-0.75 13.65,-0.6 3.53,-2.51 15.83,-3.62 9.19,-0.83 5.49,1.68 15.61,-1.91 10.84,-3.84 12.43,-0.18 20.16,-2.93 7.6,-2.71 -2.64,-0.74 5.55,-2.28 5.39,-1.02 5.58,0.62 12.83,-1.68 14.13,-4.48 6.14,0.02 21.75,-4.84l65.99 -15.73c2.01,-0.65 6.75,-2.35 7.91,-2.69 6.02,-1.78 9.81,-2.1 15.67,-3.99l10.74 -3.4c0.43,-0.15 0.89,-0.31 1.33,-0.46 1.73,-0.58 2.47,-0.73 4.1,-1.27 0.43,-0.14 0.89,-0.29 1.32,-0.44l2.59 -0.95c0.43,-0.15 0.88,-0.33 1.31,-0.48l47.91 -17.25c0.36,-0.17 0.8,-0.41 1.17,-0.57l47.7 -19.86c3.01,-1.51 3.21,-1.7 5.58,-2.96l82.74 -50.41c6.09,-3.98 36,-34.06 43,-45.18 0.21,-0.34 0.48,-0.8 0.7,-1.12 2.61,-3.78 3.39,-3.38 4.91,-5.64 3.56,-5.27 2.77,-11.87 2.72,-18.8 -0.35,-40.4 2.13,-348.49 -0.93,-366.77 -3.07,-5.26 -2.59,-24.16 -16.43,-42.55 -2.68,-3.57 -0.93,-0.87 -2.93,-4.13l-1.92 -3.47c-8.49,-13.37 -32.43,-40.19 -44.99,-48.53l-19.83 -14.08c-30.61,-20.78 -43.32,-27.27 -75.59,-42.91l-27.24 -11.85c-0.5,-0.22 -1.98,-0.84 -2.52,-1.04 -2.38,-0.87 -1.89,-0.55 -4.1,-1.23 -4.6,-1.42 -6.16,-2.06 -10.73,-3.54l-57.89 -19.43c-0.45,-0.15 -0.91,-0.31 -1.35,-0.47l-2.63 -0.96c-0.43,-0.15 -0.88,-0.32 -1.31,-0.46 -2.29,-0.77 -4.49,-1.4 -6.77,-2.19l-44.23 -10.77c-19.05,-5.5 -44.17,-8.98 -55.1,-12.4l-25.46 -5.02c-8.33,-0.48 -6.02,0.94 -13.85,-1.82l-5.66 -1.7c-2.41,-0.34 -4.69,-0.08 -7.09,-0.16 -11.69,-0.41 -9.28,-3.15 -26.65,-3.62 -12.3,-0.33 -4.39,-1.25 -11.34,-3.17 -6.95,-1.92 -14.94,0.51 -22.07,-1 -8.21,-1.74 -9.95,-3.37 -19.56,-3.22l-14.54 -1.87c-10.8,-3.83 -30.9,-0.24 -40.62,-3.69 -12.98,-4.61 -31.91,-1.05 -45.89,-1.72 -12.88,-0.62 -10.27,-3.94 -26.4,-3.81l-184.13 0.02c-27.32,-0.05 -16.33,1.41 -28.39,3.46 -12.91,2.2 -30.72,-1.32 -44.12,0.24 -10.6,1.23 -1.39,2.17 -12.41,3.59 -8.53,1.1 -21.68,-1.17 -29.83,0.3 -7.86,1.42 -1.65,2.67 -12.61,3.5 -4.92,0.37 -11.13,-0.35 -16.14,-0.17 -11.51,0.43 -8.24,3.19 -26.58,3.7 -10.91,0.31 -5.21,2.88 -24.75,3.66 -3.8,0.15 -3.06,-0.05 -6.56,0.93 -0.48,0.13 -0.89,0.35 -1.35,0.5l-18.64 2.29c-10.43,0.56 -10.01,2.86 -19.38,3.84l-252.88 76.53 -68.58 39.71c-3.67,2.5 -4.45,4.56 -7.24,6.77 -4.38,3.47 -4.24,1.68 -9.56,6.33l-31.29 30.94c-4.69,5.38 -1.9,4.02 -5.94,9.75 -24.67,35.01 -12.88,23.89 -24.99,52.1z"/>
    <path class="fil1" d="M161.89 894.29c64.12,-149.35 252.93,-192.38 400.47,-222.13 218.1,-43.99 994.98,-62.82 1062.31,230.64 14.86,64.77 7.12,521.39 -17.53,573.54 -143.65,303.99 -1448.1,282.77 -1447.21,-58.44 0.15,-56.31 -5.64,-515.92 1.96,-523.61zm282.14 -349.06c-2.47,33.57 -0.16,63.03 -4.72,96.38 -147.35,22.37 -273.12,146.92 -289.69,151.6 -5.04,-26.29 -3.56,-50.02 -5.36,-77.09 -1.69,-0.84 -47.57,-473.67 -24,-549.16 67.58,-216.44 409.75,-93.91 342.54,147.2 -19.5,69.96 -11.26,154.54 -15.83,229.41 -2.64,2.24 -0.84,0.8 -2.92,1.65zm1194.65 176.98c0.19,25.18 -2.94,46.96 -3.85,70.6 -6.41,-2.35 -75.52,-59.19 -81.03,-69.35 -14.08,-1.33 -114.57,-47.86 -117.83,-55.35l-91.63 -26.81c-3.28,-43.14 -4.78,-91.34 -8.83,-139.24 -6.5,-3.64 -47.43,-313.84 28.58,-389.12 153.29,-151.83 317.82,-5 311.63,168.54 -4.7,131.75 -34.99,307.95 -37.05,440.74zm-1140.68 -110.61c20.17,-68.91 39.91,-437.41 1.95,-485.79 -182.06,-232.03 -451.29,-111.89 -451.08,107.77 0.24,244.49 50.54,456.06 52.24,700.12 4.4,630.81 -92.29,609.39 405.89,776.92 232.75,78.27 1177.15,74.15 1176.47,-312.2 -0.38,-215.45 -13.38,-446.85 11.04,-656.83 15.15,-130.3 77.01,-568.01 -10.16,-652.86 -215.23,-209.48 -491.05,10.43 -424.3,199.9 17.45,49.53 28.28,278.37 28.28,338.34 -309.63,-56.45 -490.78,-35.79 -792.54,0.47l2.2 -15.84z"/>
    <path class="fil2" d="M1621.94 897.13c3.06,18.28 0.58,326.38 0.93,366.77 0.06,6.94 0.84,13.54 -2.72,18.8 -1.53,2.26 -2.3,1.86 -4.91,5.64 -0.23,0.33 -0.49,0.79 -0.7,1.12 -6.99,11.12 -36.91,41.2 -43,45.18l-82.74 50.41c-2.37,1.26 -2.57,1.45 -5.58,2.96l-47.7 19.86c-0.37,0.16 -0.81,0.4 -1.17,0.57l-47.91 17.25c-0.43,0.15 -0.88,0.33 -1.31,0.48l-2.59 0.95c-0.43,0.15 -0.89,0.3 -1.32,0.44 -1.63,0.54 -2.38,0.69 -4.1,1.27 -0.44,0.15 -0.9,0.31 -1.33,0.46l-10.74 3.4c-5.85,1.89 -9.64,2.21 -15.67,3.99 -1.16,0.34 -5.9,2.03 -7.91,2.69l-65.99 15.73c-15.61,4.86 -7.62,0.36 -21.75,4.84 -7.25,2.3 -7.44,0.66 -12.83,1.68 -8.18,1.54 2.06,-0.43 -5.55,2.28 -7.73,2.76 -9.31,-0.91 -20.16,2.93 -10.12,3.58 -6.42,1.08 -15.61,1.91 -12.3,1.11 -2.18,3.02 -15.83,3.62 -4.5,0.2 -5.65,-0.43 -10.16,0.75l-7.82 2.76c-5.62,0.94 -13.48,-0.52 -19.16,0.33 -9.14,1.37 -3.77,3.72 -17.69,3.62 -11.81,-0.08 -9.18,-1.12 -17.69,1.87 -7.16,2.51 -10.82,1.84 -19.59,1.71 -29.81,-0.45 -3.09,3.95 -37.15,3.75 -39.23,-0.23 -16.09,3.68 -56.65,3.67 -13.6,-0 -27.25,-0.14 -40.84,-0.1 -18.65,0.06 0.69,3.77 -35.82,3.77 2.99,-1.93 6.31,-1.9 9.5,-5.05 -23.06,3.33 -9.19,8.54 -53.23,8.99 -14.31,0.15 -12.2,-0.76 -26.16,-4.14l-23.57 -8.36c0.37,0.37 0.86,0.85 1.12,1.08l3.27 2.93c0.17,-0.3 0.7,0.58 1.05,0.87 -18.52,0 -60.92,2.94 -77.37,-2.48 -11.38,-3.75 -26.85,0.07 -39.5,-1.19 -11.84,-1.18 -2.48,-3.17 -15.74,-3.83 -6.19,-0.31 -13.54,0.55 -19.7,0.19 -12.96,-0.76 -3.97,-3.35 -17.47,-3.87 -7.07,-0.27 -12.05,1.07 -18.57,-1.01 -17.67,-5.65 -16.76,-0.77 -27.16,-2.96 -7.72,-1.62 0.47,-0.39 -6.4,-2.4 -6.96,-2.04 -13.39,0.12 -20.02,-1.34 -8.04,-1.77 1.47,-0.91 -7.85,-2.81 -3.43,-0.7 -5.28,-0.3 -8.65,-0.43l-81.98 -16.26c-4.75,-1.5 -1.45,-0.93 -8.33,-2.24l-7.23 -1.84c-5.07,-1.62 -3.06,-0.91 -8.59,-1.99l-47.6 -12.82c-0.42,-0.14 -0.86,-0.35 -1.28,-0.5 -0.43,-0.15 -0.88,-0.33 -1.32,-0.48l-9.38 -3.14c-0.43,-0.15 -0.89,-0.33 -1.33,-0.48l-84.28 -30.47c-0.46,-0.14 -0.94,-0.24 -1.4,-0.39 -0.45,-0.14 -0.93,-0.27 -1.37,-0.42 -0.43,-0.15 -0.9,-0.31 -1.31,-0.47 -0.02,-0.01 -5.22,-2.56 -5.96,-2.94 -3.47,-1.8 -8.2,-4.11 -13.06,-6.57l-21.44 -10.55c-2.59,-1.31 -3.44,-1.81 -5.56,-2.92 -4.72,-2.47 -7.81,-3.32 -12.74,-6.6 -2.05,-1.37 -4.95,-3.89 -6.09,-4.63l-15.24 -9.74c-1.33,-0.82 -1.96,-1.29 -3.13,-2.14 -0.36,-0.26 -2.89,-2.2 -2.99,-2.27l-8.69 -5.56c-5.7,-4.92 -3.51,-4.31 -10.61,-8.4 -8.02,-4.61 -23.61,-22.27 -30.93,-29.66 -14.94,-15.09 -7.97,-5.03 -17.79,-21.03 -7.02,-11.44 -3.31,-57.2 -3.31,-73.47 0,-104.88 -2.07,-211.9 0.13,-316.49 -3.8,3.85 -0.37,-2.33 -1.97,3.6 -3.17,11.75 0.15,465 0.01,520.01 -0.02,7.26 -0.91,14.65 1.44,20.53 1.01,2.52 0.17,-1.11 1.51,3.34 1.98,6.57 1.48,9.71 4.4,15.39 0.19,0.36 0.46,0.78 0.64,1.14 0.18,0.36 0.44,0.79 0.62,1.16l1.98 5.09c2.44,7.78 -1.15,2.14 3.56,8.8l24.5 35.78c7.64,7.44 15.33,17.55 24.09,23.63 4.38,3.04 3.36,0.98 7.92,4.4 8.98,6.74 17.76,15.83 27.35,20.72 0.35,0.18 6.59,3.26 6.84,3.4 4.33,2.47 3.66,2.87 7.12,5.27 14.15,9.82 36.16,18.04 52.11,26.11 1.18,0.6 2.33,1.2 3.53,1.81l37.36 15.37c0.13,0.05 4.87,2.23 4.91,2.25 0.36,0.17 0.79,0.43 1.15,0.6 0.36,0.18 0.8,0.42 1.16,0.59l80.31 24.89c2.91,0.5 1.19,-0.03 4.27,0.82 0.42,0.12 0.85,0.31 1.26,0.44 0.42,0.13 0.84,0.36 1.26,0.49l15.63 4c4.26,1.3 1.44,0.51 6.03,1.37l22.89 6.21c1.49,0.47 1.38,0.69 4.03,1.09 4.92,0.74 6.21,-0.26 11.43,1.16l20.38 4.49c5.04,1.67 -2.21,0.05 3.87,1.39 2.77,0.61 2.17,0.29 4.75,0.52l40.63 7.42c13.55,0.71 10.17,2.85 21.21,3.72 3.82,0.3 8.59,-0.4 12.42,0.02 8.55,0.93 3.7,1.14 7.94,2.5 7.33,2.34 15.8,-0.11 23.52,1.51 7.99,1.68 -0.5,1.52 9.37,3.13 6.61,1.08 16.17,-0.69 22.72,0.32 8.23,1.27 9.12,3.78 21.45,3.64 28.14,-0.31 17.65,2.13 30.18,3.63 15.66,1.87 32.24,-2.25 47.84,0.22 9.89,1.57 2.36,1.59 9.31,3.09l190.7 0.47c8.1,-0.41 10.47,-3.73 19.27,-3.88 12.35,-0.22 35.19,3.11 46.17,-0.94 9.93,-3.66 4.21,-2.81 21.2,-2.62l15.9 -0.37c7.41,-1.51 1.97,-0.77 5.32,-1.95 7.58,-2.67 14.5,-0.93 23.19,-1.28 9.43,-0.39 10.27,-3.77 19.2,-3.91 3.81,-0.06 8.91,0.47 12.59,0.12 10.45,-1 3.93,-1.29 9.65,-2.92 7.2,-2.05 13.74,0.46 21.29,-1.9 10.84,-3.39 13.23,-1.16 21.42,-3.36 6.36,-1.7 -1.05,-1.35 7.94,-2.72 3.97,-0.6 8.03,0.18 11.99,-0.44 8.42,-1.32 1.61,-1.53 9.39,-3.02 4.48,-0.86 6.69,-0.01 11.27,-1.18 6.03,-1.55 -0.85,-1.22 8.09,-2.64l40.27 -7.75c3.29,-0.55 0.84,0.13 4.3,-0.84l5.23 -1.9c17.1,-4.5 35.21,-8.04 51.28,-13.67l58.67 -19.55c2.96,-1.05 7.6,-2.55 9.34,-3.12 0.44,-0.14 0.89,-0.31 1.34,-0.45l88.41 -40.74c13.34,-6.36 23.55,-16.2 36.08,-23.71l38.05 -33c4.38,-4.72 2.41,-2.89 4.95,-7.34 5.51,-9.66 14.29,-16.42 19.81,-28.4l4.61 -9.54c4.66,-8.4 6.78,-17.39 9.96,-26.63 5.67,-16.49 1.37,-137.01 2.88,-162.13 2.74,-45.64 0.26,-140.07 0.26,-191.19 0,-9.66 2,-174.66 -0.18,-184.06 -0.03,-0.14 4.79,2.5 -2.73,-5.67z"/>
    <path class="fil1" d="M936.96 1411.86c-4.36,7.07 -15.6,17.22 -23.18,21l-2.39 1.16c-0.21,0.1 -6.78,3.46 -6.97,3.53l-20.08 5.19c-7.9,0.76 -6.27,-0.99 -10.02,-2.22 -5.22,-1.72 -3.89,-0.75 -8.97,-1.81 -12.79,-2.65 -31.36,-18.13 -36.75,-26.85 -0.21,-0.35 -0.45,-0.8 -0.65,-1.16l-2.95 -6.04c-3.42,-6.89 -4.2,-9.86 -6.64,-16.71 -0.14,-0.41 -8.84,-47.56 6.34,-50.8l19.9 -5.22c4.49,-1.53 -0.81,-1.9 7.6,-2.11 0.09,9.69 -0.26,40.88 1.82,48.15 2.36,8.25 8.79,15.06 16.63,18.63l12.13 2.38c35.79,0 30.34,-43.98 30.6,-69.14 6.72,0.14 10.09,4.08 24.33,6.94 8.37,1.68 3.94,-2.44 7.05,3.27 4.98,2.63 3.16,-0.01 3.53,8.61 0.92,21.34 2.59,35.43 -7.11,54.83 -1.04,2.08 -2.46,5.55 -4.21,8.38zm-2.49 -311.53c0,26.93 -1.78,31.67 -14.17,52.62l-11.93 14.15c-2.43,2.23 -4.32,4.42 -6.32,6.17 -10.3,9 -28.27,9.01 -38.56,-0 -8.13,-7.12 -12.81,-11.14 -18.24,-20.32 -1.35,-2.28 -4.32,-6.17 -5.03,-7.32 -7.47,-12.17 -13.95,-37.01 -5.36,-48.26l1.58 -1.94c6.86,-9.14 0.53,-2.89 7.94,-8.03 19.74,-13.71 39,-19.82 66.19,-7.17 10.76,5 14.69,15.22 23.89,20.11zm-106.75 385.64l23.57 8.36c13.97,3.38 11.85,4.28 26.16,4.14 44.04,-0.45 30.17,-5.66 53.23,-8.99 3.41,-3.54 10.83,-5.63 15.64,-7.96 8.5,-4.12 11.08,-9.38 17.91,-14.17 12.86,-9.03 3.81,-4.03 13.75,-14.54 7.97,-8.44 17.2,-23.86 21.74,-36.4 8.42,-23.25 4.39,-57.84 5.16,-83.61l9.34 -5.13c21.77,-10.96 36.56,-24.24 47.24,-46.25l10.43 -27.13c1.26,-4.58 0.98,-0.53 2.34,-6.5 3.2,-14.06 2.33,-30.45 -7.44,-40.32 -3.73,-3.77 -16.44,-9.09 -22.08,-7.82l-16.13 6.33c-1.3,1.01 -2.35,2.39 -3.52,3.59 -10.53,10.81 -1.32,17.14 -15.79,46.44 -2.74,5.55 -2.01,4.85 -6.43,9.46 -5.5,5.74 -12.32,9.34 -19.39,12.54 -7.58,3.43 -3.87,1.12 -11.7,2.89 -8.77,1.98 -4.97,4.46 -24.48,-1.67 -6.42,-2.02 -9.3,-5.58 -14.36,-8.74 -3.64,-2.28 -2.13,-0.26 -5.71,-3.21 -6.72,-5.55 -15.39,-23.54 -14.21,-33.47l42.76 -31.44c10.79,-10.76 20.81,-23.24 25.85,-38.15l8.66 -29.33c3.31,-15.43 6.69,-23.81 -0.21,-44.38l-5.65 -16.44c-0.21,-0.53 -0.86,-1.98 -1.1,-2.47l-15.45 -22c-3.8,-4.21 -4.6,-3.57 -8.47,-5.81 -13.29,-7.7 -16.57,-16.99 -41.14,-21.87 -3.54,-0.7 -1.64,-0.27 -4.4,-1.16 -9.37,-3.02 -48.85,-4.56 -59.65,-1.04 -16.59,5.4 -12.38,2.57 -32.65,12.64 -10.29,5.11 -22.2,13.26 -29.01,22.81 -8.22,11.52 -13.22,24.6 -17.96,38.1 -0.15,0.44 -0.35,0.89 -0.5,1.33l-2.19 17.04c0.01,3.29 -0.28,9.27 0.12,12.25 1.28,9.73 1.05,0.79 2.99,9.39 2.27,10.09 0.59,9.62 5.4,20.06 2.83,6.14 1.13,2.98 3.1,9.47 5.89,19.37 36.34,54.92 52.28,63.34 2.97,1.57 4.37,2.17 8.29,4.06l4.8 2.36c7.75,4.55 2.83,9.05 1.14,14.43 -2.9,9.23 -3.45,7.38 -7.99,15.12l-23.79 17.12c-0.48,0.15 -0.93,0.28 -1.43,0.42 -0.53,0.14 -0.98,0.21 -1.52,0.33l-13.82 3.05c-9.58,-0.14 -29.82,-8.54 -37.89,-16.67 -4.4,-4.44 -4.07,-3.88 -6.74,-9.14l-7.28 -17.58c-0.14,-0.44 -0.31,-0.9 -0.45,-1.33 -0.19,-0.54 -0.82,-2.01 -1.01,-2.55 -3.6,-10.63 3.14,-25.41 -16.19,-32.26 -2.4,-0.85 -2.96,-0.59 -5.42,-1.45 -8.54,-2.98 -8.47,-2.98 -15.28,-0.37 -10.2,3.92 -12.43,2.55 -18.12,14.43 -2.86,5.98 -2.28,4.03 -2.45,12.22 -0.54,25.82 6.35,39.21 17.44,61.47 4.58,9.2 7.61,10.45 14.67,17.39 12.42,12.21 18.48,15.04 32.17,22.28 3.36,1.78 1.81,1.27 5.75,3.32 0.66,22.97 -3.28,50.62 2.82,71.76l7.08 21.42c3.3,8.93 5.1,13.21 11.73,21.44 6.33,7.86 11.24,16.8 20.36,22.13 2.61,1.52 0.46,-0.36 4.29,2.95 2.37,2.05 1.22,1.5 3.53,3.62 2.77,2.54 1.37,1.45 4.03,3.05l9.51 4.6c3.81,1.98 0.43,-1.27 3.68,2.22z"/>
    <path class="fil0" d="M384.89 446.02c-0.38,-1.13 -0.29,-27.92 0.06,-30.07 1.19,-7.19 0.03,-1.55 1.77,-5.56l1.2 -2.39c1.75,-3.32 1.04,-2.02 1.96,-3.37 8.01,-11.76 21.21,-15.48 34.92,-10.48l4.8 2.3c5.3,2.93 8.93,9.06 10.16,14.57 1.61,7.28 2.95,30.19 -3.39,41.84 -2.5,4.59 -5.57,6.54 -10.54,8.6 -11.26,4.66 -34.46,3.74 -40.95,-15.44zm23.46 -75.29c-11.67,-12.52 -20.74,-19.31 -16.01,-46.76 2.12,-12.29 3.51,5 3.45,-28.42 -0.04,-22.45 2.66,-81.57 -1.54,-93.99l-1.45 -3.89c-0.14,-0.45 -0.26,-0.93 -0.4,-1.38 -1.3,-4.22 -0.28,-2.29 -2.14,-6.66l-15.13 -25.28c-6.7,-9.69 -25.2,-23.42 -35.52,-28.32l-4.8 -2.29c-38.21,-18.75 -55.42,-6.04 -60.51,-6.72l-17.51 -7.35c-9.41,-8.22 -8.81,-12.34 -8.69,-24.24 0.24,-24.68 20.67,-27.32 39.9,-27.23 8.33,0.04 24.54,-0.95 31.91,0.15 10.38,1.55 1.29,1.57 12.52,3.49 3.6,0.61 2.34,0.03 6.18,1.09l48.9 24.08c8.48,5.06 11.09,8.79 16.94,14.77 14.63,14.97 13.02,10.3 22.49,25.19l8.82 14.33c0.24,0.49 0.91,1.9 1.14,2.38 0.18,0.37 0.4,0.83 0.58,1.19 0.24,0.49 0.93,1.89 1.18,2.38l11.22 29.68c0.14,0.44 0.35,0.86 0.47,1.32 2.8,10.12 -1.89,2.95 3.77,22.88l0.92 11.78c-0.07,9.85 1.68,22.17 -0.99,31.33 -4.55,15.63 -2.77,9.47 -2.77,30.68 0.01,61 9.1,87.6 -42.9,85.81zm-264.09 345.4c1.88,2.33 2.21,-3.86 2.41,6.9l42.8 -56.9c6.18,-6.44 4.11,-0.67 21.25,-17.76 9.14,-9.12 7.94,-2.9 11.99,-9.03 -0.74,-12.01 0.35,-24.18 -0.22,-35.89 -0.86,-17.53 -3.92,4.38 -3.8,-33.52 0.11,-35.85 -2.72,-14.21 -3.78,-31.72 -0.6,-9.92 1.72,-27.99 -0.56,-36.53 -4.68,-17.53 -3.19,-8 -2.98,-32.69 0.06,-6.71 0.59,-10.55 -1.31,-16.1 -4.3,-12.56 -2,-18.59 -2.27,-35.37 -0.22,-13.93 -2.03,-5.83 -3.64,-14.36 -1.78,-9.47 0.96,-26.66 -0.26,-36.97 -1.86,-15.79 -3.78,5.8 -3.64,-31.71 0.02,-4.66 0.48,-13.41 -0.27,-17.6 -1.62,-9.04 -3.38,-2.72 -3.51,-15.91 -0.12,-11.51 2.09,-25.88 -1.39,-36.13 -3.57,-10.5 -2.14,-22.84 -2.23,-34.88 -0.1,-13.23 2.87,-16.16 6.72,-28.57 2.16,-6.96 3.38,-12.3 8.38,-17.71 14.88,-16.12 3.21,-9.71 25.08,-24.61l21.88 -11.37c10.37,-3.4 20.12,-5.88 31.26,-5.82 15.52,0.09 33.99,3.99 46.96,10.9 10.51,5.6 21.4,15.13 29.49,23.9l12.62 23c2.16,4.17 0.6,0.33 2.2,5.92 6.61,23.07 3.54,32.24 3.82,61.66 0.21,21.99 -4,6.75 -3.78,33.57l-1.36 28.31c-5.29,15.27 -1.39,22.36 -2.19,40.84 -0.72,16.74 -3.85,-4.79 -3.74,33.55 0.11,39.11 -4.24,5.69 -3.75,49.59 0.03,2.33 0.21,6.81 0.02,8.92 -1.36,15.02 -3.45,-2.2 -3.59,42.48 -0.06,20.66 -3.91,1.55 -3.77,33.54 0.02,5.56 0.38,12.44 0.11,17.83 -0.66,13.33 -3.23,4.93 -3.74,16.17l26.2 -9.27c2.15,-0.73 2.72,-0.84 5.38,-1.64l56.98 -15.92c2.08,-0.85 0.28,0.59 2.92,-1.65 1.22,-19.94 -2,-32.95 2.5,-45.86 2.54,-7.28 1.57,-14.77 1.5,-23.39 -0.19,-23.07 0.98,-14.5 2.97,-21.78 3.67,-13.37 -2.24,-30.32 3.15,-46.49 4.61,-13.85 -1.8,-32.88 3.08,-46.57 5.24,-14.7 -1.01,-32.27 2.63,-45.32 2.33,-8.35 3.21,0.03 3.03,-22.17 -0.06,-7.32 -1.12,-17.18 1.06,-23.22 1.76,-4.88 1.94,1.42 2.65,-8.58l-5.89 -67.27c-10.28,-29.08 -3.71,-14.19 -17.92,-42.8 -12.69,-25.55 -5.62,-10.14 -14.74,-22.55 -3.36,-4.57 -0.91,-2.96 -4.64,-7.71 -7.89,-10.04 -29.21,-27.42 -40.06,-34.17 -3.25,-2.02 -4.42,-3.55 -7.15,-5.22 -9.74,-5.96 -23.51,-11.21 -33.61,-14.63 -2.47,-0.84 -7.06,-2.43 -9.34,-3.16 -24.21,-7.82 -41.81,-5.1 -67.74,-5.34 -12.22,-0.11 -27.89,4.08 -39.9,8.43l-17.86 7.18c-2.01,0.66 -4.6,1.62 -7.49,3.31l-14.78 9.93c-0.19,0.14 -2.98,2.34 -3.01,2.36 -14.06,9.51 -35.89,30.07 -45.24,44.88 -6.41,10.15 -10.15,13.34 -15.94,24.93 -1.6,3.19 -3.17,6.28 -3.97,8.6l-8.29 27.53c-2.12,12 -3.58,3.7 -3.61,21.46 -0.03,14.95 -4.39,7.66 -3.84,21.17 0.48,11.94 3.97,4.93 3.89,21.12 -0.04,8.03 -0.49,17.11 -0.19,25.01 0.48,12.53 3.79,7.46 3.88,21 0.06,8.27 -0.31,16.75 -0.22,25 0.14,13.53 4.12,4.56 3.76,44.19 -0.15,17.19 3.91,5.85 3.68,46.05 -0.03,4.76 -0.27,7.35 1,11.67 1.89,6.42 1.88,-1.21 2.83,9.47 0.61,6.88 -0.05,17.62 -0.1,24.88 -0.15,19.24 2.54,8.94 3.78,21.17l0.35 36.88c1.62,7.81 1.6,0.12 3.13,9.3 1.34,7.99 -0.62,30.27 0.27,36.98 1.73,13.09 3.97,-4.56 3.59,33.73 -0.26,26.29 4.05,1.85 3.71,46.01 -0.03,3.3 -0.32,9.31 0.04,12.33 1.2,9.97 1.09,1.88 3.01,9.4 2.12,8.31 -2.52,41.86 3.34,44.79z"/>
    <path class="fil0" d="M1590.95 415.92c0,-8.09 -0.17,0.07 1.45,-3.84l5.8 -10.1c3.16,-3.64 8.1,-9.18 12.13,-9.18 9.51,0 22.01,-1 29.43,6.2 8.82,8.56 6.72,22.65 6.78,36.48 0.05,11.44 1.24,9.72 -5.49,16.5 -9.48,9.54 -10.33,13.91 -30.51,11.03 -3.09,-0.44 -1.69,-0.2 -4.07,-1.05l-3.57 -1.68c-5.68,-2.91 -7.05,-4.47 -9.85,-11.07 -3.71,-8.74 -2.09,-19.13 -2.09,-33.3zm11.96 -58.46c-7.05,-12.06 -6.02,-33.74 -4.23,-41.96 2.72,-12.51 3.34,1.25 3.31,-28.81 -0.03,-21.81 -0.18,-43.72 0.04,-65.53 0.11,-11.32 -1.85,-17.53 -4.35,-27.83 -3.39,-13.93 -16.71,-29.37 -26.38,-39.6 -6.57,-6.94 -19.81,-14.73 -28.42,-19.01 -21.81,-10.83 -9.03,-4.1 -23.57,-8.42 -33.29,-9.88 -29.6,6.76 -46.96,-0.81l-15.02 -11.54c-3.88,-4.9 -7.99,-25.84 5.02,-37.26 0.93,-0.82 3.26,-2.71 5.09,-3.75 3.09,-1.76 1.96,-0.46 4.97,-2.23 7.98,-4.68 21.7,-2.51 31.71,-2.51 17.5,-0 27.28,0.32 42.82,5.48l7.97 2.7c0.44,0.15 0.91,0.31 1.34,0.47l13.22 6.44c24.18,12.59 10.54,6.03 26.16,16.29l2.31 1.33c7.51,4.49 29.35,26.17 33.69,33.54l13.54 23.77c0.18,0.36 0.42,0.81 0.61,1.17 0.19,0.36 0.43,0.8 0.62,1.17l2.32 4.97c5.51,14.56 4.11,15.15 6.55,22.82 4.19,13.14 1.27,5.64 2.36,16.98 1.5,15.71 3.46,-4.99 3.65,28.3 0.1,15.83 -3.8,14.57 -3.81,28.19l-0.6 80.61c-3.84,14.2 -4.18,22.15 -19.55,27.54 -4.22,1.48 -11.36,1.37 -16.45,1.07 -8.56,-0.51 -14.45,-7.59 -17.95,-13.57zm-267.4 144.59c6.5,8.98 -1.57,26.46 5.06,43.86 19.29,3.01 38.93,9.21 50.46,13.18 0.54,0.19 2.06,0.78 2.6,0.97l34.67 12.23c-8.14,-14.74 0.18,-34.42 -4.32,-49.49 -2.03,-6.79 -0.8,1.34 -2.4,-6.39 -2.56,-12.36 2.47,-30.56 -2.28,-43.9 -3.41,-9.56 -1.45,-23.98 -1.66,-35.46 -0.34,-19.12 -4.04,0.78 -3.83,-31.74 0.23,-35.64 -3.33,-14.81 -3.8,-33.5 -0.29,-11.37 2.3,-25.95 -1.01,-36.12 -2.04,-6.27 -0.75,2.44 -2.33,-6.6 -2.32,-13.3 2.73,-28.92 -2.34,-43.65 -2.75,-7.98 -3.12,-69.86 0.77,-78.18l8.85 -19.56c11.1,-14.92 17.39,-23.66 35.94,-34.43 11.63,-6.75 12.39,-6.23 20.53,-7.81l4.43 -1.1c14.27,-4.55 28.15,-3.26 42.14,0.49 5.86,1.57 5.89,0.16 11.66,2.53 0.38,0.15 0.81,0.4 1.17,0.57 0.06,0.03 2.84,1.53 3.49,1.86l16.99 9.09c25.61,17.84 8.38,6.33 18.92,18.37 4.79,5.47 4.31,2.89 8.32,11.12l2.29 4.81c0.18,0.37 0.4,0.82 0.58,1.19 0.18,0.36 0.4,0.82 0.58,1.19 3.71,7.44 4.86,7.95 6.5,16.7 1.98,10.61 3.16,4.7 3.72,15.85 0.53,10.42 1.63,25.24 -1.42,34.41 -4.09,12.29 -1.94,21.45 -2.23,34.9 -0.41,18.92 -3.95,-1.85 -3.83,33.51 0.13,37.73 -2.82,16.41 -3.81,33.5 -0.55,9.53 1.45,26.78 -0.24,35.18 -1.58,7.84 -3.09,1.56 -3.45,14.38 -0.25,8.64 1.27,29.18 -0.97,36.08 -6.14,18.89 -0.34,29.55 -3.05,41.35 -1.84,8.01 -0.78,-1.89 -2.86,7.83 -1.73,8.08 0.13,26.03 -0.3,35.35 -0.78,17.01 -3.9,-4.81 -3.79,33.54 0.11,36.25 -3.32,14.81 -3.78,33.51 -0.31,12.51 0.36,25.23 -0.05,37.87 4.56,7.89 5.47,2.33 21.09,18.45 9.33,9.62 14.47,7.18 21.81,19.01 11.94,19.25 11.27,8.06 29.75,41.01 3.68,6.57 -1.02,4.1 4.58,4.2 0.23,-14.58 2.89,-4.69 3.85,-17.62 0.53,-7.11 -0.05,-17.51 -0.12,-24.95 -0.19,-20.2 4.09,-4.15 3.71,-44.26 -0.19,-19.5 3.99,-4.78 3.75,-44.22 -0.17,-27.01 3.83,-8.59 3.72,-44.25 -0.11,-36.27 3.81,-10.01 3.65,-44.25 -0.17,-35.82 1.36,-20.45 3.41,-30.52 1.22,-5.99 -0.97,-27.07 0.76,-34.77 2.13,-9.43 3.4,1.93 3.21,-21.43 -0.32,-40.03 3.85,-27.37 3.68,-46 -0.34,-36.38 3.71,-34.22 3.74,-44.19 0.15,-50.25 2.64,-28.06 3.69,-44.29l0.23 -35.32c1.9,-9.87 3,-0.61 2.51,-8.68 -0.39,-6.53 -3.18,2.5 -2.79,-21.64 0.25,-15.86 -1.64,-10.95 -3.41,-19.64l-10.8 -31.84c-1,-3.36 -0.16,-2.49 -1.57,-5.58 -1.9,-4.16 -2.75,-1.19 -8.55,-13.55l-9.59 -15.58c-2.8,-4.73 -31,-34.01 -39.12,-38.65l-4.56 -2.63c-12.85,-9.03 -14.19,-8.8 -28.6,-15.83 -39.09,-19.08 -49.85,-15.16 -95.59,-15.23 -7.61,-0.01 -27.63,5.89 -36.06,8.82l-18 6.86c-6.68,3.39 -24.7,12.92 -30.08,17.94 -9.32,8.7 -6.07,2.61 -25.65,22.01 -1.86,1.84 -4.97,4.79 -6.16,6.34l-25.32 38.16c-0.19,0.37 -0.41,0.82 -0.58,1.2l-9.23 22.72c-1.25,4.33 -0.6,5.94 -1.96,10.5 -6.37,21.41 -6.86,40.88 -6.38,64.86 0.27,13.41 3.64,7.76 3.93,21 0.18,8.16 -0.22,16.79 -0.21,25.01 0.01,15.3 4.13,4.23 3.75,44.19 -0.25,26.45 4.11,1.5 3.69,44.26 -0.25,25.97 3.95,1.75 3.72,44.23 -0.1,18.97 -0.96,10.49 2.61,22.07 2.46,7.99 -1.89,41.52 3.57,44.57z"/>
    <path class="fil3" d="M1428.31 572.29l0.12 0.18 106.42 51.17c11.75,6.44 2.94,-0.52 16.01,9.18 7.44,5.52 2.8,-1.81 7.39,6.05l3.22 0.67c0.41,-12.64 -0.26,-25.36 0.05,-37.87 0.46,-18.71 3.89,2.74 3.78,-33.51 -0.12,-38.35 3.01,-16.53 3.79,-33.54 0.43,-9.32 -1.43,-27.27 0.3,-35.35 2.08,-9.72 1.02,0.18 2.86,-7.83 2.71,-11.8 -3.09,-22.46 3.05,-41.35 2.24,-6.9 0.73,-27.44 0.97,-36.08 0.36,-12.82 1.87,-6.55 3.45,-14.38 1.69,-8.4 -0.31,-25.64 0.24,-35.18 0.99,-17.09 3.94,4.23 3.81,-33.5 -0.12,-35.36 3.42,-14.59 3.83,-33.51 0.29,-13.45 -1.86,-22.61 2.23,-34.9 3.05,-9.17 1.95,-23.99 1.42,-34.41 -0.57,-11.15 -1.74,-5.24 -3.72,-15.85 -1.64,-8.75 -2.79,-9.27 -6.5,-16.7 -0.18,-0.36 -0.4,-0.82 -0.58,-1.19 -0.18,-0.36 -0.4,-0.82 -0.58,-1.19l-2.29 -4.81c-4.01,-8.23 -3.53,-5.65 -8.32,-11.12 -10.54,-12.04 6.69,-0.53 -18.92,-18.37l-16.99 -9.09c-0.65,-0.33 -3.44,-1.83 -3.49,-1.86 -0.36,-0.17 -0.8,-0.42 -1.17,-0.57 -5.77,-2.37 -5.81,-0.96 -11.66,-2.53 -13.99,-3.75 -27.86,-5.04 -42.14,-0.49l-4.43 1.1c-8.14,1.58 -8.9,1.06 -20.53,7.81 -18.55,10.77 -24.85,19.5 -35.94,34.43l-8.85 19.56c-3.89,8.32 -3.52,70.2 -0.77,78.18 5.08,14.73 0.03,30.36 2.34,43.65 1.57,9.04 0.29,0.33 2.33,6.6 3.31,10.17 0.72,24.75 1.01,36.12 0.47,18.69 4.03,-2.14 3.8,33.5 -0.21,32.52 3.49,12.62 3.83,31.74 0.2,11.48 -1.75,25.9 1.66,35.46 4.75,13.35 -0.28,31.54 2.28,43.9 1.6,7.73 0.37,-0.4 2.4,6.39 4.5,15.06 -3.81,34.75 4.32,49.49z"/>
    <path class="fil3" d="M222.7 639.35l2.93 -0.32c1.86,-4.13 1.86,-3.78 13.2,-10.51l15.34 -9.43c18.19,-8.62 20.29,-12.03 37.47,-20.68l10.31 -4.18c6.81,-2.25 10.83,-4.87 16.9,-7.81l7.94 -2.98c11.65,-3.35 7.32,-3.35 15.05,-6.26 0.45,-0.17 0.91,-0.32 1.37,-0.48l2.82 -0.8c4.66,-1.4 5.05,-1.74 9.31,-3.63l0.14 -0.2c0.5,-11.24 3.08,-2.84 3.74,-16.17 0.27,-5.39 -0.08,-12.27 -0.11,-17.83 -0.14,-31.99 3.71,-12.88 3.77,-33.54 0.14,-44.68 2.23,-27.46 3.59,-42.48 0.19,-2.11 0.01,-6.59 -0.02,-8.92 -0.49,-43.9 3.86,-10.48 3.75,-49.59 -0.11,-38.33 3.02,-16.8 3.74,-33.55 0.79,-18.48 -3.11,-25.56 2.19,-40.84l1.36 -28.31c-0.22,-26.82 3.99,-11.58 3.78,-33.57 -0.28,-29.42 2.78,-38.59 -3.82,-61.66 -1.6,-5.59 -0.04,-1.75 -2.2,-5.92l-12.62 -23c-8.09,-8.77 -18.98,-18.3 -29.49,-23.9 -12.97,-6.91 -31.44,-10.81 -46.96,-10.9 -11.13,-0.06 -20.89,2.42 -31.26,5.82l-21.88 11.37c-21.87,14.9 -10.19,8.49 -25.08,24.61 -5,5.41 -6.22,10.76 -8.38,17.71 -3.85,12.41 -6.83,15.34 -6.72,28.57 0.09,12.04 -1.34,24.39 2.23,34.88 3.49,10.25 1.28,24.62 1.39,36.13 0.13,13.19 1.88,6.87 3.51,15.91 0.75,4.2 0.29,12.95 0.27,17.6 -0.14,37.51 1.78,15.92 3.64,31.71 1.21,10.31 -1.53,27.5 0.26,36.97 1.61,8.52 3.41,0.43 3.64,14.36 0.27,16.78 -2.03,22.82 2.27,35.37 1.9,5.55 1.37,9.39 1.31,16.1 -0.21,24.68 -1.7,15.15 2.98,32.69 2.28,8.54 -0.04,26.61 0.56,36.53 1.05,17.51 3.89,-4.13 3.78,31.72 -0.12,37.9 2.94,15.99 3.8,33.52 0.58,11.71 -0.52,23.88 0.22,35.89z"/>
    <path class="fil1" d="M550.89 913.37c5.9,-3.48 1.76,-0.92 10.18,1.35 3.04,0.82 2.11,0.41 4.76,0.9 11.13,2.06 20.27,8.71 25.55,18.43 6.2,11.42 5.7,31.44 -1.31,42.39 -10.57,16.53 -32.76,19.73 -45.75,14.93l-9.47 -4.77c-11.19,-5.52 -16.97,-12.95 -17.21,-27.09 -0.1,-6.06 -0.7,-13.38 0.79,-19.11l7.19 -12.59c3.21,-3.52 6.21,-6.49 10.36,-8.72l13.35 -5.09c0.29,-0.66 1.07,-0.35 1.55,-0.64zm-25.71 201.39l58.52 -5.24c8.77,-2.81 20.41,-7.09 27.68,-12.52 22.61,-16.9 39.51,-34.4 49.42,-62.25 0.82,-2.3 0.89,-3.17 1.67,-5.44 5.08,-14.71 1.46,-8.61 3.39,-17.97 1.6,-7.78 3.2,0.44 3.2,-11.21 0,-42.17 -0.95,-16.07 -3.37,-30.49 -1.91,-11.41 1.46,-5.66 -5.23,-23.29l-5.81 -11.96c-0.18,-0.36 -0.4,-0.82 -0.58,-1.19l-13.39 -22.26c-6.04,-7.88 -22.96,-21.38 -31.9,-26.02l-2.41 -1.16c-1.4,-0.69 -3.07,-1.48 -4.75,-2.3 -10.08,-4.93 -35.41,-14.26 -42.81,-14.26 -10.23,0 -26.93,-1.55 -36.03,1.27l-27.6 7.96c-7.76,3.35 -21.43,10.24 -26.72,15.65 -5.03,5.15 -9.93,10.08 -14.93,15.07 -9.66,9.66 -10.92,9.12 -15.88,19.78l-4.56 9.6c-0.95,1.91 -1.59,3.18 -2.39,4.75l-2.43 4.71c-8.14,16.95 -6.76,24.08 -6.76,43.52 0,33.07 -2.89,18.06 4.26,40.5l0.89 2.74c4.61,13.62 14.5,30.91 23.44,42.44 3.84,4.95 24.98,20.12 32.89,24.08 15.43,7.73 13.59,8.92 29.48,12.2 9.13,1.88 2.3,3.3 12.69,3.3z"/>
    <path class="fil1" d="M1196.6 913.37c6.39,-3.71 3.92,-0.25 8.98,1.17 8.02,2.24 10.89,-0.14 19.96,6.57 8.87,6.57 14.51,14.88 14.96,25.78 0.83,20.04 -2.81,32.86 -19.41,40.79 -0.22,0.1 -2.71,1.34 -3.57,1.77 -0.36,0.18 -0.8,0.43 -1.17,0.6 -12.73,6.04 -30.8,3.91 -41.19,-6.13 -9.08,-8.78 -8.75,-9.96 -12.15,-20.3 -1.77,-5.39 -1.6,-2.72 -2.42,-6.65 -1.64,-7.85 -0.32,-4.15 1.02,-8.38 1.63,-5.17 0.81,-3.26 1.91,-8.63 1.52,-7.39 4.03,-8.06 8.19,-12.05 25.71,-24.69 10.3,-6.04 24.9,-14.52zm-7.79 -44.26c-4.45,2.58 -13.33,0.87 -33.24,10.97 -20.34,10.31 -23.56,16.2 -42.65,35.06 -8.97,8.86 -21.53,40.62 -23.55,53.07 -0.8,4.93 -1.27,45.87 1.33,53.66l3.59 10.78c1.9,5.67 3.34,12.28 7.09,17.89 0.93,1.4 1.99,2.49 3.12,4.01l2.76 4.26c16.69,28.24 16.62,19.48 30.82,32.92 5.5,5.21 2.39,2.62 8.66,5.82 13.14,6.73 20.26,11.18 33.16,13.86 12.29,2.56 -1.5,3.44 26.82,3.35 9.83,-0.03 21.71,1.17 30.1,-1.65 6.2,-2.08 5.72,-1.26 11.65,-2.71l18.73 -6.98c16.72,-8.36 7.51,-4.76 17.71,-10.8l3.47 -1.96c13.39,-9.18 26.62,-28.58 34.23,-43.77l14.18 -48.41c1.35,-24.93 -2.27,-21.8 -3.47,-28.86 -2.06,-12.07 1.76,-2.37 -3.94,-19.29l-18.41 -35.11c-5.24,-8.83 -16.48,-18.41 -24.03,-23.23l-36.73 -18.52c-11.96,-3.97 -47.77,-12.28 -61.39,-4.35z"/>
    <path class="fil4" d="M816.74 699.17c-12.05,6.85 -34.52,-1.54 -47.62,3.36 -0.39,0.15 -0.83,0.38 -1.2,0.55 -6.53,2.85 -13.07,5.56 -16.04,12.12 -2.06,4.55 -2.22,13.51 -2.13,19.51 0.17,11.9 1.06,10.39 7.77,17.12 4.58,4.59 11.66,7.34 17.96,8.45 8.19,1.44 9.88,-3.47 20.47,-3.5 16.38,-0.04 36.93,2.67 52.13,-2.29 0.46,-0.15 0.88,-0.35 1.36,-0.48 9,-2.45 111.55,-1.56 123.75,-0.89 9.69,0.54 9.9,3.88 20.99,3.87 8.88,-0.01 17.79,-0.05 26.68,-0.1 22.75,-0.12 16.05,3.66 47.87,3.6 12.25,-0.03 13.79,3.75 33.64,3.67 1.79,-0.01 5.32,-0.02 6.98,0.23l5.56 1.71c10.6,3.77 19.07,1.53 26.21,3.99 3.53,1.21 0.31,0.86 5.47,1.44 4.35,0.49 9.81,-0.38 14.1,0.14 10.41,1.27 1.49,1.13 9.46,3 4.36,1.02 6.97,0.2 11.32,1.13 8.36,1.79 -0.41,1.68 9.45,3.01 4.91,0.66 8.32,-0.43 13.36,0.84 5.85,1.47 -1.2,-0.18 3.82,1.48 0.43,0.14 0.86,0.35 1.31,0.49l84.9 20.88c15.91,4.74 33.97,9.29 49.02,16.79l27.93 11.23c6.51,1.94 2.7,0.18 8.94,3.49 7.28,3.87 14.3,4.88 23.21,4 9.44,-0.93 18.3,-7.35 20.94,-17.08 4.73,-17.4 -0.63,-23.59 -7.8,-30.51 -9.18,-8.86 -16.82,-9.76 -26.54,-14.32l-64.34 -23.73c-4.39,-1.43 -4.28,-1.54 -9.33,-3.16l-9.34 -3.17c-1.7,-0.56 -2.33,-0.66 -4.11,-1.27 -0.43,-0.15 -0.89,-0.33 -1.31,-0.48l-35.22 -9.16c-2.29,-0.54 -2.66,-0.34 -4.64,-0.72 -0.55,-0.11 -1.01,-0.14 -1.54,-0.25l-2.83 -0.75c-0.44,-0.13 -0.87,-0.34 -1.3,-0.48l-65.28 -13.09c-9.93,-0.4 -5.24,-0.96 -11.16,-2.7 -6.81,-1.99 -15.47,-0.96 -20.98,-3.24 -6.11,-2.52 -18.79,-1.54 -26.02,-4.01 -5.16,-1.76 -13.62,-1.12 -19.78,-1.13 -14.42,-0.02 -9.35,-3.38 -21.05,-3.87 -8.42,-0.35 -18.15,1.47 -25.9,-0.85 -11.31,-3.39 -7.2,-2.81 -22,-2.73 -8.35,0.05 -18.56,0.53 -26.69,0.11 -12.07,-0.62 -6.35,-3.85 -21.01,-3.87 -30.38,-0.03 -171.94,-2.62 -179.43,1.64z"/>
    <path class="fil4" d="M1472.41 70.72c-3.01,1.76 -1.88,0.47 -4.97,2.23 -1.83,1.04 -4.16,2.93 -5.09,3.75 -13.01,11.42 -8.9,32.36 -5.02,37.26l15.02 11.54c17.35,7.58 13.67,-9.07 46.96,0.81 14.54,4.32 1.76,-2.41 23.57,8.42 8.61,4.27 21.85,12.06 28.42,19.01 9.68,10.23 23,25.67 26.38,39.6 2.51,10.31 4.47,16.51 4.35,27.83 -0.22,21.8 -0.07,43.71 -0.04,65.53 0.04,30.05 -0.59,16.29 -3.31,28.81 -1.78,8.22 -2.81,29.9 4.23,41.96 3.5,5.98 9.39,13.06 17.95,13.57 5.09,0.31 12.23,0.41 16.45,-1.07 15.37,-5.38 15.71,-13.34 19.55,-27.54l0.6 -80.61c0.02,-13.62 3.91,-12.36 3.81,-28.19 -0.2,-33.29 -2.15,-12.59 -3.65,-28.3 -1.08,-11.34 1.83,-3.84 -2.36,-16.98 -2.44,-7.67 -1.05,-8.26 -6.55,-22.82l-2.32 -4.97c-0.18,-0.37 -0.43,-0.81 -0.62,-1.17 -0.18,-0.36 -0.42,-0.81 -0.61,-1.17l-13.54 -23.77c-4.33,-7.38 -26.17,-29.05 -33.69,-33.54l-2.31 -1.33c-15.63,-10.25 -1.98,-3.69 -26.16,-16.29l-13.22 -6.44c-0.43,-0.16 -0.9,-0.32 -1.34,-0.47l-7.97 -2.7c-15.54,-5.16 -25.32,-5.48 -42.82,-5.48 -10.01,0 -23.73,-2.16 -31.71,2.51z"/>
    <path class="fil4" d="M319.88 68.35c-7.36,-1.1 -23.58,-0.11 -31.91,-0.15 -19.23,-0.09 -39.66,2.55 -39.9,27.23 -0.11,11.9 -0.72,16.02 8.69,24.24l17.51 7.35c5.09,0.68 22.31,-12.03 60.51,6.72l4.8 2.29c10.32,4.9 28.82,18.63 35.52,28.32l15.13 25.28c1.87,4.37 0.84,2.44 2.14,6.66 0.14,0.45 0.26,0.93 0.4,1.38l1.45 3.89c4.2,12.42 1.5,71.54 1.54,93.99 0.06,33.42 -1.33,16.13 -3.45,28.42 -4.73,27.45 4.35,34.24 16.01,46.76 51.99,1.79 42.91,-24.81 42.9,-85.81 -0,-21.21 -1.78,-15.05 2.77,-30.68 2.67,-9.16 0.92,-21.48 0.99,-31.33l-0.92 -11.78c-5.66,-19.93 -0.98,-12.75 -3.77,-22.88 -0.13,-0.46 -0.33,-0.88 -0.47,-1.32l-11.22 -29.68c-0.24,-0.49 -0.94,-1.89 -1.18,-2.38 -0.18,-0.36 -0.4,-0.82 -0.58,-1.19 -0.24,-0.49 -0.91,-1.89 -1.14,-2.38l-8.82 -14.33c-9.46,-14.89 -7.86,-10.22 -22.49,-25.19 -5.84,-5.98 -8.46,-9.72 -16.94,-14.77l-48.9 -24.08c-3.84,-1.06 -2.58,-0.47 -6.18,-1.09 -11.24,-1.91 -2.15,-1.94 -12.52,-3.49z"/>
    <path class="fil5" d="M225.63 639.02c1.35,12.23 -1.22,33.94 0.97,43.76 1.5,6.71 3.44,1.33 3.33,18.09 -0.05,7.66 -0.11,15.33 0.04,22.98 9.72,-1.74 5.23,-1.75 12.34,-6.72l85.38 -40.59c0.44,-0.16 0.92,-0.3 1.37,-0.45 12.18,-3.98 13.63,-6.7 18.84,-8.25 0.01,-14.11 3.79,-7.57 3.77,-23.45 -0.01,-7.09 -0.81,-18.3 -0.08,-24.92 1.08,-9.82 1.2,-2.96 2.97,-9.49l0.77 -37.72c-4.26,1.89 -4.65,2.23 -9.31,3.63l-2.82 0.8c-0.46,0.15 -0.92,0.31 -1.37,0.48 -7.73,2.92 -3.4,2.92 -15.05,6.26l-7.94 2.98c-6.07,2.94 -10.09,5.56 -16.9,7.81l-10.31 4.18c-17.18,8.66 -19.28,12.06 -37.47,20.68l-15.34 9.43c-11.34,6.73 -11.34,6.38 -13.2,10.51z"/>
    <path class="fil5" d="M1435.98 668.11c3.37,7.75 -0.13,1.32 5.89,3.35 2.14,0.72 1.79,0.44 3.94,1.23l25.72 11.04c11.28,5.06 4.98,0.62 23.83,9.97l52.75 28.42c3.18,1.13 1.27,0.93 5.71,1.34 0.83,-16.92 -1.74,-29.24 2.45,-41.46 4.22,-12.31 0.56,-29.4 1.98,-43.11 -4.59,-7.87 0.05,-0.53 -7.39,-6.05 -13.07,-9.7 -4.26,-2.74 -16.01,-9.18l-106.42 -51.17 0.69 37.49c1.99,8.47 1.31,-3.28 3.13,9.43l0.22 36.94c1.63,11.02 2.05,-2.81 3.5,11.77z"/>
    <path class="fil4" d="M1480.21 851.41c-5.93,3.57 -2.88,-1.88 -8.7,4.34 -3.64,3.89 -0.21,-0.42 -2.71,4.45 -0.19,0.36 -0.4,0.83 -0.57,1.19 -3.29,6.92 -3.12,9.29 -2.86,18.43l2.49 11.52c4.61,9.58 9.47,9.94 14.42,17.07l3.21 5.7c0.21,0.34 0.5,0.77 0.72,1.1l13.09 25.96c0.14,0.44 0.3,0.9 0.44,1.34l5.88 20.79c1.81,8.04 -1.32,12.76 1.68,21.35 2.76,7.9 5.34,9.85 10.42,12.48 0.36,0.19 0.81,0.42 1.18,0.6l11.68 2.72c5.02,0.19 10.74,0.12 15.02,-1.32 19.03,-6.41 17.12,-26.41 16.07,-45.19 -0.6,-10.72 -1.69,-6.51 -3.04,-11.51 -1.89,-6.95 0.65,-6.92 -2.76,-16.84l-2.6 -8.06c-0.15,-0.43 -0.31,-0.9 -0.47,-1.33 -9.13,-23.85 -25.14,-46.8 -44.52,-63.64 -4.98,-4.33 -9.82,-5.06 -20.13,-3.74l-7.93 2.59z"/>
    <path class="fil6" d="M944.75 1340.04c-3.11,-5.7 1.32,-1.58 -7.05,-3.27 -14.25,-2.86 -17.62,-6.8 -24.33,-6.94 -0.26,25.16 5.19,69.15 -30.6,69.14l-12.13 -2.38c-7.83,-3.57 -14.27,-10.38 -16.63,-18.63 -2.08,-7.26 -1.73,-38.46 -1.82,-48.15 -8.41,0.21 -3.11,0.58 -7.6,2.11l-19.9 5.22c-15.19,3.24 -6.49,50.4 -6.34,50.8 2.44,6.85 3.23,9.82 6.64,16.71l2.95 6.04c0.2,0.36 0.44,0.81 0.65,1.16 5.39,8.72 23.96,24.2 36.75,26.85 5.09,1.05 3.75,0.09 8.97,1.81 3.75,1.23 2.12,2.99 10.02,2.22l20.08 -5.19c0.18,-0.07 6.76,-3.42 6.97,-3.53l2.39 -1.16c7.58,-3.77 18.81,-13.93 23.18,-21 1.75,-2.83 3.17,-6.31 4.21,-8.38 9.7,-19.4 8.03,-33.49 7.11,-54.83 -0.37,-8.63 1.46,-5.99 -3.53,-8.61z"/>
    <path class="fil2" d="M1435.98 668.11c-1.45,-14.58 -1.88,-0.75 -3.5,-11.77l-0.22 -36.94c-1.83,-12.71 -1.14,-0.95 -3.13,-9.43l-0.69 -37.49 -0.12 -0.18 -34.67 -12.23c-0.55,-0.19 -2.06,-0.78 -2.6,-0.97 -11.53,-3.97 -31.17,-10.17 -50.46,-13.18 -6.63,-17.4 1.44,-34.88 -5.06,-43.86 2.18,25.72 -3.27,29.69 3.95,49.8 1.74,4.83 1.05,12.23 1.01,18.07 -0.23,34.06 3.33,18.33 3.73,35.34 0.28,11.82 -0.74,24.24 0.15,36.02l66.25 18.79c0.46,0.14 0.94,0.24 1.41,0.38l23.97 7.64z"/>
    <path class="fil2" d="M355.47 572.07l-0.14 0.2 -0.77 37.72c-1.77,6.52 -1.89,-0.33 -2.97,9.49 -0.73,6.62 0.07,17.82 0.08,24.92 0.02,15.88 -3.76,9.34 -3.77,23.45l16.86 -4.95c2.99,-1.03 1.5,-0.64 5.26,-1.86l28.14 -9.24c5.47,-1.87 -1.98,-0.06 5.36,-1.74l20.82 -5.85c0.42,-0.15 0.85,-0.36 1.28,-0.5l13.69 -2.08c2.06,-15.08 -2.2,-34.23 2.32,-47.13 4.19,-11.95 1.41,-35.76 2.4,-49.25l-56.98 15.92c-2.66,0.8 -3.23,0.91 -5.38,1.64l-26.2 9.27z"/>
    <path class="fil7" d="M934.47 1100.33c-9.21,-4.89 -13.13,-15.1 -23.89,-20.11 -27.19,-12.65 -46.45,-6.54 -66.19,7.17 -7.41,5.15 -1.08,-1.1 -7.94,8.03l-1.58 1.94c-8.59,11.25 -2.11,36.09 5.36,48.26 0.71,1.16 3.68,5.04 5.03,7.32 5.44,9.18 10.12,13.2 18.24,20.32 10.29,9.01 28.27,9 38.56,0 2,-1.75 3.88,-3.94 6.32,-6.17l11.93 -14.15c12.39,-20.96 14.17,-25.69 14.17,-52.62z"/>
    <path class="fil8" d="M1553.81 723.46c2.3,4.25 13.05,11.11 18.04,14.14 1.69,1.02 1.38,0.55 3.47,1.93 4.33,2.87 6.01,6.09 9.46,8.25 5.4,3.39 5.42,1.83 11.48,8.2 10.75,11.3 7.75,5.47 14.95,11.42 13.16,10.87 18.42,23.49 23.63,25.41 0.84,-21.89 -2.38,-14.08 3.23,-35.74 0.66,-2.54 0.51,-1.97 0.72,-4.69 0.17,-2.28 -0.02,-6.45 -0.04,-8.92 -0.07,-7.09 -0.01,-14.17 -0.06,-21.25 -5.6,-0.1 -0.9,2.37 -4.58,-4.2 -18.47,-32.95 -17.8,-21.76 -29.75,-41.01 -7.34,-11.83 -12.48,-9.39 -21.81,-19.01 -15.62,-16.11 -16.53,-10.56 -21.09,-18.45l-3.22 -0.67c-1.43,13.71 2.23,30.8 -1.98,43.11 -4.19,12.22 -1.62,24.55 -2.45,41.46z"/>
    <path class="fil2" d="M144.25 716.13c0.9,13.52 -0.18,29.14 0.98,41.42 1.02,10.87 3.15,2.01 3.83,15.83 0.33,6.89 -0.77,12.92 0.56,19.84 8.27,-2.34 8.93,-16.43 23.57,-24.95 8.45,-4.92 6.13,-3.71 13.37,-11.08l20.59 -16.8c3.9,-2.95 2.2,-1.15 5.61,-3.17 3.41,-2.02 3.34,-2.52 6.18,-4.49 5.36,-3.69 6.19,-2.21 11.02,-8.88 -0.14,-7.65 -0.09,-15.32 -0.04,-22.98 0.11,-16.76 -1.83,-11.38 -3.33,-18.09 -2.19,-9.82 0.38,-31.53 -0.97,-43.76l-2.93 0.32c-4.04,6.13 -2.84,-0.09 -11.99,9.03 -17.14,17.1 -15.07,11.32 -21.25,17.76l-42.8 56.9c-0.2,-10.77 -0.54,-4.58 -2.41,-6.9z"/>
    <path class="fil4" d="M1196.6 913.37c-14.6,8.49 0.82,-10.17 -24.9,14.52 -4.16,3.99 -6.67,4.67 -8.19,12.05 -1.1,5.37 -0.28,3.46 -1.91,8.63 -1.34,4.24 -2.66,0.53 -1.02,8.38 0.82,3.92 0.65,1.26 2.42,6.65 3.39,10.33 3.07,11.52 12.15,20.3 10.39,10.04 28.46,12.17 41.19,6.13 0.36,-0.17 0.81,-0.42 1.17,-0.6 0.86,-0.42 3.35,-1.66 3.57,-1.77 16.61,-7.93 20.24,-20.76 19.41,-40.79 -0.45,-10.9 -6.09,-19.21 -14.96,-25.78 -9.06,-6.71 -11.94,-4.33 -19.96,-6.57 -5.05,-1.41 -2.59,-4.88 -8.98,-1.17z"/>
    <path class="fil4" d="M550.89 913.37c-0.48,0.28 -1.26,-0.03 -1.55,0.64l-13.35 5.09c-4.15,2.23 -7.15,5.2 -10.36,8.72l-7.19 12.59c-1.5,5.73 -0.89,13.05 -0.79,19.11 0.23,14.13 6.02,21.57 17.21,27.09l9.47 4.77c12.99,4.8 35.17,1.6 45.75,-14.93 7.01,-10.95 7.5,-30.98 1.31,-42.39 -5.27,-9.72 -14.42,-16.37 -25.55,-18.43 -2.65,-0.49 -1.72,-0.08 -4.76,-0.9 -8.42,-2.26 -4.28,-4.82 -10.18,-1.35z"/>
    <path class="fil4" d="M384.89 446.02c6.49,19.18 29.69,20.1 40.95,15.44 4.97,-2.06 8.04,-4 10.54,-8.6 6.34,-11.65 5,-34.56 3.39,-41.84 -1.22,-5.52 -4.86,-11.65 -10.16,-14.57l-4.8 -2.3c-13.71,-5 -26.91,-1.28 -34.92,10.48 -0.92,1.36 -0.21,0.06 -1.96,3.37l-1.2 2.39c-1.73,4.01 -0.58,-1.64 -1.77,5.56 -0.36,2.15 -0.45,28.93 -0.06,30.07z"/>
    <path class="fil4" d="M1590.95 415.92c0,14.17 -1.62,24.55 2.09,33.3 2.8,6.6 4.17,8.16 9.85,11.07l3.57 1.68c2.38,0.85 0.98,0.61 4.07,1.05 20.18,2.87 21.03,-1.49 30.51,-11.03 6.73,-6.77 5.54,-5.06 5.49,-16.5 -0.06,-13.82 2.04,-27.92 -6.78,-36.48 -7.42,-7.2 -19.92,-6.2 -29.43,-6.2 -4.03,0 -8.97,5.54 -12.13,9.18l-5.8 10.1c-1.62,3.91 -1.45,-4.26 -1.45,3.84z"/>
   </g>
   <ellipse class="fil1" cx="251.57" cy="1790.33" rx="251.57" ry="326.56"/>
   <ellipse class="fil2" cx="251.57" cy="1790.33" rx="190.17" ry="281.23"/>
   <path class="fil0" d="M251.57 1509.1c33.16,0 64.33,12.56 91.47,34.62 3.59,19.86 5.49,40.35 5.49,61.31 0,163.9 -114.79,299.33 -263.67,320.67 -14.94,-40.16 -23.45,-86.3 -23.45,-135.38 0,-155.32 85.14,-281.23 190.17,-281.23z"/>
   <path class="fil1" d="M177.94 1921.73l0 0c9.33,0 16.97,6.57 16.97,14.59l0 122.55c-11.85,-5.46 -23.2,-12.59 -33.93,-21.21l0 -101.34c0,-8.03 7.63,-14.59 16.97,-14.59z"/>
   <path class="fil1" d="M331.56 1914.07l0 0c9.33,0 16.97,6.57 16.97,14.59l0 103.64c-10.68,9.38 -22.04,17.25 -33.93,23.43l0 -127.07c0,-8.03 7.63,-14.59 16.97,-14.59z"/>
   <ellipse class="fil9" cx="117.92" cy="1741.66" rx="33.61" ry="28.91"/>
   <path class="fil9" d="M173.2 1679.76c31.98,-75.95 76.24,-80.04 53.55,-110.87 -46.37,-63 -121.57,82.63 -121.26,98.34 0.76,38.07 59.13,37.74 67.72,12.53z"/>
   <ellipse class="fil1" cx="1560.35" cy="1790.33" rx="251.57" ry="326.56"/>
   <ellipse class="fil2" cx="1560.35" cy="1790.33" rx="190.17" ry="281.23"/>
   <path class="fil0" d="M1560.35 1509.1c33.16,0 64.33,12.56 91.47,34.62 3.59,19.86 5.49,40.35 5.49,61.31 0,163.9 -114.79,299.33 -263.67,320.67 -14.94,-40.16 -23.45,-86.3 -23.45,-135.38 0,-155.32 85.14,-281.23 190.17,-281.23z"/>
   <path class="fil1" d="M1486.72 1921.73l0 0c9.33,0 16.97,6.57 16.97,14.59l0 122.55c-11.85,-5.46 -23.2,-12.59 -33.93,-21.21l0 -101.34c0,-8.03 7.63,-14.59 16.97,-14.59z"/>
   <path class="fil1" d="M1640.34 1914.07l0 0c9.33,0 16.97,6.57 16.97,14.59l0 103.64c-10.68,9.38 -22.04,17.25 -33.93,23.43l0 -127.07c0,-8.03 7.63,-14.59 16.97,-14.59z"/>
   <ellipse class="fil9" cx="1426.7" cy="1741.66" rx="33.61" ry="28.91"/>
   <path class="fil9" d="M1481.99 1679.76c31.98,-75.95 76.24,-80.04 53.55,-110.87 -46.37,-63 -121.57,82.63 -121.26,98.34 0.76,38.07 59.13,37.74 67.72,12.53z"/>
  </g>
 </g>
</svg>
