<?xml version="1.0" encoding="UTF-8"?>
<!DOCTYPE svg PUBLIC "-//W3C//DTD SVG 1.1//EN" "http://www.w3.org/Graphics/SVG/1.1/DTD/svg11.dtd">
<!-- Creator: CorelDRAW -->
<svg xmlns="http://www.w3.org/2000/svg" xml:space="preserve" width="203.971mm" height="158.766mm" version="1.1" style="shape-rendering:geometricPrecision; text-rendering:geometricPrecision; image-rendering:optimizeQuality; fill-rule:evenodd; clip-rule:evenodd"
viewBox="0 0 19893.47 15484.57"
 xmlns:xlink="http://www.w3.org/1999/xlink"
 xmlns:xodm="http://www.corel.com/coreldraw/odm/2003">
 <defs>
  <style type="text/css">
   <![CDATA[
    .fil4 {fill:#FEFEFE}
    .fil7 {fill:#FEFEFE}
    .fil3 {fill:#FBD89B}
    .fil0 {fill:#EF9035}
    .fil6 {fill:#E88AB9}
    .fil2 {fill:#C15F39}
    .fil5 {fill:#C99065}
    .fil1 {fill:#5B302E}
   ]]>
  </style>
 </defs>
 <g id="Camada_x0020_1">
  <metadata id="CorelCorpID_0Corel-Layer"/>
  <g id="_2502374814016">
   <g>
    <path class="fil0" d="M6774.91 4681.4c-1766.16,0 -1201.38,-3204.29 718.18,-2226.1 1161.14,591.71 402.14,2226.1 -718.18,2226.1zm6065.37 -2397.28c569.51,-336.41 2008.41,851.91 913.01,2124 -952.26,1105.86 -2981.09,-932.45 -1431.77,-1929.33 112.07,-72.11 464.23,-162.46 518.77,-194.67zm61.94 -321.88c-1327.91,-226.39 -2638.12,-311.59 -3996,-240.21 -335.74,17.65 -620.23,-273.18 -338.07,-565.93 476.51,-494.4 7241.49,198.5 6118.87,1214.33 -266.87,241.49 -1393.46,-341.47 -1784.8,-408.19zm-8654.09 6190.68c-187.37,350.09 2529.93,955.65 3005.68,1035.06 0.92,-312.14 -2406.64,-1837.34 168.45,-3830.11 2308.23,-1786.26 8286.14,249.88 5483.7,3503.42 -78.91,91.62 -265.27,205.78 -285.98,325.92 507.3,-70.1 3101.22,-574.86 2973.65,-1033.96 -265.61,-955.83 470.79,-6143.96 -300.83,-6494.58 -1449.91,-658.81 -3337.46,-1208.15 -5607.35,-1095.48 -1534.06,76.14 -3445.54,105.6 -5176.47,1123.43 -559.08,328.75 -210.65,5308.91 -260.85,6466.29z"/>
    <path class="fil1" d="M4248.14 8152.92c83.29,-1920.18 1.37,-3864.82 1.37,-5786.23 0,-697.59 485.29,-771.94 1036.75,-1025.58 1896.47,-872.28 6769.58,-916.23 8799.07,-161.17 494.32,183.9 1507.71,346.7 1507.11,1004.19 -1.74,1871.16 -119.08,4122.99 1.2,5969.12 161.34,89.31 48.95,679.55 1025.57,934.27 32.47,1248.48 -4044.93,1855.11 -4082.06,1867.89 -795.07,273.75 -4305.32,215.64 -5196.99,14.78 -1404.69,-316.43 -3398.71,-406.23 -4118.05,-1883.01 753.87,-12.73 929.05,-889.06 1026.04,-934.26zm14937.68 -2848.08c110.59,192.61 80.47,1149.45 -108.57,1518.53 -375.84,733.76 -996.65,1608.2 -1947.61,1606.29 -1075.9,-2.17 -918.12,-259.95 -921.98,-1802.18 -2.51,-999.74 47.58,-4608.37 -92.61,-5007.65 2831.84,898.6 2887.64,3385.75 3070.76,3685.01zm-15532.2 -3466.53c-248.55,575.39 280.52,5946.29 -200.32,6438.31 -834.33,853.74 -3946.19,-931.89 -2461.34,-4230.4 420.02,-933.05 1635.62,-2302.24 2734.43,-2426.39 -25.71,54.07 -53.31,155.34 -72.77,218.48zm13629.62 7221.2c1848.3,-288.08 2930.31,-2209.56 2525.74,-3970.12 -412.51,-1795.14 -1165.99,-2959.43 -2807.98,-3818.5 -764.63,-400.05 -1642.3,-372.49 -2429.74,-620.53 -2157.85,-679.71 -5504.62,-876.23 -7902.32,-351.01 -502.74,110.12 -1085.84,260.06 -1590.1,425.08 -986.95,322.98 -2067.89,-85.19 -3735.08,1646.17 -1847.98,1919.11 -2048.42,5915.07 1049.53,6654.24 392.81,93.73 -29.03,954.42 2060.21,1906.16 1959.95,892.85 4588.82,805.84 6681.18,806.46 1645.8,0.5 6017.05,-658.2 6148.56,-2677.94z"/>
    <path class="fil2" d="M15593.63 8153.25c124.17,240.25 -600.53,416.36 -1104.74,606.79 -288.88,109.1 -1512.72,377.95 -1868.91,427.17l6.73 -39.04c-414,267.41 -1116.01,874.15 -1954.68,969.54 -1169.82,133.04 -2354.46,2.56 -3293.75,-840.67 -43.91,-47.98 -74.12,-86.06 -124.38,-118.87l-0.09 29.82c-492,-82.12 -3209.33,-654.52 -3005.68,-1035.06 -35.93,16.75 -266.72,921.43 -1026.04,934.26 369.37,758.3 965.57,1073.81 1781.68,1343.73 1352.71,447.39 1640.29,362.19 2336.37,539.28 716.76,182.34 4631.74,179.85 5196.99,-14.78 473.43,-163 1145.41,88.41 3477.92,-1084.48 156.82,-78.85 610.34,-545.36 604.15,-783.42 -1070.94,-279.33 -902.52,-866.15 -1025.57,-934.27z"/>
    <path class="fil1" d="M6952.44 6889.93c27.77,-38.01 5.24,-13.09 18.62,-62.96l11.8 -39.31c6.47,-17 34.13,-68.73 44.49,-88.86 29.48,-57.26 62.98,-141.17 95.36,-187.69 22.56,-32.43 48.9,-46.18 70.74,-79.21 126.36,-191.12 349.67,-390.77 546.65,-505.8 40.73,-23.79 9.28,-1.13 42.41,-24.3l864.17 -388.21c30.38,-7.05 39.07,-4.38 71.07,-13.08l278.76 -69.33c198.38,-55.94 75.2,4.39 247.94,-50.17 88.56,-27.97 160.43,5.64 251.99,-13.16 75.72,-15.55 3.16,-20.3 101.75,-31.13l562.31 -0.38c48.26,-0.42 98.54,-4.23 141.88,8.24 189.93,54.66 78.05,15.53 255.28,25.74l235.43 46.82c99.27,30.82 187.34,29.99 360.24,87.09l646.51 242.83c140.06,67.12 337.43,203.71 469.51,286.85 53.39,33.6 99.2,89.35 146.91,137.49 224.13,226.11 137.14,98.34 305.55,337.57 0.54,0.75 25.98,31.06 29.71,36.36l133.75 273.42c52.07,38.99 6.5,-4.16 34.84,67.99l21.49 60.48c13.98,72.86 -11.75,85.63 12.76,169.84 20.47,70.32 36.03,83.16 8.57,162.97 -25.97,75.51 -21.18,225.51 -101.84,445.34 -71.79,195.68 -168.17,302.04 -263.12,461.04 -47.57,79.66 -90.06,146.79 -156.32,210.64 -133.06,128.21 -220.94,224.17 -354.74,356.23l-789.87 480.72c-27.99,10.8 20.64,-10.04 -22.86,10.22l-488.66 182.24c-18.61,3.45 -22.61,1.55 -44.95,6.58 -58.67,13.21 -5.72,1.75 -38.46,12.12l-107.08 25.14c-4.48,1.26 -8.55,2.92 -12.87,4.28l-248.41 48.81c-72.42,20.39 -252.37,7.03 -338.55,7.03 -192.53,0 -344.31,18.48 -516.2,-27.01 -60.71,-16.06 -107.55,1.74 -166.33,-15.76 -55.46,-16.5 28.26,-9.61 -77.27,-24.18l-286.06 -67.77 -802.87 -372.43c-1.72,-0.9 -26.13,-13.46 -31.46,-16.66l-82.38 -55.99c-67.39,-39.94 -49.18,-36.39 -99.26,-79.74 -55.3,-47.89 -44.37,-13.17 -101.21,-63.39 -35.17,-31.06 -58.62,-68.57 -93.38,-89.8 -50.65,-30.93 -56.31,-24.83 -105.45,-76.6 -81.25,-85.59 -145.27,-137.16 -214.89,-245.25 -40.25,-62.5 -136.59,-158.79 -219.36,-292.66l-184.16 -344.77c-1.46,-4.04 -2.81,-8.45 -4.19,-12.57l-24.26 -75.78c-1.39,-4 -3.1,-8.18 -4.49,-12.2l-57.2 -209.39c-75.52,-245.62 5.37,-415.79 21.23,-546.19 0.85,-6.97 3.52,-8.73 6.43,-12.35zm301.47 2268.23c50.26,32.81 80.47,70.9 124.38,118.87l303.44 225.12c3.15,1.81 7.66,3.79 10.78,5.66 133.71,79.8 101.23,86.72 311.67,188.31 102.43,49.44 292.37,155.18 387.82,184.77 93.74,29.06 49.98,30.88 165.67,66.79 51.32,15.94 105.13,32.63 174.07,57.11 12.81,4.54 23.67,7.97 37.57,12.88l366.95 98.93c76.89,11.44 63.64,-15.86 161.34,18.82 106.21,37.71 126.35,6.69 218,17.8 84.95,10.3 35.76,36.23 181.5,35.05l480.91 0.26c144.92,0.43 80.22,-29.13 179.93,-36.19 103.12,-7.31 112.46,15.39 215.49,-19.29 58.63,-19.74 35.57,-8.19 98.61,-15.36 96.03,-10.92 42.32,-13.29 91.88,-26.28 86.42,-22.66 28.16,17.31 230.33,-53.1 132.66,-46.2 121.63,-7.9 313.33,-100.3l845.58 -425.91c0.41,-0.29 20.44,-16.85 27.52,-21.89l41.56 -25.39c85.94,-50.08 46.78,-51.17 133.25,-100.75l197.79 -144.79c29.35,-27.09 32.86,-44.92 73.43,-71.13 30.21,-40.58 101.17,-106.36 140.32,-145.8 47.37,-47.73 93.63,-97.89 138.93,-141.08l192.76 -253.47c21.78,-31.64 42.7,-41.21 63.53,-68.7 27.84,-36.72 7.35,-6.73 29.5,-52.96l364.54 -840.6c13.31,-56.31 -0.53,-71.77 18.47,-130.7 32.91,-102.02 22.34,-144.67 22.29,-259.82 -0.24,-431.49 -14.63,-243.37 -33.4,-397.46 -22.47,-184.45 -42.07,-203.11 -112.28,-401.87 -1.38,-3.9 -2.91,-8.25 -4.38,-12.05l-143.43 -248.37c-1.88,-3.98 -20.2,-42.64 -21.83,-45.5l-68.51 -80.46c-42.91,-52.56 -15.66,-35.35 -49.79,-83.19 -54.15,-75.92 -227.68,-224.27 -289.53,-288.2l-161.5 -135.24c-30.78,-20.12 -45.49,-47.02 -78.59,-71.25l-439.31 -273.55 -1037.44 -380.46c-60.63,-22.63 -58.03,-12.75 -115.3,-28.93 -61.6,-17.4 1.04,-5.17 -48.29,-18.3l-568.46 -76.05c-429.93,4 -254.01,-33.33 -529.14,-34.34 -51.55,-0.2 -92.9,-4.43 -138.09,9.62l-124.82 26.25c-92.55,1.1 -191.16,-5.2 -283,-2.25 -109.91,3.52 -53.66,12.96 -119.35,29.56 -49.74,12.57 -93.97,1.87 -143.85,5.76l-361.29 70.43c-87.03,11.59 -9.82,13.65 -103.3,31.93l-345.03 105.63c-165.8,47.87 -343.1,130.86 -493.37,203.9l-268.05 130.62c-4.48,2.22 -17.45,8.33 -21.64,10.72 -30.59,17.38 -46.77,36.21 -71.82,55.89l-84.78 64.64c-2.96,1.91 -7.22,4.29 -10.25,6.12l-236.7 178.24c-65.38,57.02 -77.79,47.92 -154.94,124.15 -184.26,182.06 -141.81,165.91 -267.28,295.91 -53.41,55.35 -27.18,40.31 -58.67,89.24l-181.67 293.95c-39.68,109.33 -93.77,233.27 -116.81,347.83 -12.33,61.29 -34.13,99.6 -32.9,183 1.67,113.81 -34.02,149.42 -35.32,263.78 -0.47,41.69 -3.36,89.18 6.32,129.04 16.83,69.35 26.69,3.75 30.04,118.59 1.38,47.86 -6.15,80.28 6,126.92 35.9,137.87 96.27,375.24 154.16,491.25l45.54 88.31c61.86,127.59 126.14,250.56 209.69,363.81l151.14 215.91c34.5,50.13 101.99,103.7 138.18,139.9 64.33,64.31 66.19,99.51 122.06,159.35 58.22,62.33 93.71,33.23 147.84,120.34z"/>
    <path class="fil3" d="M17643.85 3686.11c-136.36,-136.62 -293.48,-370.45 -494.8,-529.52 -51.94,-41.03 -54.65,-16.93 -110.96,-71.02 -290.93,-279.46 20.94,-840.5 475.85,-459.9 600.9,502.75 506.98,538.82 667.31,704.47 128.68,132.95 95.82,165.58 95.82,418.32 -0.3,0.16 -336.92,369.2 -567.84,36.93 -34.85,-50.14 -14.6,-48.39 -65.38,-99.28zm-1452.28 -1843.35l38.52 42.14 -3.87 5213.55c403.05,228.51 460.15,230.63 889.38,164.76 208.81,-32.05 29.8,23.17 439.15,-75.71 363.88,-87.89 904.09,-476.26 1186.29,-715.63 55.2,-46.82 355.49,-447.97 416.01,-557.62 203.84,-369.33 -192.82,-1729.97 -469.8,-2196.49 -610.1,-1027.61 -1392.28,-1723.54 -2572.2,-2097.93l76.51 222.94z"/>
    <path class="fil3" d="M1287.24 4117.24c69.71,-51.19 445.68,-65.32 451.53,246.53 3.81,202.76 -49.61,401.68 -246.64,477.46 -49.33,18.97 -107.01,14.75 -168.1,14.27 -91.11,-0.72 -73.39,13.09 -130.81,-44.59 -243.1,-244.19 -139.91,-301.13 -85.1,-467.9 40.58,-123.58 75.89,-149.95 179.12,-225.77zm1206.15 -1585.4c76.73,-45.14 219.77,-22.88 294.7,22.96 116.85,71.48 112.13,123.62 136.28,193.55 35.53,102.94 23.55,134.21 -21.55,222.39 -87.63,171.28 -35.74,85.84 -124.38,139.47 -38.42,23.25 -53.79,54.05 -90.71,77.51 -111.03,70.55 -234.6,192.3 -304.76,304.64 -39.1,56.41 -107.7,92.24 -231.77,294.96 -21.46,37.25 11.41,9.28 -34.32,49.15 -159.44,138.99 -460.5,76.33 -517.96,-95.88 -97.9,-293.44 12.06,-291.21 174.57,-545.79 70.05,-109.73 106.97,-100.49 155.14,-177.2 144.72,-230.37 211.12,-206.36 275.24,-266.94 151.96,-143.58 92.95,-98.58 289.52,-218.8zm-1838.39 2771.96c-24.62,204.98 -40.6,531.48 77.33,692.73 100.29,135.54 381.15,536.35 526.24,614.04 118.23,63.3 41.66,65.54 177.05,138.63 60.81,32.83 50.68,60.54 143.1,106.15 111.38,54.98 106.08,70.75 249.11,143.14 254.93,129.02 335.31,142.62 592.27,221.18 170.75,45.71 294.91,38 342.17,54.42 56.66,19.68 -44.56,5.2 64.73,21.12 36.09,5.26 296.02,5.21 332.18,-0.04 115.3,-16.73 412.56,-137.55 444.99,-201.28 24.27,-47.69 12.6,-4628.41 8.98,-5107.4 -1.18,-80.42 -15.45,-101.5 40.48,-148.17 19.46,-63.14 47.06,-164.41 72.77,-218.48 -149.08,16.84 -795.66,309.29 -944.77,420.21 -130.45,97.03 -253.15,137.61 -438.62,303.34 -51.67,46.17 -63.99,25.24 -126.58,87.5 -191.69,190.67 -204.77,147.84 -438.27,403.9 -53.97,59.19 -28.69,64.65 -89.79,126.74 -101.82,103.49 -300.07,373.79 -361.85,480.06 -222.39,382.57 -326.55,550.71 -457.66,945.87l-160.06 542.93c-6.15,34.64 -0.09,55.3 -8.12,92.5 -19.34,89.59 -15.68,-5.45 -28.08,87.34 -10.03,75 17.16,139.63 -17.59,193.57z"/>
    <path class="fil3" d="M12012.57 6677.02c0,-212.85 293.4,-317.52 411.96,-264.34 187.23,83.98 160.93,74.37 219.06,241.02 48.42,137.58 28.8,60.31 -11.32,185.7 -58.7,183.51 -224.75,247.83 -399.93,192.3 -195.27,-61.81 -219.78,-177.16 -219.78,-354.68zm-5060.13 212.91c-4.68,239.9 3.56,167.01 132.82,435.07 81.41,168.83 350.08,501.75 500.58,654.49 94.68,96.1 95.55,62.65 144.55,105.16 -5.32,-105.6 -244.38,-558.3 -141.16,-794.01 85.9,-196.13 122.11,-204.91 359.31,-204.22 318.58,0.92 277.51,416.02 288.86,458.32 106.27,396.34 510.56,653.45 929.24,484.48 204.47,-92.44 405.81,-308.39 433.52,-542.97 -85.7,-91.13 -486.21,-95.41 -711.23,-548.23 -116.87,-235.19 -96.97,-476.3 15.73,-689.63 75.65,-143.19 222.17,-292.34 404.91,-373.18 216.06,-95.58 339.07,-153.29 577.69,-122.32 -27.8,-179.19 144.8,-315.34 305.6,-317.37 209.8,-2.64 60.22,39.48 281.56,35.99 132.99,-2.11 716.39,138.7 805.19,172.53 78.32,29.83 604.01,295.36 657.74,361.69 100.86,124.51 137.18,411.43 -138.15,524.02 -174.23,71.25 -315.77,-67.15 -412.33,-120.62l-442.82 -178.52c33.44,200.31 71.69,29.25 73.7,429.96 0.99,195.32 10.15,130.35 -74.82,305.81 -117.86,243.36 -411.48,442.63 -678.91,474.55 -20.87,261.54 231.74,565.62 488.6,612.01 225.95,40.81 233.52,78.91 545.34,-73.95 57.09,-27.99 204.12,-180.05 246.19,-264.59 175.1,-351.86 -47.36,-660.04 500.37,-627.96 113.49,6.65 211.91,135.69 213.22,233.25 5.46,406.32 21.22,259.03 -65.8,532.66 -74.89,235.52 -129.11,190.77 -75.36,269.2 42.05,-80.91 381.22,-371.5 512.39,-561.16l285.44 -523.85c44.73,-107.1 -124.01,-430.86 -192.57,-527.54 -409.24,-577.1 -922.37,-776.82 -1568.49,-1004.74 -77.99,-27.51 -529.27,-125.43 -595.67,-133.91 -177.22,-10.21 -65.35,28.92 -255.28,-25.74 -51.9,-14.93 -643.86,-11.19 -704.18,-7.86 -98.59,10.84 -26.03,15.59 -101.75,31.13 -30.55,6.27 -249.9,-3 -499.93,63.33l-349.83 82.41 -906.58 412.52c-635.86,371.34 -783,957.45 -787.66,963.83z"/>
    <path class="fil1" d="M9467.79 6610.96c0,-124.83 180.04,-192.58 280.44,-209.63 109.37,-18.58 122.15,-74.07 360.13,1.4 113.82,36.1 240.49,84.54 287.31,208.23 -30.56,66.38 -131.89,162.74 -224.96,193.91 -4.2,1.4 -8.63,2.56 -12.89,3.87 -4.3,1.34 -8.79,2.28 -13.11,3.57 -147.82,44.17 8.37,35.87 -99.9,35.87l-198.23 0c-47.05,0 -378.78,-97.33 -378.78,-237.22zm-1756.02 1398.21c73.18,44.5 -0.17,-12.42 51.8,59.3 2.11,2.91 4.67,6.91 6.72,9.78l53.73 94.11c49.26,94.55 274.09,282.74 379.03,360.56 54.71,40.56 14.18,18.18 80.92,51.59 18.13,9.08 26.13,13.03 44.67,22.26l344.94 103.03c35.5,2.92 80.75,-3.77 115.73,0.47 103.63,12.57 68.62,56.59 207.61,14.39 54.37,-43.5 66.13,16.72 248.17,-38.87 4.25,-1.3 8.36,-2.81 12.78,-3.96 179.89,-46.99 79.09,-11.49 264.21,-102.53l152.21 -90.15c43.66,-31.5 12.62,-6 52.89,-29.92 65.83,-39.13 112.08,-129.62 185.45,-162.94 80.78,30.75 25.27,43.43 143.45,104.79 82.48,42.84 43.15,35.94 98.78,80.07 71.12,56.44 206.23,132.54 300.93,162.33l49.66 17.21c22.06,7.59 51.1,15.58 74.98,23.88 76.1,26.42 53.2,26.53 157.94,24.79 68.85,-1.15 105.91,-14.53 146.35,25.08 161.66,26.94 86.93,-20.99 216.11,-25.44 36.93,-1.27 77.96,4.51 114.52,-1.9 80.13,-14.04 -7.4,4.11 50.07,-16.43l86.72 -28.9c5.07,-1.75 19.24,-7.27 24.36,-9.02l401.92 -208.19c103.11,-68.89 202.88,-203.89 269.88,-309.95l41.14 -62.67c1.15,-6.15 4.6,-7.5 7.2,-11.04 36.46,-43.36 76.44,-149.31 95.28,-208.57 87.03,-273.62 71.27,-126.33 65.8,-532.66 -1.32,-97.56 -99.74,-226.59 -213.22,-233.25 -37.67,-2.2 -112.63,-1.35 -151.41,0.09 -42.12,1.56 -35.84,-1.19 -73.17,10.85 -5.19,1.67 -18.66,7.81 -23.36,9.9 -77.16,34.26 -114.99,74.12 -147.15,149.29 -36.72,85.79 17.3,211.73 -105.28,457.84 -1.71,3.43 -3.68,7.8 -5.39,11.23l-10.96 22.2c-27.5,50.04 -177.05,201.77 -229.83,231.17l-210.24 89.74c-142.61,50.64 -250.46,-0.51 -335.11,-15.79 -65.93,-11.91 -79.12,-5 -155.15,-62.38 -43.12,-32.54 -55.55,-34.4 -91.65,-58.59 -22.96,-15.38 -58.65,-50.7 -76.92,-71.55l-98.24 -147.05c-55.48,-106.48 -77.24,-139.45 -66.63,-272.44 138.86,-16.57 81.97,4.68 206.26,-58.11 3.39,-1.72 7.65,-3.84 11.06,-5.56l66.73 -33.48c3.46,-1.73 7.69,-3.83 11.16,-5.55 160.16,-79.34 303.71,-206.67 383.71,-371.85 84.97,-175.46 75.8,-110.49 74.82,-305.81 -2.02,-400.71 -40.26,-229.65 -73.7,-429.96 -118.53,-68.5 -29.86,-15.45 -145.92,-46.02 -48.14,-12.68 16.89,2.85 -36.09,-13.21l-118.31 -28.36c-86.06,-33.35 -81.09,-13.03 -170.9,-18.63 -126.92,-7.92 -34,-27.35 -147.05,-35.06 -166.05,-11.34 -211.16,34.26 -327.94,-75.27 -86.62,-81.25 -131.16,-87.99 -110.59,-261.18 -61.03,-7.92 -178.01,-15.04 -237.65,-4.63 -55.73,9.72 -33.12,11.51 -88.64,29.21l-251.4 97.75c-211.04,105.14 -115.05,80.86 -199.53,132.92 -127.13,78.34 -48.95,29.4 -112.07,117.83 -40.49,56.73 -32,6.39 -93.31,122.44 -69.19,130.97 -38.52,50.04 -60.6,163.97 -6.44,33.22 -1.91,14.64 -10.47,41.41 -43.56,136.08 -21.44,329.7 55.34,484.25 1.67,3.36 3.75,7.7 5.41,11.12 1.7,3.46 3.68,7.82 5.37,11.31 46.56,95.43 130.76,215.03 227.63,272.85l38.17 26.57c62,54.38 31.95,43.99 122.94,87.63 14.27,6.85 27.59,13.8 45.25,22.42 127.37,62.15 190.04,35.07 266.45,116.33 -27.71,234.58 -229.04,450.53 -433.52,542.97l-98.28 35.05c-110.09,39.91 -207.45,31.49 -318.89,-6.37 -283.89,-96.43 -435.52,-227.7 -512.07,-513.16 -12.33,-45.98 -6.32,-92.36 -6.17,-141.95 0.48,-156.47 -121.82,-315.91 -282.68,-316.37 -237.21,-0.69 -273.42,8.1 -359.31,204.22 -58.85,134.39 0.17,304.08 20.34,406.71 14.37,73.06 6.38,19.98 19.15,61.81 27.15,88.92 -2.73,64.99 49.13,159.08 0.17,0.29 21.87,43.29 21.95,43.52 12.1,30.96 8.36,6.31 11.99,47.42z"/>
    <path class="fil1" d="M12767.94 2779.55c229.69,-134.01 631.95,208.13 446.58,528.12 -284.07,490.4 -1128.23,-130.44 -446.58,-528.12zm72.34 -495.44c-182.34,107.68 -1092.81,123.4 -1033.04,1303.7 85.34,1685.19 2907.97,1316.32 2271.71,-611.86 -186.62,-565.55 -1067.73,-792.81 -1238.67,-691.84z"/>
    <path class="fil1" d="M6629.96 3258.48c-138.14,-348.23 484.83,-762.18 695.99,-266.52 197.78,464.26 -527.1,692.27 -695.99,266.52zm144.95 1422.92c465,0 923.32,-207.01 1092.68,-546.22 250.56,-501.85 278.49,-929.55 -55.12,-1403.55 -523.24,-743.42 -1881.96,-566.36 -2117.66,492.87 -131.64,591.59 249.07,1314.65 963.73,1423.3 108.02,11.3 39.94,33.6 116.37,33.6z"/>
    <path class="fil4" d="M9192.85 1045.51c-21.63,12.9 -8.32,9.71 -41.55,17.27 -194.55,44.26 -431.15,-64.39 -583.15,93.31 -17.34,17.99 -41.24,40.55 -56.76,56.9 -50.14,52.79 -35.87,14.61 -42.81,95.29 -12.63,146.74 -7.68,291.68 129.22,357.04 96.09,45.88 187.66,63.05 308.42,56.7 52.51,-2.76 71.47,-18.43 104.1,-27.68 196.04,-55.5 509.39,23.56 718.75,-9.02 94.08,-14.64 67.65,-34.59 216.45,-33.28 73.8,0.65 161.31,-4.66 232.78,-0.66 111.33,6.23 62.54,36.97 212.54,35.9 165.38,-1.2 330.76,0.03 496.13,-0.67 232.47,-0.99 192.69,36.58 446.02,34.26 148.44,-1.36 125.73,19.39 215.69,33.12 78.02,11.92 165.9,-11.63 238.27,10.11 55.61,16.71 -9.34,18.53 90.32,25.97 35.57,2.66 80.06,-3.9 115.36,0.59 96.49,12.28 44.11,25.36 216.31,32.91 92.3,4.05 50.36,9.69 91.16,22.98 57.78,18.82 54.16,7.7 122.78,12.04 97.82,6.18 37.54,8.57 90.89,24.31 53.14,15.68 68.19,3.9 118.29,14.02 74.98,15.14 -10.98,12.64 89.12,28.01 49.46,7.59 53.21,-3.57 101.39,12.52 54.24,18.11 -18.25,8.1 79.63,24.78 77.51,13.22 60.16,18.65 105.37,28.85 40.13,9.05 65.61,1.91 106.91,10.48l269.6 79.14c5.09,1.72 18.86,7.39 24.11,8.91 38.9,11.29 57.3,7.98 97.48,18.7 42.93,11.46 10.25,4.26 48.66,17.49l237.06 78.35c18.1,5.61 24.6,7.61 37.4,11.95l214.51 85c204.28,63.82 426.38,265.97 643.68,69.33 71.75,-64.93 134.98,-188.95 103.54,-289.92l-14.27 -36.55c-65.21,-196.39 -132.4,-181.45 -267.42,-243.49l-1218.04 -416.33 -355.04 -76.57c-103.78,-11.35 -21.2,-13.02 -103.04,-29.19 -42.09,-8.32 -61.66,-0.25 -104.64,-11.57 -56.36,-14.84 4.24,-17.89 -90.12,-26.64 -228.96,-21.23 -94.68,-24.79 -214.79,-34.67 -43.39,-3.57 -63.78,4.83 -107.46,-6.81 -54.29,-14.46 1.58,-22.28 -106.08,-28.48 -36.45,-2.11 -81.29,3.14 -118.04,1.78 -55.59,-2.07 -69.95,-17.21 -102.98,-26.88 -71.42,-20.91 -153.35,3.31 -219.94,-12.88 -54.08,-13.15 -7.12,-17.27 -75.39,-28.68 -75.66,-12.66 -168.95,8.77 -245.05,-3.05 -149.33,-23.2 29.37,-33.8 -346.59,-33.08 -38.21,0.07 -79.03,1.72 -116.7,1.17 -100.93,-1.46 -129.49,-35.73 -329.19,-35.47 -226.18,0.29 -1398.98,-25.72 -1462.93,12.42z"/>
    <path class="fil5" d="M12096.65 8060.89c-301.65,460.02 -863.44,731.62 -1211.92,673.55 11.98,14.34 10.01,29.07 22.4,42.16 -345.38,0 -773.11,323.48 -1952,-15.45l41.8 -36.49c-636.04,193.12 -1281.89,-713.5 -1285.16,-715.49 15.8,31.22 16.16,26.81 18.61,75.47 -335.34,-290.89 -786.74,-743.72 -777.95,-1194.72 -374.6,466.35 531.5,2245.93 2282.96,2573.55 2392.82,447.59 4062.35,-1591.7 3684.73,-2576.75 -28.34,-72.15 17.23,-29 -34.84,-67.99 62.23,716.16 -539.47,861.63 -768.72,1302.78 -13.23,-19.31 -18.63,27.8 -19.92,-60.64z"/>
    <path class="fil5" d="M19185.81 5304.84c53.97,468.11 3.31,659.32 -298.45,983.38 -88.46,83.07 -6.43,46.85 -146.32,183.65 -460.01,390.21 -888.86,652.9 -1463.99,785.7l-294.88 39.84c-380.68,18.01 -454.8,-28.21 -755.96,-198.95l3.87 -5213.55 -38.52 -42.14c81.35,225.27 -42.98,5937.47 40.09,6144.13 221.37,550.66 553.4,524.95 1064.88,410.18 515.41,-115.66 1188.25,-488.79 1455.19,-959.11 169.83,-299.22 449.4,-799.94 452.16,-1139.53 2.22,-273.72 40.42,-891.7 -18.08,-993.59z"/>
    <path class="fil5" d="M655 5303.79c-55.63,65.18 -17.23,854.33 -17.8,977.82 -0.59,125.44 15.02,110.91 23.35,137.79 19.9,64.2 5.81,71.62 15.38,119.77l40.49 147.51c36.24,133.79 60.64,145.53 85.34,215.02 7.11,19.99 5.25,19.64 11.21,38.73 38.59,123.56 115.58,253.81 186.12,360.78 1.97,2.98 4.47,7.19 6.37,10.25 1.93,3.1 4.11,7.5 5.99,10.64 1.88,3.15 3.91,7.63 5.79,10.77l40.82 58.1c2.13,2.98 5.13,6.82 7.18,9.88l182.17 246.12c107.27,106.58 157.8,175.5 268.6,242.56 20,12.1 38.63,28.27 54.3,44.02 61.8,62.08 158,132.92 233.49,166.92 120.6,54.33 48.88,46.01 147.32,95.33l22.26 10.16c3.58,1.49 7.91,3.29 11.6,4.68l454.96 158.81c53.1,14.75 -3.06,7.12 76.12,23.45 101.67,20.97 92.42,33.98 162.27,37.12 268.66,12.05 254.9,83.64 528.22,-2.82l71.45 -28.52c109.47,-53.85 94.05,-38.9 175.31,-122.05 59.9,-61.3 103.69,-135.27 131.88,-217.72 1.47,-4.31 2.54,-8.85 3.94,-13.17 5.97,-18.38 4.48,-19.04 11.37,-37.79 54.02,-147.13 27.04,-388.34 27.04,-554.73l5.59 -4805.77c0,-178.43 -31.27,-689.29 20.5,-809.14 -55.92,46.67 -41.66,67.75 -40.48,148.17l1.03 2477.58c0,271.13 20.95,2568.98 -10.02,2629.82 -12.94,25.43 -208.25,138.09 -270.53,157.11 -4.56,1.38 -8.74,2.6 -13.5,3.81l-29.27 5.46c-5.32,1.01 -9.66,1.01 -14.91,2 -109.22,20.38 -11.16,17.58 -116.77,32.9 -36.16,5.25 -296.09,5.3 -332.18,0.04 -109.29,-15.92 -8.08,-1.43 -64.73,-21.12 -47.25,-16.42 -171.42,-8.71 -342.17,-54.42l-61.31 -21.13c-204.68,-47.93 -340.31,-102.24 -530.96,-200.06l-77.38 -38.63c-78.37,-39.61 -41.84,-40.39 -171.73,-104.5 -22.35,-11.03 -11.25,-3.55 -33.49,-17.47 -49.6,-31.03 -61.8,-62.87 -109.61,-88.68 -111.48,-60.19 -68.68,-61.07 -135.45,-113.75 -34.48,-27.2 -11.01,-8.5 -41.6,-24.88 -151.28,-81.01 -247.95,-269.84 -313.41,-329.71l-178.06 -236.94c-17.58,-29 -7.41,-9.98 -34.77,-47.38 -117.93,-161.26 -101.95,-487.75 -77.33,-692.73z"/>
    <path class="fil4" d="M9887.24 5752.86c-20.57,173.19 23.97,179.93 110.59,261.18 116.77,109.54 161.89,63.93 327.94,75.27 113.05,7.71 20.13,27.14 147.05,35.06 89.82,5.6 84.84,-14.72 170.9,18.63l118.31 28.36c52.98,16.05 -12.05,0.53 36.09,13.21 116.05,30.58 27.39,-22.47 145.92,46.02l442.82 178.52c8.84,6.42 5.31,4.48 20.15,13.99 122.99,78.83 231.06,163.15 392.18,106.63l33.48 -15.72c137.29,-71 236.07,-239.68 155,-408.55 -6.76,-14.06 -20.76,-41.32 -22.06,-43.95 -1.86,-3.77 -26.38,-52.8 -28.26,-55.81l-49.38 -47.78c-3.1,-1.91 -7.7,-3.77 -10.88,-5.64l-597.47 -308.28 -408.54 -105.07c-109.25,-12.64 -20.09,-25.14 -132.66,-32.86 -80.77,-5.53 -60.25,8.67 -133.31,-16.9 -62.86,-22 -54.52,-18.91 -130.68,-17.7 -221.35,3.49 -71.76,-38.63 -281.56,-35.99 -133.73,1.7 -235.6,77.16 -290.49,190.79l-18.33 47.49c-7.88,45.37 -3.55,35.51 3.21,79.09z"/>
    <path class="fil4" d="M2493.39 2531.84l-100.55 61.49c-166.8,117.09 -36.14,12.92 -188.97,157.31 -64.13,60.59 -130.53,36.57 -275.24,266.94 -1.99,3.17 -4.45,7.36 -6.57,10.43 -42.89,61.8 -102.54,83.93 -148.57,166.78l-146.12 200.72c-31.54,37.27 -50.22,75.68 -58.14,111.02 -4.74,21.14 -7.74,61 -7.22,82.88 0.21,9.06 2.85,40.6 4.39,49.26 0.99,5.52 1.97,9.29 3.2,14.51 1.16,4.9 2.66,8.75 4,13.38l25.32 74.02c34.19,103.36 161.67,153.36 261.63,176.37 61.61,14.18 221.48,-50.1 256.33,-80.48 45.73,-39.86 12.86,-11.9 34.32,-49.15l71.8 -110.62c17.18,-29.22 6.85,-17.38 33.9,-48.93l126.07 -135.41c70.15,-112.34 193.73,-234.08 304.76,-304.64 36.93,-23.46 52.3,-54.26 90.71,-77.51 88.65,-53.63 36.75,31.81 124.38,-139.47 45.11,-88.18 57.08,-119.45 21.55,-222.39 -1.38,-4.01 -3.27,-8.08 -4.63,-12.09 -19.3,-57.09 -14.77,-109.96 -131.65,-181.46 -74.93,-45.84 -217.97,-68.1 -294.7,-22.96z"/>
    <path class="fil4" d="M18277.07 3748.46c0,-252.74 32.86,-285.37 -95.82,-418.32 -21.47,-22.18 -23.96,-27.22 -35.59,-46.95 -24.49,-41.54 3.66,-12.34 -37.33,-62.17 -23.29,-28.32 -19.92,-16.74 -40.44,-41.08 -44.67,-53 -1.93,2.41 -32.64,-51.26 -34.05,-59.5 -384.03,-409.71 -434.55,-439.3l-86.76 -63.71c-18.34,-17.43 -25.5,-23.62 -46.04,-36.14l-61.15 -37.75c-66.65,-50.25 -21.28,-39.2 -127.59,-41.14 -460.86,-8.42 -390.04,431.83 -241.07,574.93 56.31,54.09 59.03,29.99 110.96,71.02 75.55,59.7 366.73,358.82 413.82,441.5 28.24,49.58 45.56,52.53 80.98,88.02 50.77,50.89 30.53,49.14 65.38,99.28 52.82,76.01 83.78,87.56 155.81,110.04 96.89,30.24 83.09,44.23 174.94,11.85l36.61 -13.23c78.31,-26.02 44.36,0.88 104.93,-62.84 37.24,-39.17 54.63,-61.5 95.55,-82.76z"/>
    <path class="fil3" d="M8996.93 8724.66l-41.8 36.49 281.87 81.04c24.98,4.15 40.06,1.37 63.53,3.71 110.17,10.98 15.35,10.21 102.12,29.27 100,21.96 131.48,-13.37 252.85,26.82 76.94,25.48 186.41,11.88 273.63,11.88 405.76,0 238.22,-34.53 395.57,-34.85 171.63,-0.34 70.47,-15.17 247.8,-34.93 90.72,-10.1 191.09,-67.49 334.63,-67.49 -12.4,-13.09 -10.43,-27.83 -22.4,-42.16 -40.45,-39.61 -77.51,-26.23 -146.35,-25.08 -104.74,1.74 -81.84,1.63 -157.94,-24.79 -23.89,-8.3 -52.92,-16.29 -74.98,-23.88l-49.66 -17.21c-94.7,-29.79 -229.81,-105.89 -300.93,-162.33 -55.63,-44.13 -16.3,-37.24 -98.78,-80.07 -118.18,-61.36 -62.66,-74.04 -143.45,-104.79 -73.36,33.33 -119.61,123.82 -185.45,162.94 -40.27,23.92 -9.23,-1.58 -52.89,29.92l-152.21 90.15c-185.12,91.05 -84.33,55.54 -264.21,102.53 -4.42,1.15 -8.52,2.66 -12.78,3.96 -182.04,55.58 -193.79,-4.63 -248.17,38.87z"/>
    <path class="fil4" d="M12767.94 2779.55c-146.84,85.67 -108.82,-5.92 -189.85,157.72 -248.12,500.99 424.45,736.36 636.44,370.4 185.37,-319.99 -216.9,-662.13 -446.58,-528.12z"/>
    <path class="fil4" d="M1287.24 4117.24c-103.23,75.82 -138.53,102.19 -179.12,225.77 -1.39,4.23 -2.73,8.65 -4.23,12.78 -26.17,72.09 -75.02,102.76 -55.73,239.06 14.02,99.13 81.54,152.26 145.06,216.06 57.42,57.68 39.7,43.87 130.81,44.59 61.09,0.48 118.77,4.7 168.1,-14.27 197.02,-75.78 250.45,-274.71 246.64,-477.46 -1.3,-69.2 -24.69,-138.94 -74.27,-190.33 -92.24,-95.57 -313.02,-103.38 -377.26,-56.2z"/>
    <path class="fil4" d="M6629.96 3258.48c68.84,173.53 284.98,264.39 485.57,209 173.1,-47.8 293.5,-280.51 210.42,-475.52 -75.64,-177.53 -263.86,-265.93 -398.66,-229.98l-262.85 187.52c-36.24,60.34 -66.34,228.68 -34.49,308.98z"/>
    <path class="fil4" d="M12012.57 6677.02c0,177.53 24.51,292.88 219.78,354.68 4.09,1.3 8.22,3.03 12.28,4.35 37.63,12.22 85,37.32 167.75,9.64l112.07 -53.69c54.56,-26.25 8.46,11.55 50.61,-30.28 31.03,-30.78 46.69,-89.41 57.21,-122.31 40.12,-125.39 59.75,-48.12 11.32,-185.7l-34.24 -99.04c-41.23,-92.63 -36.45,-65.02 -78.82,-86.72l-106 -55.25c-50.67,-19.23 -103.43,-17.22 -154.4,-1.84l-49.21 17.44c-74.7,23.06 -57.08,3.82 -106.54,55.45 -42.04,43.88 -101.8,115 -101.8,193.3z"/>
    <path class="fil6" d="M9467.79 6610.96c0,139.9 331.73,237.22 378.78,237.22l198.23 0c108.27,0 -47.92,8.3 99.9,-35.87 4.32,-1.29 8.81,-2.23 13.11,-3.57 4.26,-1.32 8.69,-2.47 12.89,-3.87 93.07,-31.17 194.41,-127.53 224.96,-193.91 -46.81,-123.69 -173.49,-172.13 -287.31,-208.23 -237.99,-75.48 -250.76,-19.98 -360.13,-1.4 -100.4,17.05 -280.44,84.8 -280.44,209.63z"/>
   </g>
   <ellipse class="fil1" cx="3835.02" cy="12438.16" rx="2346.87" ry="3046.42"/>
   <ellipse class="fil5" cx="3835.02" cy="12438.16" rx="1774.11" ry="2623.58"/>
   <path class="fil3" d="M3835.02 9814.58c309.32,0 600.1,117.16 853.29,322.97 33.47,185.23 51.19,376.39 51.19,571.99 0,1529.03 -1070.83,2792.38 -2459.79,2991.54 -139.41,-374.67 -218.8,-805.06 -218.8,-1262.92 0,-1448.96 794.29,-2623.58 1774.11,-2623.58z"/>
   <path class="fil1" d="M3148.11 13663.92l0.01 0c87.06,0 158.27,61.26 158.27,136.14l0 1143.22c-110.55,-50.95 -216.46,-117.48 -316.56,-197.83l0 -945.39c0,-74.88 71.22,-136.14 158.27,-136.14z"/>
   <path class="fil1" d="M4581.21 13592.46l0.01 0c87.06,0 158.27,61.26 158.27,136.14l0 966.82c-99.65,87.5 -205.59,160.95 -316.56,218.61l0 -1185.43c0,-74.88 71.22,-136.14 158.27,-136.14z"/>
   <ellipse class="fil7" cx="2588.23" cy="11984.08" rx="313.52" ry="269.69"/>
   <path class="fil7" d="M3103.94 11406.69c298.32,-708.52 711.27,-746.67 499.52,-1034.34 -432.58,-587.69 -1134.16,770.81 -1131.23,917.43 7.06,355.14 551.6,352.12 631.71,116.91z"/>
   <ellipse class="fil1" cx="16044.51" cy="12438.16" rx="2346.87" ry="3046.42"/>
   <ellipse class="fil5" cx="16044.51" cy="12438.16" rx="1774.11" ry="2623.58"/>
   <path class="fil3" d="M16044.51 9814.58c309.32,0 600.1,117.16 853.29,322.97 33.47,185.23 51.19,376.39 51.19,571.99 0,1529.03 -1070.83,2792.38 -2459.79,2991.54 -139.41,-374.67 -218.8,-805.06 -218.8,-1262.92 0,-1448.96 794.29,-2623.58 1774.11,-2623.58z"/>
   <path class="fil1" d="M15357.61 13663.92l0.01 0c87.06,0 158.27,61.26 158.27,136.14l0 1143.22c-110.55,-50.95 -216.46,-117.48 -316.56,-197.83l0 -945.39c0,-74.88 71.22,-136.14 158.27,-136.14z"/>
   <path class="fil1" d="M16790.71 13592.46l0.01 0c87.06,0 158.27,61.26 158.27,136.14l0 966.82c-99.65,87.5 -205.59,160.95 -316.56,218.61l0 -1185.43c0,-74.88 71.22,-136.14 158.27,-136.14z"/>
   <ellipse class="fil7" cx="14797.72" cy="11984.08" rx="313.52" ry="269.69"/>
   <path class="fil7" d="M15313.43 11406.69c298.32,-708.52 711.27,-746.67 499.52,-1034.34 -432.58,-587.69 -1134.16,770.81 -1131.23,917.43 7.06,355.14 551.6,352.12 631.71,116.91z"/>
  </g>
 </g>
</svg>
