<?xml version="1.0" encoding="UTF-8"?>
<!DOCTYPE svg PUBLIC "-//W3C//DTD SVG 1.1//EN" "http://www.w3.org/Graphics/SVG/1.1/DTD/svg11.dtd">
<!-- Creator: CorelDRAW -->
<svg xmlns="http://www.w3.org/2000/svg" xml:space="preserve" width="175.99mm" height="170.467mm" version="1.1" style="shape-rendering:geometricPrecision; text-rendering:geometricPrecision; image-rendering:optimizeQuality; fill-rule:evenodd; clip-rule:evenodd"
viewBox="0 0 5023.02 4865.37"
 xmlns:xlink="http://www.w3.org/1999/xlink"
 xmlns:xodm="http://www.corel.com/coreldraw/odm/2003">
 <defs>
  <style type="text/css">
   <![CDATA[
    .fil4 {fill:#FEFEFE}
    .fil8 {fill:#FEFEFE}
    .fil3 {fill:#F9CA41}
    .fil5 {fill:#E88AB9}
    .fil0 {fill:#E9E6E6}
    .fil6 {fill:#CC6192}
    .fil7 {fill:#C7853B}
    .fil2 {fill:#BE9796}
    .fil1 {fill:#5B302E}
   ]]>
  </style>
 </defs>
 <g id="Camada_x0020_1">
  <metadata id="CorelCorpID_0Corel-Layer"/>
  <g id="_2502382942656">
   <g>
    <path class="fil0" d="M2515.43 2884.65c-22.32,9.97 -36.89,35.85 -53.99,50.63l-26.78 17.1c-24.92,18.12 -49.9,28.49 -78.39,37.92l-42.26 11.06c-24.31,8.12 -105.86,6.97 -132.32,4.09 -27.07,-2.95 -74.97,-18.52 -100.4,-31.08l-16.17 -7.95c-28.72,-15.21 -52.54,-36.66 -75.06,-60.46 -13.58,-14.35 -38.68,-32.17 -50.11,-55.27 -12.18,-24.64 -25.81,-44.68 -34.93,-71.95l-18.27 -64.45c-16.73,-49.4 -6.8,-114.81 41.28,-137.18 0.99,-0.46 2.22,-1.12 3.24,-1.54 37.18,-15.43 84.89,5.76 102.54,34.34 13.52,21.91 6.74,45.43 11.22,70.34 9.18,51.09 44.63,111.09 98.21,136.79 29.4,14.11 43.89,26.17 77.1,25.98 23.12,-0.13 58.16,2.26 75.99,-5.7l12.73 -6.45c30.85,-15.75 40.01,-17.11 66.62,-43.58l44.27 -63.32 15.61 -67.56c-2.92,-26.77 -31.7,-23.22 -86.89,-41.25 -1.22,-0.4 -2.48,-0.78 -3.71,-1.17 -34.93,-10.95 -71.83,-35.61 -101.96,-58.32 -4.99,-3.76 -21.45,-20.65 -25.26,-26.28l-21.09 -32.02c-2.3,-3.63 -2.52,-4.36 -5.04,-9.32l-21.3 -42.23c-18.01,-36.45 -5.67,-136.48 5.32,-169.15 5.71,-16.96 15.51,-27.34 24.95,-42.15 25.8,-40.47 64.28,-71.96 105.96,-92.52l57.51 -25.17c11.29,-3.78 9.88,-4.45 15.57,-6.27l28 -5.46c1.33,-0.37 2.51,-0.87 3.78,-1.27 1.21,-0.38 2.35,-1.01 3.53,-1.4 38.96,-13.04 206.49,-7.49 245.99,11.47 24.48,11.75 50.27,17.35 72.49,34.23 13.39,10.18 4.1,3.26 17.83,11.29l45.18 32.42c12.62,8.53 11.03,17.85 21.71,30.66 19.93,23.91 33.56,47.31 43.92,78.11 4.56,13.55 0.65,0.1 4.02,10.46 11.86,36.46 5.82,97.92 -5.64,133.28 -14.85,45.83 -71.31,118.15 -112.61,138.89l-94.1 42.63c-12.61,4.28 -0.03,2.3 -18.48,5.8 -23.04,4.38 -53.87,6.96 -34.82,65.47 0.11,0.35 4.33,9.32 4.66,9.96 19.81,39.51 36.72,74.85 73.76,100.22 0.92,0.63 2.16,1.32 3.11,1.91 0.95,0.59 2.24,1.2 3.2,1.76 47.86,28.28 76.66,40.06 139.2,31.6l54.88 -19.88c27.93,-14.99 55.61,-34.7 70.17,-60.5 16.87,-29.87 29.85,-67.06 37.88,-98.17 6.75,-26.14 -2.71,-52.88 20.96,-71.92l21.09 -16.28c33,-20.25 99.89,2.66 110.98,33.99 18.11,51.12 9.47,49.5 2.33,85.3 -9.12,45.75 4.37,15.08 -17.89,83.58l-15.62 40.3c-1.15,2.4 -9.15,18.82 -9.7,19.73l-32.14 45.56c-26.33,29.18 -50.27,48.38 -87.73,71.18l-71.27 35.9c-1.16,0.44 -2.38,0.93 -3.61,1.31l-20.98 3.5c-20.9,4.02 -6.11,1.92 -18.16,5.77 -27.51,8.77 -131.08,7.4 -154.17,0.08 -38.42,-12.16 -78.86,-24.59 -111.71,-48.74 -16.58,-12.18 -15.51,-6.18 -31.55,-21.82 -11.61,-11.31 -38.48,-42.48 -52.68,-46.79zm816.55 -1436.7c48.44,-28.16 189.88,16.76 238.18,48.14 10.67,6.93 11.68,12.13 19.39,18.49 21.33,17.6 25.22,3.71 45.96,39.99 12.88,22.52 15.36,14.71 27.87,35.72l5.12 9.6c0.57,0.92 1.3,2.13 1.9,3.03 20.06,30.02 42.1,90.07 45.35,120.15 3.18,29.39 3.88,109.54 -6.78,139.63l-29.66 77.42c-10.79,21.98 -4.74,9.5 -16.9,26.3l-7.46 12.26c-6.46,11.1 3.11,-1.32 -7.42,11.93 -9.57,12.03 -29.72,30.04 -41.03,41.5 -15.31,15.51 -9.1,8.59 -25.34,18.21 -9.13,5.41 -14.06,10.79 -22.83,16.16 -28.66,17.54 -31.54,16.27 -59.46,25.85 -19.82,6.8 -38.89,16.15 -60.08,16.93 -76.56,2.82 -93.96,3.31 -157.99,-11.76l-83.35 -40.65c-7.51,-4.29 -1.51,0.49 -11.56,-8.02 -29.62,-25.08 -59.56,-57.84 -80.58,-89.2 -16.85,-25.15 -26.02,-36.33 -35.52,-66.37 -1.74,-5.49 -2.26,-7.33 -3.51,-10.96l-6.25 -23.52c-2.5,-22.77 1.03,-13.11 -5.56,-32.44 -4.24,-12.44 0.9,11.99 -3.74,-11.34 -9.47,-47.61 7.75,-99.89 8.59,-106.69 2.53,-20.57 -3.03,-15.14 5.22,-34.41 4.32,-10.09 10.51,-17.56 14.15,-29.29 22.07,-71.15 92.68,-136.41 159.02,-169.77 62.83,-31.6 73.83,-14.99 94.27,-26.87zm917.05 374.76l-23.2 -11.3c-0.97,-0.51 -2.28,-1.06 -3.22,-1.59 -0.93,-0.53 -2.22,-1.12 -3.11,-1.69 -12.99,-8.32 -14.5,-16.64 -23.66,-34.77 -0.5,-0.98 -1.22,-2.15 -1.71,-3.16l-6.16 -18.06c-5.26,-36.19 2.88,-42.54 -9.16,-77.94 -2.29,-6.75 -4.52,-13.66 -6.12,-18.26 -28.57,-81.92 -42.22,-69.98 -66.15,-111.61l-18.08 -25.94c-0.78,-1.23 -2.87,-4.91 -3.57,-6.22l-3.28 -6.48c-10.09,-23.43 -5.14,-54.51 4.71,-72.38 15.58,-28.27 24.63,-17.93 50.74,-33.68 25.03,-15.09 61.12,1.34 73.7,10.18 0.42,0.3 18.91,18.33 21.59,21.87 9.77,12.93 1.41,2.76 8.86,15.26 13.53,22.7 10.92,7.36 29.64,38.73 0.55,0.93 1.2,2.2 1.76,3.11 28.59,45.87 57.58,90.04 67.23,143.43l3.21 16.86c9.74,33.01 14.26,121.18 0.74,139.43 -13.25,17.9 -34.06,31.62 -51.21,36.54 -15.55,4.46 -29.38,3.31 -43.56,-2.31zm-1521.79 -841.23c24.3,-2.45 93.06,-5.56 114.56,0.4 13.41,3.72 0.11,3.93 21.69,7.35 7.3,1.16 20.96,0.71 28.8,0.64 17.79,-0.17 35.57,-0.05 53.36,-0.22 49.66,-0.47 44.86,10.41 101.67,10.09 38.68,-0.22 22.73,5.49 48.19,9.67 14.89,2.45 37.68,-0.33 53.39,0.27 37.56,1.44 9.3,8.72 42.92,10.9l105.04 12.24c19.35,5.58 -5.07,3.15 21.46,6.86l202.66 40.73c1.51,0.29 2.79,0.29 4.31,0.57 20.3,3.74 9.82,2.27 22.82,6.09l68.28 19.39c14.51,4.59 10.04,2.07 24.22,4.81 32.71,6.32 65.52,22.69 96.32,32.04l7.45 2.43c7.37,2.4 12.43,3.87 22.08,6.94 1.22,0.39 2.49,0.8 3.7,1.2 1.19,0.39 2.43,0.88 3.6,1.28l130.71 54.06c24.23,7.72 40.63,13.94 53.79,33.94l6.47 12.72c0.49,0.97 1.13,2.21 1.62,3.19 20.41,40.2 6.24,92.33 -39.63,110.61 -19.69,7.85 -58.15,6.23 -75.42,-2.01 -31.31,-14.95 -62.62,-32.64 -95.68,-42.67l-81.73 -30.47c-4.46,-1.46 -6.62,-1.89 -11.12,-3.37l-118.95 -36.53c-26.89,-6.18 -35,-4 -67.14,-14.88l-85.22 -19.11c-1.32,-0.37 -2.51,-0.85 -3.78,-1.25l-49.31 -8.86c-1.28,-0.35 -2.42,-0.92 -3.64,-1.31 -31.29,-10.09 -103.32,-15.32 -116.65,-19.04l-50.48 -7.48c-36.72,-0.68 -15.84,-6.55 -43.32,-10.17 -18.49,-2.44 -38.4,2.61 -56.07,-2.11 -14.73,-3.94 -0.5,-3.93 -21.52,-7.42 -7.17,-1.19 -20.93,-0.75 -28.62,-0.62 -42.89,0.76 -58.33,-10.42 -101.53,-10.13 -86.89,0.59 -66.62,-8.12 -101.09,-10.01 -34.28,-1.88 -77.66,3.65 -110.85,-0.3 -71.09,-8.46 -149.37,-6.3 -223.02,-6.3 -16.42,0 -208.52,-8.07 -217.45,9.14l422.54 -2.57c-7.19,14.86 -6.21,29.38 -11.74,46.01 -3.2,9.61 -11.94,23.57 -16.49,37.38l-27.1 67.35c-0.42,1.06 -0.89,2.34 -1.27,3.45l-156.22 293.6c-3.63,5.94 -6.23,8.35 -11.14,13.29 -18.49,18.66 -10.59,16.35 -21.61,31.28l-24.24 30c-12.58,22.73 -34.02,32.77 -47.15,53.27 -33.03,51.57 -84.33,92.13 -128.22,137.21 -17.62,18.1 -38.14,26.81 -56.01,45.36 -26.67,27.67 -73.41,53.1 -90.44,70.31l-239.31 141.17c-1.01,0.5 -2.25,1.12 -3.25,1.62l-13.03 6.49c-1.01,0.51 -2.25,1.13 -3.25,1.63l-174.56 68.25c-11.64,3.87 -6.68,2.57 -17.86,6.26 -4.58,1.51 -7.5,2.1 -11.36,3.43l-179.71 40.81c-39.82,7.48 -10.46,6.66 -68.49,8.69 -32.47,1.13 -19.33,10.4 -91.49,10.3 -17.73,-0.03 -35.82,-0.44 -53.47,-0.31 -37.21,0.27 -22.04,5.1 -44.04,9.58 -25.1,5.11 -44.29,-4.77 -58.17,-7.95l-37.59 -1.4c-137.96,1.23 -80.01,-10.44 -150.1,-9.77l-154.43 -30.1c-15.07,-2.93 -6.14,-0.03 -18.28,-4.63l-158.02 -49.25c-13.92,-5.01 -23.85,-10.57 -32.99,-16.37l-0.8 88.54c17.09,0 30.96,-4.7 40.67,7l97.31 23.76c6.01,1.06 5.72,0.32 12.7,2.02l14.47 5.07c1.15,0.4 2.39,0.89 3.54,1.28l110.87 30.3c20.31,5.06 31.91,4.87 47.74,14.99 46.85,29.94 50.72,110.84 -9.34,141.6l-6.48 3.2c-10.18,4.23 2.37,1.87 -14.77,4.28 -39.92,5.61 -127.67,-24.19 -175.28,-37.17 -12.06,-3.29 -17.28,-2.14 -27.95,-5.62 -15.4,-5.02 4.58,-1.89 -19.49,-6.63l-73.64 -18.99 -1.21 135.51c63.7,13.71 136.3,-20.14 175.39,32.43 17.97,24.17 21.55,50.99 8.16,77.86 -19.6,39.34 -11.26,36.21 -51.3,53.03 11.76,31.15 16.64,24.13 33.13,33.82 33.59,19.74 13.17,28.39 47.88,26.24 40.29,2.15 109.03,-40.35 141.82,38.01l11.88 9.82c-2.15,32.04 -2.99,46.64 23.29,58.7l459.18 155.33c13.01,2.92 11.52,1.11 23.82,5.11l48.63 9.35c17.94,6.33 -8.4,3.15 19.34,6.63l75.79 12.67c1.36,0.35 2.5,0.87 3.78,1.27l117.78 22.78c21.88,7.63 31.34,1.14 53.34,4.3 23.38,3.35 14.12,9.82 48.31,9.7 19.88,-0.07 32.9,5.57 49.43,9.02 16.95,3.54 39.45,-1.39 56.39,1.77 18.24,3.39 27.87,9.63 48.72,9.49 71.9,-0.46 56.81,10.4 106.43,9.94 19.26,-0.18 39.27,-0.66 58.45,-0.45 39.98,0.43 18.4,6.84 47.84,10.35 55.21,6.58 119.55,-4.6 174.23,-0.04 31,2.59 8.67,9.44 47.84,10.53 20.32,0.56 42.61,-0.33 63.21,-0.33l225.84 -6.97c28.04,-9.16 79.88,-3.1 112.45,-3.1 32.3,0 65.68,4.53 96.18,-6.18 3.83,-1.34 3.72,-2.13 10.83,-3.37 36.28,-6.33 78.79,7.16 112.89,-3.33 18.06,-5.55 -5.51,-3.58 21.87,-7.11 23.24,-2.99 48.68,3.41 71.7,-0.94 30.31,-5.74 10.11,-8.69 63.79,-8.99 26.34,-0.15 20.19,-6.96 47.85,-10.15 25.26,-2.91 26.69,3.86 52.69,-5.3 16.45,-5.8 40,-2.35 57.56,-5.76 18.37,-3.57 26.45,-8.33 49.49,-9.24 29.11,-1.15 20.24,-7.74 48.25,-10.03l92.16 -19.92c12.99,-1.67 13.06,0.7 26.89,-3.02 16.57,-4.45 -2.02,-2.05 21.99,-6.84l65.82 -12.19c1.4,-0.3 2.56,-0.72 3.89,-1.09l124.78 -35.33c1.19,-0.41 2.47,-0.8 3.66,-1.2 4.5,-1.51 6.65,-1.99 11.07,-3.5 8.28,-2.84 10.84,-4.6 22.42,-6.87l132.18 -45.05c1,-0.47 2.26,-1.06 3.29,-1.5l36.44 -12.22c4.94,-1.58 6.14,-1.59 11.3,-3.1 1.28,-0.38 2.61,-0.63 3.88,-1.03 1.25,-0.39 2.56,-0.72 3.78,-1.14l23.01 -11.07c5.97,-3.11 16.76,-8.84 19.19,-9.96 11.11,-5.09 10.56,-6.16 29.02,-6.38l-4.71 -14.98c-5.27,-33.33 -3.55,-69.16 20.66,-93.78l19.85 -14.15c16.59,-8.88 20.16,-9.6 39.83,-9.43l75.64 17.53c21.77,7.59 11.76,-0.58 23.52,8.05 23.1,-2.61 21.93,-2.03 36.92,-13.75l49.78 -37.18c18.65,-11.05 14.59,0.86 23.23,-24.23 -26.16,2.21 -50.2,2.4 -68.87,-8.02 -41.21,-23 -42.31,-46.54 -41.01,-86.43l4.48 -25.66c0.43,-1.13 1.05,-2.31 1.52,-3.38 0.46,-1.05 1.11,-2.24 1.6,-3.25 32.57,-66.81 161.59,-19.52 233.86,-37.03l0.41 -145.01c-18.55,-3.31 -28.29,-0.94 -44.12,4.72 -32.43,11.6 -66.63,15.46 -100.03,26.4l-161.38 44.69c-20.29,6.07 -52.62,5.39 -71.77,-4.04l-27.2 -20.22c-40.64,-49.83 -11.39,-125.33 49.36,-135.24l27.51 -6.75c12.38,-3.83 19.18,-3.23 31.81,-7.03l192.39 -50.39c1.17,-0.35 2.36,-0.89 3.51,-1.27 1.16,-0.38 2.35,-0.94 3.5,-1.34l95.66 -26.27c10.21,-142.92 0.88,-389.64 0.89,-550.95 0.01,-62.67 -5.43,-67.93 -10.2,-120.91 -1.49,-16.51 -5.16,-20.41 -11.03,-38.34l-63.31 -121.95 -32.77 -34.26c-0.5,-0.83 -1.11,-2.13 -1.59,-2.99l-3 -6.38c-0.52,-0.92 -1.06,-2.29 -1.62,-3.18 -0.55,-0.88 -1.21,-2.19 -1.83,-3.01l-50.95 -41.56c-25.15,-25.43 -50.53,-37.14 -77.78,-58.24 -35.5,-27.49 -77.06,-46.83 -116.87,-66.57 -5.23,-2.59 -10.95,-5.36 -16.04,-7.89 -0.98,-0.48 -2.22,-1.11 -3.2,-1.6l-153.39 -68.02c-1.23,-0.38 -2.51,-0.76 -3.73,-1.16l-65.12 -22c-1.16,-0.4 -2.38,-0.91 -3.54,-1.31l-120.5 -40.5c-15.12,-4.86 -21.72,-3.58 -35.5,-7.86 -1.51,-0.47 -5.47,-2.25 -7.01,-2.73l-70.67 -16.67c-1.14,-0.34 -2.3,-0.9 -3.44,-1.26l-63.29 -15.75c-33.25,-3.26 -64.79,-17.65 -96.66,-20.19 -14.6,-1.17 5.03,1.52 -9.38,-0.62 -21.99,-3.26 -20.22,-8.25 -48.6,-9.41 -36.42,-1.48 -15.49,-5.47 -39.32,-9.47 -15.3,-2.57 -24.72,1.4 -40.65,-3.07 -21.08,-5.92 -8.55,-6.45 -40.87,-7.71 -38.38,-1.5 -1.55,-6.78 -82.37,-9.89 -31.65,-1.22 -14.45,-4.24 -34.65,-8.97 -15.22,-3.56 -31.81,-0.46 -47.47,-1.16 -33.45,-1.51 -23.13,-11.09 -82.04,-10.29 -17.64,0.24 -24.55,1.33 -38.99,-3.67 -33.49,-11.6 -113.95,2.51 -125.05,-15.25l-159.2 1.69c0,24.42 2.3,26.04 -5.25,47.33 -7.17,20.23 -4.47,26.89 -5.65,50.89z"/>
    <path class="fil1" d="M4367.65 2701.89l131.66 1.49 -0.49 138.02c-66.62,-40.48 -340.77,-116.86 -399.94,-66.34 -177.15,151.22 374.31,202.52 379.81,238.96 27.7,183.5 -465.79,419.59 -612.28,461.06 -730.28,206.73 -1682.03,269.03 -2412.89,65.23 -304.13,-84.81 -682.32,-178.72 -840.79,-487.78 -7.72,-14.78 -19.25,-46.69 -17.64,-64.79 82.46,-17.28 404.23,-50.21 343.99,-187.99 -32.79,-78.36 -101.53,-35.86 -141.82,-38.01 -16.93,30.86 -176.91,51.41 -212.85,60.78l0.67 -118.91c66.92,-0.99 265.9,-9.64 174.31,-132.83 -39.09,-52.57 -111.69,-18.73 -175.39,-32.43l1.21 -135.51c81.35,20.98 247.74,96.07 317.61,60.92 95.94,-48.26 28.58,-139.09 -38.4,-156.59 -92.68,-24.21 -184.97,-57.43 -279.38,-69.37 -15.89,-97.95 -41.11,-662.57 50.88,-808.37 386.11,-611.99 2046.73,-606.41 2753.53,-487.83 386.46,64.83 1110.38,213.56 1110.33,723.83 -0.01,161.3 9.32,408.03 -0.89,550.95 -69.8,19.17 -602.63,110.37 -376.53,248.51 100.68,61.51 268.01,-91.24 377.3,-71.77l-0.41 145.01c-87.12,21.11 -230.05,-41.35 -241.46,69.32 -7.12,69 41.86,100.2 109.88,94.44zm-635.69 -2012.52c259.68,-659.28 202.73,-708.07 589.68,44.8 60.95,118.58 128.09,300.98 128.09,435.8 -48.17,-1.66 -156.59,-110.83 -215.67,-136.55 -174.7,-76.05 -363.97,-176.17 -557.57,-195.62 -3.94,-38.75 30,-118.22 55.47,-148.43zm-2480.18 178.57c-46.55,54.15 -456.95,144.37 -581.72,281.62 -17.54,19.3 -11.55,19.83 -36.28,20.91 0,-204.39 303.2,-873.37 461.15,-988.42 75.37,-54.9 232.38,477.47 265.48,527.67 14.35,21.77 43.63,89.09 46.19,114.8 -23.39,19.85 -118.01,42.71 -154.83,43.42zm3411.56 1472.5c22.46,-0.12 351.41,-24.45 351.41,-172.38 0,-136.83 -284.31,7.08 -351.56,-1.8 -45.19,-572.22 75.91,-1046.17 -279.31,-1692.99 -90.83,-165.39 -263.99,-566.82 -516.34,-441.58 -122.93,61.01 -289.11,610.83 -364.09,766.31 -830.07,-72.75 -1106.2,-106.16 -1923.5,-3.78 -169.45,-347.68 -335.71,-1270.51 -781.24,-487.76 -129.8,228.04 -343.09,705.43 -346.92,948.43 -1.13,71.55 -6.67,222.64 -26.7,282.83 -18.81,56.51 14.15,571.85 -6.16,650.42 -111.68,9.27 -232.88,-80.29 -348.86,-80.29 -10.61,0 -192.14,86.25 75.04,178.86 218.13,75.61 295.19,-16.7 274.63,254.13 -58.79,0 -290.22,-40.91 -290.22,62.17 0,146.89 190.2,100 290.99,100 5.91,249.04 -37.29,164.06 -357.7,254.28 -77,21.68 -119.92,196.29 128.06,138.64 64.64,-15.02 173.99,-71.26 240.82,-57.88 175.01,450.76 659.36,593.79 1098.59,690.94 893.45,197.62 2053.7,135.14 2857.61,-330.21 134.53,-77.87 199.68,-216.17 256.9,-352.71 92.28,-3.44 369.97,156.68 369.97,16.07 0,-146.65 -236.44,-149.73 -349.92,-178.99 -8.15,-38.05 -3.02,-135.35 -1.41,-180.14 64.74,0 296.15,17.83 229.47,-113.98 -38.63,-76.37 -150.2,-48.19 -229,-48.17l-0.55 -200.42z"/>
    <path class="fil2" d="M4078.22 2868.83l4.71 14.98c-18.46,0.22 -17.91,1.29 -29.02,6.38 -2.43,1.11 -13.21,6.84 -19.19,9.96l-23.01 11.07c-1.22,0.42 -2.53,0.75 -3.78,1.14 -1.27,0.4 -2.6,0.65 -3.88,1.03 -5.15,1.51 -6.36,1.52 -11.3,3.1l-36.44 12.22c-1.04,0.44 -2.29,1.03 -3.29,1.5l-132.18 45.05c-11.58,2.27 -14.13,4.02 -22.42,6.87 -4.42,1.52 -6.58,2 -11.07,3.5 -1.19,0.4 -2.47,0.8 -3.66,1.2l-124.78 35.33c-1.33,0.36 -2.49,0.79 -3.89,1.09l-65.82 12.19c-24.01,4.79 -5.42,2.39 -21.99,6.84 -13.83,3.71 -13.9,1.34 -26.89,3.02l-92.16 19.92c-28.02,2.29 -19.14,8.88 -48.25,10.03 -23.04,0.91 -31.11,5.67 -49.49,9.24 -17.56,3.41 -41.1,-0.04 -57.56,5.76 -26,9.16 -27.43,2.39 -52.69,5.3 -27.66,3.19 -21.51,10 -47.85,10.15 -53.68,0.31 -33.48,3.26 -63.79,8.99 -23.02,4.36 -48.46,-2.05 -71.7,0.94 -27.38,3.53 -3.81,1.55 -21.87,7.11 -34.1,10.49 -76.61,-3.01 -112.89,3.33 -7.12,1.24 -7,2.03 -10.83,3.37 -30.5,10.71 -63.88,6.18 -96.18,6.18 -32.57,0 -84.41,-6.06 -112.45,3.1l-225.84 6.97c-20.6,0 -42.88,0.89 -63.21,0.33 -39.18,-1.08 -16.84,-7.94 -47.84,-10.53 -54.68,-4.56 -119.02,6.61 -174.23,0.04 -29.45,-3.51 -7.86,-9.92 -47.84,-10.35 -19.18,-0.21 -39.19,0.27 -58.45,0.45 -49.62,0.47 -34.53,-10.39 -106.43,-9.94 -20.85,0.13 -30.48,-6.1 -48.72,-9.49 -16.94,-3.15 -39.44,1.77 -56.39,-1.77 -16.53,-3.45 -29.56,-9.09 -49.43,-9.02 -34.2,0.12 -24.94,-6.34 -48.31,-9.7 -22,-3.16 -31.46,3.33 -53.34,-4.3l-117.78 -22.78c-1.28,-0.4 -2.43,-0.92 -3.78,-1.27l-75.79 -12.67c-27.74,-3.48 -1.4,-0.3 -19.34,-6.63l-48.63 -9.35c-12.3,-4 -10.81,-2.19 -23.82,-5.11l-459.18 -155.33c-26.28,-12.06 -25.44,-26.66 -23.29,-58.7l-11.88 -9.82c16.47,36.1 -0.94,105.02 -43.91,114.44l-56.39 11.71c-1.48,0.3 -2.73,0.51 -4.16,0.85 -31.12,7.55 -68.22,22.58 -102.19,28.8l-107.85 28.47c-10.59,2.59 -17.62,1.22 -29.49,3.71 -1.61,18.1 9.92,50.01 17.64,64.79l22.02 43.77c0.54,0.99 1.18,2.24 1.76,3.19l46.06 60.9c30.13,51.22 72.31,70.33 90.63,87.74 7.66,7.28 13.34,15.92 21.75,21.96l276.72 149.51c1.43,0.53 5.38,2.16 6.72,2.76 0.99,0.44 2.25,1.08 3.21,1.55 52.65,25.17 124.42,47.21 168.7,62.12l203.21 54.29c1.16,0.34 2.32,0.89 3.47,1.26l11 3.85c18.02,4.48 15.09,0.96 33.94,7.9l109.83 24.33c43.57,2.92 92.94,18.93 111.08,20.09 31.32,2 50.47,9.2 82.41,9.83 16.67,0.33 24.97,5.75 35.24,8.5 13.18,3.53 28.16,1.54 42.15,1.62 29.43,0.17 23.16,4.93 39.52,8.9 27.52,6.68 50.98,-4.15 80.63,6.47l38.86 5.41c81.95,-0.51 37.62,-3.89 92.53,8.58 37.93,8.61 106.36,-10.04 152.82,6.58l7.13 2.78c22.28,6.08 483.22,3.33 495.39,0.13 19.09,-5.03 3.7,-7.58 34.87,-8.46l129.18 -2.26c1.22,-0.36 2.37,-0.97 3.54,-1.37 17.25,-5.91 9.65,-6.46 36.46,-6.45 100.77,0.04 63.77,-10.88 125.92,-9.92l56.18 -7.07c19.28,-6.2 42,0.02 61.51,-6.39 20.18,-6.64 36.58,-3.6 60.64,-7.32 26.37,-4.08 22.87,-8.42 58.75,-9.36l509.83 -122.85c1.19,-0.39 2.44,-0.82 3.62,-1.22l59.3 -23.24c23.5,-9 46.55,-13.21 66.84,-23.47l106.76 -48.7c1.34,-0.67 5.17,-2.6 6.5,-3.27l199.16 -124.38c10.22,-10.25 13.86,-16.53 25.41,-23.28 49.21,-28.73 40.09,-38.39 63.36,-66.4 6.94,-8.35 17.58,-15.17 24.41,-24.07 9.7,-12.64 6.04,-12.19 17.18,-26.63 14.92,-19.33 43.5,-71.49 39.74,-96.39 -3.17,-21.01 -25.41,-16.42 -42.82,-20.9 -55.01,-14.17 -125.43,-28.54 -177.3,-46.23 -1.2,-0.41 -2.5,-0.77 -3.71,-1.18 -1.21,-0.41 -2.52,-0.74 -3.74,-1.15l-91.94 -24.13c-13.17,-4.11 7.73,0.68 -11.16,-3.61 -8.94,-2.03 -13.51,-1.02 -21.19,-3.17 -20.77,-5.8 -29.8,-30.92 -48.62,-44.8z"/>
    <path class="fil3" d="M1287.67 1737.92c0,-22.73 5.84,2.65 9.72,-29.32 2.41,-19.86 -2.81,-14.39 5.18,-33.52l20.98 -52.29c16.95,-40.13 54.97,-72.93 81.91,-101l117.94 -65.1c16.17,-4.91 18.59,-1.56 34.35,-4.38 25.42,-4.54 3.48,-9.04 24.89,-9.04 102.76,0 56.17,-5 128.85,11.61l18.02 6.17c48.17,16.19 63.06,24.24 99.09,54.31 18.24,15.22 20.42,4.5 36.82,26.62 13.21,17.82 0.03,9.14 24.25,34.14 23.66,24.42 36.6,66.13 42.61,76.9 14.18,25.43 6.63,23.35 14.66,48.3 10.82,33.61 5.89,76.92 6.24,114.08 0.68,70.69 -60.03,184.95 -113.18,218.62 -39.27,24.87 -52.42,42.23 -93.37,54.88l-36.87 12.12c-46.05,16.18 -72.9,7.48 -122.41,7.86 -52.79,0.41 -92.57,-23.57 -136.45,-44.7 -17.28,-8.32 -21.48,-9.77 -35.21,-23.74 -68.67,-69.84 -80.79,-69.12 -112.96,-162.55 -5.48,-15.89 -3.23,-4.82 -4.84,-24.05 -4.36,-51.81 -10.19,-10.77 -10.19,-48.25l0 -67.66zm-662.14 506.81c-9.71,-11.69 -23.59,-7 -40.67,-7l0.8 -88.54c9.14,5.79 19.07,11.35 32.99,16.37l158.02 49.25c12.14,4.6 3.22,1.71 18.28,4.63l154.43 30.1c70.09,-0.67 12.14,11 150.1,9.77l37.59 1.4c13.87,3.18 33.07,13.05 58.17,7.95 22,-4.48 6.83,-9.31 44.04,-9.58 17.65,-0.13 35.74,0.28 53.47,0.31 72.16,0.1 59.02,-9.17 91.49,-10.3 58.03,-2.03 28.67,-1.21 68.49,-8.69l191.07 -44.23 195.67 -76.14 255.59 -149.28c17.03,-17.21 63.77,-42.64 90.44,-70.31 17.87,-18.54 38.39,-27.26 56.01,-45.36 43.89,-45.08 95.19,-85.64 128.22,-137.21 13.13,-20.5 34.57,-30.54 47.15,-53.27l24.24 -30c11.02,-14.92 3.12,-12.62 21.61,-31.28 4.91,-4.95 7.51,-7.36 11.14,-13.29l157.49 -297.05 27.1 -67.35c4.56,-13.81 13.29,-27.77 16.49,-37.38 5.53,-16.63 4.55,-31.14 11.74,-46.01l-422.54 2.57 -9.69 7.01c-23.82,0 -101.19,4.54 -117.28,-2.9 -1.96,-0.91 -28.24,-26.16 -32.07,-30.32 -18.42,-20.05 -20.14,-74.07 2.41,-97.55 33.11,-34.46 48.54,-31.11 88.91,-30.7 100.25,1 25.15,-10.65 111.15,-10.12 96.08,0.6 365.97,-4.9 419.65,1.26 1.18,-23.99 -1.52,-30.65 5.65,-50.89 7.55,-21.29 5.25,-22.91 5.25,-47.33l159.2 -1.69c-52.44,-11.44 -174.86,9.08 -221.47,-3.81 -24.95,-8.52 -8.63,-8.1 -49.13,-7.91l-174.22 0.05c-66.93,-0.55 -20.62,10.41 -106.24,10.06l-144.9 0.01c-35.2,4.15 10.12,10.46 -72.56,10.14 -15.21,-0.06 -44.62,-1.68 -58.26,0.28 -30.93,4.43 -8.31,10 -47.73,10.08 -104.33,0.21 -50.24,10.79 -106.5,9.89 -49.01,-0.79 -34.16,2.81 -51.01,7.73 -17.7,5.17 -37.21,0.35 -55.66,2.34 -29.39,3.16 -8.01,8.74 -48.14,10 -37.95,1.19 -20.5,7.39 -48.43,9.96l-50 8.17c-20.86,5.5 -28.86,-1.04 -51.43,6.67l-97.59 18.83c-0.09,0.03 -7.29,3.15 -10.49,4.04l-313.27 87.21 -32.55 11.16 -186.96 78.17c-31.76,15.29 -168.41,97.24 -193.77,120.66 -30.66,28.3 -8.22,17.3 -47.11,40.04 -27.65,16.17 -20.56,27.68 -39.24,47.08 -9.74,10.12 -21.08,18.35 -29.31,29.17 -28.42,39.71 -24.38,37.43 -43.23,74.19l-16.38 39.2c-14.35,44.76 -4.22,22.62 -9.63,48.43 -12.85,61.36 -8.59,31.11 -8.59,107.18 0,92.04 -4.47,540.48 1.49,577.2 21.72,2.75 25.5,-2.57 40.5,6.93z"/>
    <path class="fil1" d="M2446.54 2264.7c14.4,-8.34 115.63,-9.35 145.01,1.16l47.94 20.06c87.82,43.37 80.16,121.08 21.93,152.87l-9.78 4.76c-0.93,0.56 -2.17,1.28 -3.06,1.87 -23.18,15.38 -66.09,34.25 -94.23,35.58 -19.76,0.94 -76.55,1.88 -93.11,-3.4l-14.36 -5.18c-29.51,-7.05 -6.73,5.58 -51.27,-16.42 -27.84,-13.75 -24.7,-15.55 -45.16,-35.87 -37.28,-36.99 -34.24,-54.41 -7.49,-95.29 4.6,-7.04 0.61,-3.14 5.63,-8.8l46.66 -31.06c5.45,-2.68 21.34,-10.8 26.34,-12.6 13.85,-4.97 11.18,0.31 24.97,-7.68zm68.88 619.95c14.2,4.31 41.07,35.48 52.68,46.79 16.05,15.63 14.97,9.63 31.55,21.82 32.85,24.14 73.29,36.58 111.71,48.74 23.09,7.31 126.66,8.69 154.17,-0.08 12.05,-3.84 -2.73,-1.75 18.16,-5.77l20.98 -3.5c1.23,-0.38 2.45,-0.87 3.61,-1.31l71.27 -35.9c37.45,-22.8 61.4,-42 87.73,-71.18l32.14 -45.56c0.56,-0.9 8.55,-17.32 9.7,-19.73l15.62 -40.3c22.26,-68.51 8.76,-37.83 17.89,-83.58 7.14,-35.81 15.78,-34.18 -2.33,-85.3 -11.1,-31.33 -77.99,-54.24 -110.98,-33.99l-21.09 16.28c-23.67,19.05 -14.21,45.78 -20.96,71.92 -8.03,31.1 -21.02,68.29 -37.88,98.17 -14.56,25.8 -42.25,45.51 -70.17,60.5l-54.88 19.88c-62.54,8.46 -91.34,-3.32 -139.2,-31.6 -0.96,-0.57 -2.25,-1.17 -3.2,-1.76 -0.94,-0.59 -2.19,-1.28 -3.11,-1.91 -37.04,-25.37 -53.95,-60.72 -73.76,-100.22 -0.32,-0.65 -4.54,-9.61 -4.66,-9.96 -19.05,-58.5 11.78,-61.09 34.82,-65.47 18.45,-3.5 5.87,-1.52 18.48,-5.8l94.1 -42.63c41.3,-20.74 97.76,-93.05 112.61,-138.89 11.46,-35.35 17.5,-96.82 5.64,-133.28 -3.37,-10.37 0.53,3.09 -4.02,-10.46 -10.36,-30.8 -23.99,-54.19 -43.92,-78.11 -10.68,-12.81 -9.09,-22.13 -21.71,-30.66l-45.18 -32.42c-13.73,-8.03 -4.44,-1.11 -17.83,-11.29 -22.22,-16.88 -48.01,-22.48 -72.49,-34.23 -39.5,-18.96 -207.03,-24.51 -245.99,-11.47 -1.18,0.39 -2.32,1.02 -3.53,1.4 -1.28,0.41 -2.45,0.9 -3.78,1.27l-28 5.46c-5.69,1.82 -4.28,2.49 -15.57,6.27l-57.51 25.17c-41.67,20.56 -80.15,52.05 -105.96,92.52 -9.44,14.81 -19.24,25.19 -24.95,42.15 -10.99,32.67 -23.33,132.7 -5.32,169.15l21.3 42.23c2.53,4.95 2.74,5.69 5.04,9.32l21.09 32.02c3.81,5.63 20.27,22.52 25.26,26.28 30.13,22.71 67.02,47.37 101.96,58.32 1.23,0.39 2.49,0.77 3.71,1.17 55.19,18.02 83.97,14.48 86.89,41.25l-15.61 67.56 -44.27 63.32c-26.61,26.47 -35.77,27.83 -66.62,43.58l-12.73 6.45c-17.83,7.95 -52.87,5.56 -75.99,5.7 -33.21,0.19 -47.7,-11.87 -77.1,-25.98 -53.58,-25.7 -89.03,-85.7 -98.21,-136.79 -4.48,-24.91 2.3,-48.43 -11.22,-70.34 -17.64,-28.59 -65.36,-49.77 -102.54,-34.34 -1.02,0.43 -2.25,1.08 -3.24,1.54 -48.08,22.37 -58.01,87.79 -41.28,137.18l18.27 64.45c9.12,27.27 22.75,47.32 34.93,71.95 11.43,23.1 36.53,40.92 50.11,55.27 22.52,23.8 46.34,45.25 75.06,60.46l16.17 7.95c25.42,12.56 73.33,28.14 100.4,31.08 26.46,2.88 108.02,4.03 132.32,-4.09l42.26 -11.06c28.48,-9.42 53.46,-19.79 78.39,-37.92l26.78 -17.1c17.1,-14.78 31.67,-40.66 53.99,-50.63z"/>
    <path class="fil1" d="M3313.67 1578.44c8.09,-5.79 96.04,-14.69 123.11,25.45l9.72 19.39c2.07,4.25 4.68,8.69 8.35,15.91 13.47,26.47 8.07,81.08 -15.27,104.82 -30.04,30.55 -20.16,23.67 -51.65,34.86 -35.91,12.76 -36.57,8.08 -66.48,-2.01 -24.98,-8.42 -18.73,-7.5 -36.61,-25.36 -51.9,-51.81 -44.62,-126.81 10.88,-162.04 0.95,-0.6 2.23,-1.24 3.18,-1.81 13.17,-7.98 2.74,-0.6 14.77,-9.21zm18.31 -130.49c-20.43,11.88 -31.44,-4.73 -94.27,26.87 -66.34,33.36 -136.96,98.62 -159.02,169.77 -3.64,11.73 -9.83,19.2 -14.15,29.29 -8.25,19.27 -2.7,13.84 -5.22,34.41 -0.84,6.8 -18.06,59.08 -8.59,106.69 4.64,23.33 -0.5,-1.1 3.74,11.34 6.59,19.33 3.06,9.67 5.56,32.44l6.25 23.52c1.25,3.64 1.78,5.47 3.51,10.96 9.5,30.04 18.66,41.22 35.52,66.37 21.02,31.36 50.96,64.12 80.58,89.2 10.06,8.51 4.06,3.73 11.56,8.02l83.35 40.65c64.03,15.07 81.43,14.58 157.99,11.76 21.19,-0.78 40.25,-10.14 60.08,-16.93 27.92,-9.57 30.8,-8.3 59.46,-25.85 8.77,-5.37 13.7,-10.75 22.83,-16.16 16.24,-9.62 10.03,-2.7 25.34,-18.21 11.31,-11.46 31.46,-29.46 41.03,-41.5 10.53,-13.25 0.96,-0.82 7.42,-11.93l7.46 -12.26c12.16,-16.8 6.11,-4.33 16.9,-26.3l29.66 -77.42c10.67,-30.08 9.97,-110.24 6.78,-139.63 -3.26,-30.07 -25.29,-90.13 -45.35,-120.15 -0.6,-0.89 -1.33,-2.11 -1.9,-3.03l-5.12 -9.6c-12.51,-21.01 -14.99,-13.19 -27.87,-35.72 -20.74,-36.27 -24.63,-22.39 -45.96,-39.99 -7.71,-6.36 -8.72,-11.56 -19.39,-18.49 -48.3,-31.38 -189.74,-76.3 -238.18,-48.14z"/>
    <path class="fil1" d="M1550.62 1665.43c0,-18.05 2.17,-10.58 8.19,-29.75 6.18,-19.71 13.34,-33.95 40.41,-49.83 1.24,-0.72 4.93,-2.69 6.24,-3.34 0.97,-0.47 2.21,-1.13 3.21,-1.57 1.35,-0.59 5.33,-2.29 6.71,-2.74 8.94,-2.94 2.8,-2.87 15.65,-2.87 42.45,0 77.37,-6.03 103.55,29.29 24.85,33.54 26.09,57.97 26.09,89.81 0,47.36 -67.75,106.13 -129.29,86.15l-7.15 -2.58c-29.28,-9.41 -53.62,-29.12 -66.61,-57.74 -2.68,-5.89 -1.38,-2.28 -2.98,-6.63 -6.48,-17.6 -4.02,-21.43 -4.02,-48.2zm-262.95 72.49l0 67.66c0,37.49 5.83,-3.56 10.19,48.25 1.62,19.23 -0.63,8.15 4.84,24.05 0.4,1.15 0.98,2.34 1.39,3.49 0.41,1.17 0.92,2.39 1.34,3.57 0.41,1.2 0.83,2.47 1.24,3.68 28.01,83.13 47.82,89.58 109,151.81 13.73,13.96 17.93,15.41 35.21,23.74 6.58,3.17 12.38,6.14 18.73,9.4l12.17 6.14c0.94,0.47 2.23,1.09 3.18,1.57 1.29,0.65 5.09,2.55 6.39,3.23 23.29,12.18 65.93,24.61 95.98,24.38 49.51,-0.38 76.36,8.32 122.41,-7.86l36.87 -12.12c40.95,-12.65 54.1,-30.01 93.37,-54.88 53.16,-33.67 113.86,-147.92 113.18,-218.62 -0.36,-37.16 4.58,-80.46 -6.24,-114.08 -8.03,-24.95 -0.48,-22.87 -14.66,-48.3 -6.01,-10.77 -18.95,-52.48 -42.61,-76.9 -24.23,-25.01 -11.04,-16.33 -24.25,-34.14 -16.4,-22.11 -18.57,-11.39 -36.82,-26.62 -36.03,-30.07 -50.92,-38.12 -99.09,-54.31l-7.11 -2.67c-6.44,-2.17 0.61,-0.87 -10.91,-3.5 -72.68,-16.61 -26.09,-11.61 -128.85,-11.61 -21.41,0 0.53,4.51 -24.89,9.04 -15.76,2.81 -18.18,-0.54 -34.35,4.38l-117.94 65.1c-26.94,28.07 -64.96,60.87 -81.91,101l-20.98 52.29c-7.99,19.13 -2.77,13.66 -5.18,33.52 -3.88,31.98 -9.72,6.59 -9.72,29.32z"/>
    <path class="fil4" d="M2264.15 1144.8c8.93,-17.21 201.03,-9.14 217.45,-9.14 73.65,0 151.93,-2.17 223.02,6.3 33.19,3.95 76.57,-1.58 110.85,0.3 34.47,1.89 14.2,10.6 101.09,10.01 43.2,-0.29 58.63,10.88 101.53,10.13 7.69,-0.13 21.45,-0.57 28.62,0.62 21.03,3.48 6.79,3.48 21.52,7.42 17.67,4.72 37.57,-0.33 56.07,2.11 27.48,3.62 6.6,9.48 43.32,10.17l50.48 7.48c13.33,3.72 85.36,8.95 116.65,19.04 1.22,0.39 2.36,0.96 3.64,1.31l49.31 8.86c1.27,0.4 2.46,0.89 3.78,1.25l85.22 19.11c32.15,10.88 40.25,8.7 67.14,14.88l118.95 36.53c4.5,1.48 6.66,1.91 11.12,3.37l81.73 30.47c33.06,10.04 64.37,27.72 95.68,42.67 17.26,8.25 55.73,9.86 75.42,2.01 45.87,-18.28 60.04,-70.41 39.63,-110.61 -0.5,-0.98 -1.13,-2.21 -1.62,-3.19l-6.47 -12.72c-13.16,-19.99 -29.56,-26.22 -53.79,-33.94l-130.71 -54.06c-1.18,-0.4 -2.41,-0.89 -3.6,-1.28 -1.21,-0.4 -2.48,-0.8 -3.7,-1.2 -9.65,-3.07 -14.71,-4.54 -22.08,-6.94l-7.45 -2.43c-30.8,-9.35 -63.6,-25.72 -96.32,-32.04 -14.18,-2.74 -9.71,-0.22 -24.22,-4.81l-68.28 -19.39c-13,-3.82 -2.52,-2.35 -22.82,-6.09 -1.52,-0.28 -2.8,-0.28 -4.31,-0.57l-202.66 -40.73c-26.53,-3.71 -2.11,-1.28 -21.46,-6.86l-105.04 -12.24c-33.62,-2.18 -5.37,-9.46 -42.92,-10.9 -15.71,-0.6 -38.5,2.17 -53.39,-0.27 -25.46,-4.19 -9.51,-9.9 -48.19,-9.67 -56.81,0.33 -52.01,-10.56 -101.67,-10.09 -17.79,0.17 -35.57,0.06 -53.36,0.22 -7.85,0.07 -21.51,0.51 -28.8,-0.64 -21.59,-3.42 -8.28,-3.62 -21.69,-7.35 -21.5,-5.97 -90.26,-2.85 -114.56,-0.4 -53.69,-6.16 -323.57,-0.66 -419.65,-1.26 -86,-0.53 -10.9,11.12 -111.15,10.12 -40.37,-0.41 -55.81,-3.75 -88.91,30.7 -22.55,23.47 -20.83,77.5 -2.41,97.55 3.82,4.16 30.11,29.41 32.07,30.32 16.09,7.44 93.45,2.9 117.28,2.9l9.69 -7.01z"/>
    <path class="fil3" d="M3731.96 689.36c-7.86,29.51 -12.08,13.42 -12.09,39.16 27.85,0 18.38,-0.29 40.24,6.64l68.47 18.9c20.82,7.32 26.18,12.86 46.03,14 2.06,-18.75 4.64,-15.3 12.59,-39.39 4.19,-12.69 11.2,-25.7 17.07,-37.08l79.79 -201.93c7.99,-14.65 -2.25,-4.84 10.19,-13.4 19.12,4.08 15.52,6.06 25.28,23.11 0.54,0.94 1.17,2.22 1.74,3.15 0.76,1.24 3.13,4.64 3.97,5.8 4.55,6.33 5.33,5.98 8.58,10.87l8.49 16.09c14.94,31.53 9.78,16.14 22.27,35.53l134.06 291.93c0.39,1.26 0.66,2.59 1.05,3.84l6.64 17.29c7.41,15.54 8.42,12.51 12.17,25.91l-0.32 7.14c9.48,2.84 13.95,4.81 19.28,7.21l77.31 48.62c8.39,5.32 1.87,1.43 10.98,8.25 0.14,0.11 8.21,5.91 8.67,6.2l39.8 32.73c37.32,37.53 26.3,9.97 44.67,37.86 6.73,-7.65 9.19,12.98 4.76,-17.96l-38.69 -137.86c-0.41,-1.17 -0.93,-2.38 -1.33,-3.56l-47.63 -134.21c-3.99,-11.05 -9.55,-20.63 -14.38,-30.01 -15.62,-30.4 -10.77,-31.97 -24.19,-58.27l-81.89 -163.42c-3.79,-7.78 -8.94,-18.89 -13.72,-25.58 -22.23,-31.1 -19.92,-36.44 -31.26,-51.59l-128.07 -190.74c-26.6,-39.3 -85.18,-118.54 -120.88,-29.22l-52.65 136.96c-5.29,11.11 -11.93,22.09 -16.62,31.36l-120.41 305.69z"/>
    <path class="fil0" d="M652.77 1057.64c35.35,-5.08 12.61,-14.15 55.09,-38.76 20.69,-11.99 12.35,-10.91 24.04,-20.38 17.64,-14.29 11.64,-0.67 30.24,-18.15 10.31,-9.69 8.39,-12.68 23.23,-19.75 0.99,-0.47 2.34,-0.94 3.36,-1.4l83.88 -48.4c7.24,-44.99 21.67,-62.51 30.77,-88.68 6.62,-19.03 4.06,-16.42 11.94,-32l74.06 -157.16c0.51,-0.98 1.15,-2.23 1.64,-3.23l72.14 -126.8c21.27,-35.2 30.65,-36.94 42.57,4.4 0.37,1.27 0.58,2.59 0.94,3.88l12.81 31.64c0.47,0.97 1.14,2.18 1.59,3.17l52.65 126.75c3.44,9.24 3.42,13.14 7.02,22.31 7.07,18.04 7.89,9.74 16.08,37.4 3.07,10.38 6.63,25.92 18.57,35.32l65.88 -21.69c1.2,-0.39 2.43,-0.88 3.61,-1.28 13.71,-4.56 24.19,-5.18 38.88,-9.81 21.52,-6.79 12.64,-6.43 39.8,-6.43l-3.16 -18.91c-2.38,-7.92 -1.62,-12.53 -3.64,-19.86l-15.51 -33.96c-1.47,-2.84 -4.69,-8.82 -6.44,-12.63 -13.77,-29.98 -46.93,-125.48 -65.88,-162.69 -13.75,-26.98 -9.59,-28.7 -19.38,-48.75l-47.7 -115.25c-5.43,-12.68 -3.95,-14.19 -8.25,-25.95 -5.86,-16.01 -16.23,-30.72 -22.29,-45.48 -5.65,-13.77 -26,-99.8 -76.38,-63.1 -17.21,12.54 -43.21,53.35 -52.81,63.4 -11.58,12.14 -19.13,26.45 -28.21,39.05l-85.16 127.48c-0.55,0.91 -1.14,2.22 -1.67,3.15l-226.72 483.19 -31.67 104.07c-0.39,1.19 -0.91,2.38 -1.27,3.6l-14.67 51.65z"/>
    <path class="fil5" d="M872.63 910.82l75.91 -43.09c23.99,-11.66 20.34,-4.17 52.42,-20.98l180.72 -71.92c54.97,-18.6 35.98,16.68 57.65,49.81 1.69,2.58 6.83,10.94 7.55,12.6l4.91 30.69c27.21,-0.53 18.9,0.64 39.39,-6.54l40.77 -12.97c10.45,-2.09 9.99,-0.8 20.23,-3.77 47.43,-13.75 32.33,-1.37 54.43,-20.14 -2.48,-24.9 0.92,2.36 -5.51,-17.24l-25.53 -64.65c-7.79,-31.23 -3.79,-23.39 -15.15,-32.91l3.16 18.91c-27.16,0 -18.28,-0.36 -39.8,6.43 -14.68,4.63 -25.17,5.24 -38.88,9.81 -1.18,0.39 -2.41,0.89 -3.61,1.28l-65.88 21.69c-11.94,-9.4 -15.5,-24.94 -18.57,-35.32 -8.19,-27.66 -9.01,-19.36 -16.08,-37.4 -3.59,-9.17 -3.57,-13.07 -7.02,-22.31l-52.65 -126.75c-0.45,-0.99 -1.12,-2.2 -1.59,-3.17l-12.81 -31.64c-0.36,-1.3 -0.57,-2.61 -0.94,-3.88 -11.92,-41.34 -21.3,-39.6 -42.57,-4.4l-72.14 126.8c-0.5,1 -1.14,2.25 -1.64,3.23l-74.06 157.16c-7.88,15.58 -5.32,12.97 -11.94,32 -9.1,26.17 -23.53,43.69 -30.77,88.68z"/>
    <path class="fil4" d="M4137.07 1399.62c-26.12,15.75 -35.17,5.41 -50.74,33.68 -9.85,17.87 -14.79,48.95 -4.71,72.38l3.28 6.48c0.7,1.3 2.79,4.99 3.57,6.22l18.08 25.94c23.93,41.63 37.57,29.69 66.15,111.61 1.6,4.6 3.83,11.52 6.12,18.26 12.03,35.4 3.9,41.75 9.16,77.94l6.16 18.06c0.48,1 1.21,2.17 1.71,3.16 9.16,18.14 10.67,26.46 23.66,34.77 0.89,0.57 2.18,1.16 3.11,1.69 0.94,0.53 2.25,1.08 3.22,1.59l23.2 11.3c14.18,5.62 28.01,6.78 43.56,2.31 17.15,-4.92 37.95,-18.63 51.21,-36.54 13.51,-18.26 9,-106.43 -0.74,-139.43l-3.21 -16.86c-9.64,-53.39 -38.64,-97.55 -67.23,-143.43 -0.57,-0.91 -1.21,-2.18 -1.76,-3.11 -18.72,-31.37 -16.11,-16.02 -29.64,-38.73 -7.46,-12.5 0.91,-2.34 -8.86,-15.26 -2.68,-3.54 -21.17,-21.57 -21.59,-21.87 -12.58,-8.83 -48.67,-25.27 -73.7,-10.18z"/>
    <path class="fil5" d="M2446.54 2264.7c-13.79,7.99 -11.12,2.7 -24.97,7.68 -5,1.8 -20.88,9.91 -26.34,12.6l-46.66 31.06c-5.02,5.66 -1.02,1.76 -5.63,8.8 -26.75,40.89 -29.78,58.3 7.49,95.29 20.46,20.31 17.32,22.11 45.16,35.87 44.54,22 21.76,9.37 51.27,16.42l14.36 5.18c16.57,5.28 73.35,4.34 93.11,3.4 28.14,-1.33 71.06,-20.2 94.23,-35.58 0.89,-0.59 2.13,-1.31 3.06,-1.87l9.78 -4.76c58.22,-31.79 65.89,-109.5 -21.93,-152.87l-47.94 -20.06c-29.38,-10.51 -130.61,-9.5 -145.01,-1.16z"/>
    <path class="fil6" d="M872.63 910.82l-83.88 48.4c-1.02,0.46 -2.37,0.92 -3.36,1.4 -14.84,7.07 -12.92,10.06 -23.23,19.75 -18.6,17.48 -12.6,3.86 -30.24,18.15 -11.69,9.47 -3.35,8.39 -24.04,20.38 -42.48,24.61 -19.74,33.68 -55.09,38.76 1.58,24.94 -5.84,20.71 -8.88,51.91 -2.77,28.5 -10.1,24.55 -10.1,60.91 24.73,-1.08 18.73,-1.61 36.28,-20.91 17.71,-19.48 17.71,-13.1 33.51,-24.33 10.71,-7.61 7.68,-7.69 15.18,-14.38l34.65 -23.74c14.09,-10.27 20.67,-8.78 51.25,-30.81l36.38 -20.62c9.65,-5.09 10.01,-4.81 19.66,-9.39l58.19 -28.98c10.86,-5.44 23.74,-11.96 35.68,-17.99 8.93,-4.51 10.94,-5.7 20.5,-8.71l192.62 -69.91c17.84,-5.8 22.8,-8.39 41.07,-14.4 1.22,-0.4 2.47,-0.86 3.68,-1.27 38.25,-12.78 26.59,-2.26 39.34,-17.1l-4.91 -30.69c-0.72,-1.66 -5.87,-10.02 -7.55,-12.6 -21.67,-33.13 -2.67,-68.41 -57.65,-49.81l-180.72 71.92c-32.08,16.81 -28.44,9.32 -52.42,20.98l-75.91 43.09z"/>
    <path class="fil5" d="M3874.61 768.07l-0.92 0.72 199.65 73.21c5.63,2.72 3.04,1.42 9.69,4.76l51.1 25.58c25.63,11.31 20.12,2.16 40.63,18.37l43.73 19.07c-3.75,-13.4 -4.76,-10.37 -12.17,-25.91l-6.64 -17.29c-0.39,-1.25 -0.67,-2.58 -1.05,-3.84l-134.06 -291.93c-12.49,-19.4 -7.32,-4 -22.27,-35.53l-8.49 -16.09c-3.26,-4.89 -4.04,-4.54 -8.58,-10.87 -0.84,-1.16 -3.21,-4.56 -3.97,-5.8 -0.57,-0.92 -1.19,-2.2 -1.74,-3.15 -9.76,-17.05 -6.16,-19.03 -25.28,-23.11 -12.44,8.56 -2.2,-1.24 -10.19,13.4l-79.79 201.93c-5.87,11.39 -12.88,24.4 -17.07,37.08 -7.95,24.09 -10.53,20.64 -12.59,39.39z"/>
    <path class="fil6" d="M3828.17 872.44c7.54,5.09 -2.84,0.74 12.26,4.6l56.75 16.4c1.19,0.4 2.41,0.89 3.6,1.29l48.45 16.95c1.22,0.4 2.48,0.86 3.69,1.27 1.2,0.4 2.42,0.89 3.61,1.3l78.21 28.63c65.2,21.35 139.1,61 199.31,90.54l20.22 7.73c-1.61,-10.26 -1.89,-7.26 -2.81,-11.02l-33.29 -113.22 0.32 -7.14 -43.73 -19.07c-20.5,-16.21 -15,-7.06 -40.63,-18.37l-51.1 -25.58c-6.65,-3.34 -4.06,-2.04 -9.69,-4.76l-199.65 -73.21c-0.84,1.29 -1.38,3.12 -1.82,4.26l-28.67 73.11c-0.43,1.17 -0.87,2.44 -1.34,3.58 -5.46,13.4 -4.32,13.27 -13.7,22.7z"/>
    <path class="fil4" d="M1550.62 1665.43c0,26.77 -2.47,30.6 4.02,48.2 1.6,4.35 0.3,0.74 2.98,6.63 12.99,28.62 37.33,48.33 66.61,57.74l7.15 2.58c61.55,19.98 129.29,-38.79 129.29,-86.15 0,-31.84 -1.23,-56.27 -26.09,-89.81 -26.18,-35.32 -61.1,-29.29 -103.55,-29.29 -12.86,0 -6.71,-0.07 -15.65,2.87 -1.38,0.45 -5.35,2.15 -6.71,2.74 -1,0.44 -2.24,1.1 -3.21,1.57 -1.31,0.65 -5.01,2.61 -6.24,3.34 -27.07,15.88 -34.23,30.12 -40.41,49.83 -6.01,19.17 -8.19,11.7 -8.19,29.75z"/>
    <path class="fil4" d="M3313.67 1578.44c-12.03,8.61 -1.6,1.23 -14.77,9.21 -0.95,0.57 -2.23,1.21 -3.18,1.81 -55.5,35.23 -62.78,110.24 -10.88,162.04 17.88,17.86 11.63,16.93 36.61,25.36 29.91,10.09 30.58,14.77 66.48,2.01 31.5,-11.19 21.61,-4.31 51.65,-34.86 23.34,-23.75 28.74,-78.35 15.27,-104.82 -3.67,-7.21 -6.28,-11.66 -8.35,-15.91l-9.72 -19.39c-27.07,-40.14 -115.02,-31.24 -123.11,-25.45z"/>
    <path class="fil7" d="M4254.28 1041.14c30.37,27.76 22.19,15.28 48.2,30.9l78.02 53.03c59.45,40.44 36.89,43.78 69.23,44.9 0,-32.57 -4.26,-49.64 -12.84,-82.27 -5.12,-19.51 -6.53,-40.52 -13.24,-47.88 4.43,30.94 1.97,10.31 -4.76,17.96 -18.38,-27.89 -7.35,-0.33 -44.67,-37.86l-39.8 -32.73c-0.46,-0.29 -8.53,-6.09 -8.67,-6.2 -9.11,-6.82 -2.59,-2.93 -10.98,-8.25l-77.31 -48.62c-5.33,-2.4 -9.8,-4.37 -19.28,-7.21l33.29 113.22c0.92,3.75 1.2,0.75 2.81,11.02z"/>
    <path class="fil2" d="M4257.72 2777.05c9.04,6.53 20.63,3.96 44.41,11.18l32.33 6.98c10.03,2.9 0.3,1.51 14.35,5.1l117.88 29.6c18.08,6.26 13.04,-0.11 32.13,11.49l0.49 -138.02 -131.66 -1.49c-8.64,25.08 -4.58,13.18 -23.23,24.23l-49.78 37.18c-14.99,11.72 -13.82,11.15 -36.92,13.75z"/>
    <path class="fil7" d="M3828.17 872.44c9.38,-9.44 8.23,-9.3 13.7,-22.7 0.47,-1.14 0.91,-2.41 1.34,-3.58l28.67 -73.11c0.44,-1.14 0.98,-2.96 1.82,-4.26l0.92 -0.72c-19.85,-1.14 -25.21,-6.68 -46.03,-14l-68.47 -18.9c-21.86,-6.94 -12.39,-6.64 -40.24,-6.64 0.01,-25.74 4.23,-9.65 12.09,-39.16l-5.35 6.35c-18.05,24.77 -15.06,29.73 -23.23,54.95l-7.37 17.11c-9.3,19.01 -21.71,48.49 -19.52,70.02 49.52,4.97 26.35,5.45 56.94,10.98 13.35,2.41 7.26,0.26 19.82,4.2l74.92 19.47z"/>
    <path class="fil2" d="M797.25 2761.73c-34.71,2.15 -14.29,-6.5 -47.88,-26.24 -16.49,-9.7 -21.37,-2.67 -33.13,-33.82l-131.17 1.94 -0.67 118.91 106.84 -27.86c11.47,-3.19 16.25,-2.3 28.2,-5.93l51.83 -16.04c28,-4.94 19.46,0.94 25.99,-10.96z"/>
   </g>
   <ellipse class="fil1" cx="763.25" cy="3973.87" rx="686.79" ry="891.5"/>
   <ellipse class="fil2" cx="763.25" cy="3973.87" rx="519.18" ry="767.76"/>
   <path class="fil0" d="M763.25 3206.1c90.52,0 175.61,34.29 249.71,94.52 9.8,54.21 14.98,110.15 14.98,167.39 0,447.45 -313.37,817.16 -719.83,875.44 -40.8,-109.64 -64.03,-235.6 -64.03,-369.58 0,-424.02 232.44,-767.77 519.17,-767.77z"/>
   <path class="fil1" d="M562.23 4332.57l0 0c25.48,0 46.32,17.93 46.32,39.84l0 334.55c-32.35,-14.91 -63.34,-34.38 -92.64,-57.89l0 -276.66c0,-21.91 20.84,-39.84 46.32,-39.84z"/>
   <path class="fil1" d="M981.62 4311.66l0 0c25.48,0 46.32,17.93 46.32,39.84l0 282.93c-29.16,25.6 -60.16,47.1 -92.64,63.97l0 -346.9c0,-21.91 20.84,-39.84 46.32,-39.84z"/>
   <ellipse class="fil8" cx="398.39" cy="3840.98" rx="91.75" ry="78.92"/>
   <path class="fil8" d="M549.31 3672.01c87.3,-207.34 208.15,-218.5 146.18,-302.69 -126.59,-171.98 -331.9,225.57 -331.04,268.48 2.07,103.93 161.42,103.04 184.86,34.21z"/>
   <ellipse class="fil1" cx="4336.23" cy="3973.87" rx="686.79" ry="891.5"/>
   <ellipse class="fil2" cx="4336.23" cy="3973.87" rx="519.18" ry="767.76"/>
   <path class="fil0" d="M4336.23 3206.1c90.52,0 175.61,34.29 249.71,94.52 9.8,54.21 14.98,110.15 14.98,167.39 0,447.45 -313.37,817.16 -719.83,875.44 -40.8,-109.64 -64.03,-235.6 -64.03,-369.58 0,-424.02 232.44,-767.77 519.17,-767.77z"/>
   <path class="fil1" d="M4135.22 4332.57l0 0c25.48,0 46.32,17.93 46.32,39.84l0 334.55c-32.35,-14.91 -63.34,-34.38 -92.64,-57.89l0 -276.66c0,-21.91 20.84,-39.84 46.32,-39.84z"/>
   <path class="fil1" d="M4554.6 4311.66l0 0c25.48,0 46.32,17.93 46.32,39.84l0 282.93c-29.16,25.6 -60.16,47.1 -92.64,63.97l0 -346.9c0,-21.91 20.84,-39.84 46.32,-39.84z"/>
   <ellipse class="fil8" cx="3971.37" cy="3840.98" rx="91.75" ry="78.92"/>
   <path class="fil8" d="M4122.29 3672.01c87.3,-207.34 208.15,-218.5 146.18,-302.69 -126.59,-171.98 -331.9,225.57 -331.04,268.48 2.07,103.93 161.42,103.04 184.86,34.21z"/>
  </g>
 </g>
</svg>
