<?xml version="1.0" encoding="UTF-8"?>
<!DOCTYPE svg PUBLIC "-//W3C//DTD SVG 1.1//EN" "http://www.w3.org/Graphics/SVG/1.1/DTD/svg11.dtd">
<!-- Creator: CorelDRAW -->
<svg xmlns="http://www.w3.org/2000/svg" xml:space="preserve" width="158.759mm" height="158.759mm" version="1.1" style="shape-rendering:geometricPrecision; text-rendering:geometricPrecision; image-rendering:optimizeQuality; fill-rule:evenodd; clip-rule:evenodd"
viewBox="0 0 15742.27 15742.27"
 xmlns:xlink="http://www.w3.org/1999/xlink"
 xmlns:xodm="http://www.corel.com/coreldraw/odm/2003">
 <defs>
  <style type="text/css">
   <![CDATA[
    .str0 {stroke:#663333;stroke-width:19.83;stroke-miterlimit:22.9256}
    .str1 {stroke:#663333;stroke-width:349.81;stroke-linecap:round;stroke-linejoin:round;stroke-miterlimit:22.9256}
    .fil4 {fill:none;fill-rule:nonzero}
    .fil0 {fill:#FFF9BD}
    .fil1 {fill:#D2AE6D}
    .fil2 {fill:#D2AE6D}
    .fil5 {fill:#FEFEFE;fill-rule:nonzero}
    .fil3 {fill:#663333;fill-rule:nonzero}
   ]]>
  </style>
 </defs>
 <g id="Camada_x0020_1">
  <metadata id="CorelCorpID_0Corel-Layer"/>
  <path class="fil0" d="M7871.14 0c4347.11,0 7871.14,3524.03 7871.14,7871.14 0,4347.11 -3524.03,7871.14 -7871.14,7871.14 -4347.11,0 -7871.14,-3524.03 -7871.14,-7871.14 0,-4347.11 3524.03,-7871.14 7871.14,-7871.14z"/>
  <path class="fil1" d="M7871.14 0c4347.11,0 7871.14,3524.03 7871.14,7871.14 0,4347.11 -3524.03,7871.14 -7871.14,7871.14 -4347.11,0 -7871.14,-3524.03 -7871.14,-7871.14 0,-4347.11 3524.03,-7871.14 7871.14,-7871.14zm0 644.53c3991.14,0 7226.61,3235.47 7226.61,7226.61 0,3991.14 -3235.47,7226.61 -7226.61,7226.61 -3991.14,0 -7226.61,-3235.47 -7226.61,-7226.61 0,-3991.14 3235.47,-7226.61 7226.61,-7226.61z"/>
  <path class="fil2" d="M4178.99 12234.86c-361.9,-391.56 -269.93,-1336.89 -165.99,-1824.63 233.8,-1097.14 943.06,-2042.84 1931.43,-2573.95 660.34,-354.85 1566.87,-561.51 2311.52,-440.25 92.09,14.99 184.34,26.81 276.18,43.63 98.27,18.01 187.21,47.93 283.3,71.76 844.75,209.54 1367.61,651.79 1945.17,1276.67 629.1,680.64 922.98,1782.62 854.58,2692.83 -44.53,592.5 -343.63,955.2 -956.69,953.16 -451.67,-1.51 -935.55,-179.96 -1374.07,-286.06 -566.59,-137.08 -1173.6,-284.73 -1760.46,-257.56 -269.92,12.49 -535.52,58.95 -798.67,118.46 -373.48,84.47 -745.25,192.65 -1112.81,299.82 -432.62,126.12 -1077.18,311.64 -1433.48,-73.86zm957.49 -5762.23c-397.36,-429.91 -594.75,-1031.67 -620.2,-1609.64 -16.18,-367.75 34.77,-747.24 192.42,-1082.69 130.03,-276.69 331.38,-516.99 602.04,-664.48 258.32,-140.77 550.1,-180 837.55,-116.66 323.02,71.18 602.22,261.75 824.36,502.1 254.88,275.76 436.88,631.5 545.71,989.37 94.35,310.24 150.02,678.77 101.99,1001.82 -19.74,132.77 -34.68,264.03 -75.01,392.79 -167.43,534.48 -527.7,994.91 -1108.71,1084.6 -484.56,74.81 -973.65,-143.94 -1300.16,-497.21zm5819.69 2398.32c-583.55,-631.35 -311.03,-1844.9 143.11,-2481.31 403.96,-566.11 1134.59,-1028.28 1851.08,-883.33 423.54,85.68 738.4,348.65 902.51,745.11 157.43,380.33 152.89,824.32 60.59,1220.1 -210.16,901.04 -891.5,1707.64 -1837.54,1855.21 -475.68,74.2 -806.54,-116.93 -1119.74,-455.78zm-2627.84 -2272.7c-541.92,-586.32 -577.03,-1637.64 -276.8,-2345.11 252.53,-595.04 834.31,-1286.3 1538.62,-1267.81 492.74,12.93 666.84,123.58 991.93,475.32 424.03,458.78 508.37,1323.79 358.97,1908.58 -53.57,209.67 -118.36,404.29 -212.67,600.02 -217.61,451.63 -600.55,843.9 -1089.06,990.75 -485.46,145.95 -965.56,12.01 -1311,-361.75zm-4066.03 -372.2c376.35,407.17 541.31,940.88 601.43,1481.57 19.82,178.17 -0.28,299.44 -15.64,472.66 -43.81,493.87 -356.46,945.37 -824.51,1124.41 -626.66,239.7 -1264.24,-78.12 -1729.91,-494.5 -71.6,-64.03 -146.84,-169.47 -203.74,-247.81 -55.21,-76 -113.47,-157.02 -162.25,-237.28 -326.61,-537.29 -488.5,-1212.15 -327.97,-1830.94 138.37,-533.36 518.27,-966.31 1089.75,-1010.81 680.89,-53.02 1128.39,261.83 1572.84,742.71z"/>
  <path class="fil3 str0" d="M2745.51 6419.79l1541.26 929.61c63.5,37.18 104.23,69.56 122.19,97.14 38.03,58.38 25.34,141.74 -38.1,250.06 -37.17,63.5 -71.58,105.54 -103.21,126.15 -31.63,20.61 -62.33,30.21 -92.11,28.83 -29.79,-1.39 -54.42,-7.29 -73.91,-17.7 -19.48,-10.4 -47.9,-26.53 -85.26,-48.42l-297.68 -180.33 -673.9 439.02 44.66 345.16c4.92,43.01 7.66,74.72 8.25,95.12 0.59,20.41 -4.23,44.93 -14.46,73.55 -10.25,28.62 -31.18,53.22 -62.81,73.82 -31.62,20.6 -84,35.08 -157.11,43.43 -123.65,15.88 -204.5,-5.38 -242.54,-63.77 -17.96,-27.58 -31.12,-77.92 -39.47,-151.02l-229.1 -1787.92c-6.47,-48.92 1.16,-96.62 22.86,-143.11 21.71,-46.49 52.82,-82.94 93.38,-109.35 87.58,-57.06 179.93,-57.15 277.05,-0.28zm183.31 712.26l56.56 437.91 323.57 -210.79 -380.13 -227.12z"/>
  <path class="fil3 str0" d="M5247.14 4225.43l516.44 -147.84c269.42,-78.7 534.68,-50.82 795.8,83.65 261.11,134.46 433.05,343.37 515.82,626.73 82.77,283.36 53.86,555.48 -86.72,816.35 -140.58,260.89 -353.01,432.84 -637.3,515.88l-510.05 149c-113.34,33.1 -190.72,30.5 -232.16,-7.8 -33.7,-32.51 -62.22,-88.72 -85.55,-168.61l-452.67 -1549.64c-13.02,-44.59 -21.13,-77.52 -24.31,-98.77 -3.18,-21.26 -1.42,-47.98 5.3,-80.2 11.36,-57.76 76.49,-104.02 195.41,-138.75zm968.29 1399.02c133.77,-39.08 240.03,-124.07 318.76,-254.95 78.73,-130.89 96.11,-271.59 52.16,-422.1 -43.97,-150.49 -133.23,-261.05 -267.8,-331.65 -134.57,-70.6 -272.45,-85.28 -413.66,-44.03l-267.57 78.16 307.75 1053.53 270.36 -78.97z"/>
  <path class="fil3 str0" d="M9416.63 4042.63c286.49,0 535.24,103.56 746.23,310.68 211,207.12 316.49,464.09 316.49,770.91 0,306.81 -100.66,568.13 -301.98,783.97 -201.31,215.84 -449.09,323.75 -743.32,323.75 -294.22,0 -544.42,-106.47 -750.58,-319.4 -206.15,-212.93 -309.23,-466.51 -309.23,-760.74 0,-160.67 29.03,-311.17 87.1,-451.51 58.08,-140.34 135.5,-257.93 232.29,-352.79 96.79,-94.85 208.09,-169.37 333.92,-223.57 125.82,-54.2 255.52,-81.3 389.08,-81.3zm-528.45 1094.65c0,172.28 55.66,312.14 166.96,419.57 111.31,107.44 235.67,161.15 373.11,161.15 137.43,0 261.32,-52.27 371.66,-156.79 110.34,-104.53 165.51,-244.87 165.51,-421.03 0,-176.15 -55.65,-317.46 -166.95,-423.92 -111.31,-106.47 -235.68,-159.7 -373.11,-159.7 -137.43,0 -261.32,53.72 -371.67,161.15 -110.33,107.44 -165.51,247.29 -165.51,419.57z"/>
  <path class="fil3 str0" d="M12185.92 6071.46l1330.55 914.29c51.06,35.07 84.43,66.82 100.14,95.22 15.72,28.42 18.79,58.13 9.22,89.13 -9.57,31.01 -28.6,67.26 -57.1,108.73 -28.51,41.49 -55.25,71.85 -80.22,91.1 -24.96,19.25 -50.31,27.08 -76.03,23.49 -38.58,-5.37 -84.2,-26.14 -136.85,-62.32l-457.08 -314.08 -827.13 1203.71c-25.22,36.7 -45.05,63.01 -59.5,78.9 -14.46,15.91 -35.61,31.32 -63.47,46.23 -27.86,14.91 -60.24,16.74 -97.13,5.48 -36.89,-11.26 -80.07,-33.88 -129.52,-67.86 -49.46,-33.98 -85.65,-65.91 -108.59,-95.76 -22.95,-29.86 -32.44,-60.46 -28.51,-91.81 3.92,-31.35 11,-57.03 21.21,-77.02 10.21,-20 27.93,-48.34 53.15,-85.04l825.48 -1201.31 -459.47 -315.72c-51.05,-35.08 -84.43,-66.83 -100.14,-95.25 -15.71,-28.4 -18.78,-58.11 -9.22,-89.12 9.56,-31 28.6,-67.25 57.1,-108.73 28.51,-41.48 55.24,-71.84 80.21,-91.1 24.98,-19.24 50.32,-27.07 76.03,-23.49 38.58,5.37 84.21,26.15 136.86,62.33z"/>
  <g>
   <path class="fil4 str1" d="M4835.21 10167.82c-1.9,389.1 9.52,811.02 33.77,1265.28 2.86,20.45 17.12,32.35 42.82,36.14 145.08,31.39 335.82,50.42 571.75,57.09 49.95,-2.86 76.11,-15.22 78.01,-37.58 0,-182.18 0.48,-354.37 1.43,-517.05 327.74,30.44 646.91,16.65 957.05,-41.85 105.13,-27.12 181.71,-77.54 230.23,-151.74 76.1,-142.22 87.53,-436.66 34.73,-883.8 -23.31,-160.78 -86.58,-262.56 -189.31,-306.33 -133.19,-82.77 -440.47,-132.7 -922.8,-149.35 -385.78,7.61 -722.55,63.26 -1011.75,167.43 -28.54,20.46 -44.71,39.96 -47.57,58.51 0.95,131.75 19.03,293.01 53.28,483.75 5.7,18.55 18.54,27.11 39,26.16 43.77,-1.9 86.58,-4.28 129.38,-6.65zm1191.56 -32.35c91.32,3.8 143.17,25.21 156.02,64.22 12.37,56.6 16.65,99.41 12.84,127.95 1.9,58.5 -14.27,117.02 -47.57,174.57 -18.55,22.36 -40.9,35.68 -67.07,40.43 -211.67,32.35 -385.29,32.35 -520.85,0 -0.95,-135.08 -3.81,-269.7 -8.57,-404.32 197.88,-6.65 356.28,-7.61 475.2,-2.85zm1881.27 748.22c0.95,-47.09 1.43,-94.66 1.43,-141.75 219.28,-10.46 415.73,-18.55 589.36,-23.78 20.45,-0.95 32.35,-11.42 36.14,-30.92 18.55,-101.32 20.46,-233.08 5.71,-395.76 -3.81,-35.2 -16.65,-53.28 -39.01,-54.23 -156.02,-0.95 -354.85,1.9 -596.49,8.57 -0.95,-44.71 -1.9,-89.43 -2.86,-134.14 277.79,-9.03 554.63,-14.27 830.52,-15.22 29.97,-2.86 46.61,-27.11 50.42,-72.31 14.74,-198.82 8.09,-361.98 -19.5,-489.46 -6.65,-25.69 -23.78,-38.53 -51.85,-37.58 -658.8,-16.65 -1226.27,-3.33 -1702.9,39.01 -25.21,1.89 -40.43,20.92 -46.14,57.55 2.86,175.52 21.88,354.37 57.56,536.08 5.23,17.12 18.55,24.73 39,23.78 42.34,-2.85 84.67,-5.23 126.54,-8.08 -5.24,394.81 2.85,831 25.21,1308.56 2.86,20.46 17.6,32.35 44.71,36.15 102.75,12.84 228.32,17.12 376.26,12.37 491.37,0 900.45,-14.74 1227.7,-44.71 23.31,-0.95 36.63,-14.27 40.44,-40.43 20.46,-127.96 22.35,-295.87 5.24,-502.78 -3.33,-45.67 -18.08,-69.45 -42.82,-71.35 -229.75,15.22 -547.97,28.54 -954.67,40.43zm1739.05 -645.01c0.95,369.59 17.59,774.86 49.94,1215.34 2.86,20.46 17.12,32.35 43.29,36.15 159.82,31.39 325.83,39.01 498.98,22.36 49.95,-2.86 76.1,-15.7 78.01,-37.58 29.49,-415.26 43.77,-832.9 41.86,-1252.92 185.51,-2.86 367.69,-5.7 546.07,-8.56 27.11,0 45.19,-27.12 54.23,-82.29 29.01,-224.51 34.73,-404.79 16.65,-540.36 -5.24,-29.01 -25.22,-45.66 -59.47,-50.42 -661.65,-76.1 -1263.38,-73.25 -1804.68,8.57 -26.17,1.9 -42.34,23.78 -48.99,65.17 0,197.88 17.12,400.51 51.36,607.9 5.71,20.46 19.5,29.97 40.44,29.01 166.49,-4.27 330.59,-8.56 492.32,-12.37z"/>
   <path id="_1" class="fil5" d="M4835.21 10167.82c-1.9,389.1 9.52,811.02 33.77,1265.28 2.86,20.45 17.12,32.35 42.82,36.14 145.08,31.39 335.82,50.42 571.75,57.09 49.95,-2.86 76.11,-15.22 78.01,-37.58 0,-182.18 0.48,-354.37 1.43,-517.05 327.74,30.44 646.91,16.65 957.05,-41.85 105.13,-27.12 181.71,-77.54 230.23,-151.74 76.1,-142.22 87.53,-436.66 34.73,-883.8 -23.31,-160.78 -86.58,-262.56 -189.31,-306.33 -133.19,-82.77 -440.47,-132.7 -922.8,-149.35 -385.78,7.61 -722.55,63.26 -1011.75,167.43 -28.54,20.46 -44.71,39.96 -47.57,58.51 0.95,131.75 19.03,293.01 53.28,483.75 5.7,18.55 18.54,27.11 39,26.16 43.77,-1.9 86.58,-4.28 129.38,-6.65zm1191.56 -32.35c91.32,3.8 143.17,25.21 156.02,64.22 12.37,56.6 16.65,99.41 12.84,127.95 1.9,58.5 -14.27,117.02 -47.57,174.57 -18.55,22.36 -40.9,35.68 -67.07,40.43 -211.67,32.35 -385.29,32.35 -520.85,0 -0.95,-135.08 -3.81,-269.7 -8.57,-404.32 197.88,-6.65 356.28,-7.61 475.2,-2.85zm1881.27 748.22c0.95,-47.09 1.43,-94.66 1.43,-141.75 219.28,-10.46 415.73,-18.55 589.36,-23.78 20.45,-0.95 32.35,-11.42 36.14,-30.92 18.55,-101.32 20.46,-233.08 5.71,-395.76 -3.81,-35.2 -16.65,-53.28 -39.01,-54.23 -156.02,-0.95 -354.85,1.9 -596.49,8.57 -0.95,-44.71 -1.9,-89.43 -2.86,-134.14 277.79,-9.03 554.63,-14.27 830.52,-15.22 29.97,-2.86 46.61,-27.11 50.42,-72.31 14.74,-198.82 8.09,-361.98 -19.5,-489.46 -6.65,-25.69 -23.78,-38.53 -51.85,-37.58 -658.8,-16.65 -1226.27,-3.33 -1702.9,39.01 -25.21,1.89 -40.43,20.92 -46.14,57.55 2.86,175.52 21.88,354.37 57.56,536.08 5.23,17.12 18.55,24.73 39,23.78 42.34,-2.85 84.67,-5.23 126.54,-8.08 -5.24,394.81 2.85,831 25.21,1308.56 2.86,20.46 17.6,32.35 44.71,36.15 102.75,12.84 228.32,17.12 376.26,12.37 491.37,0 900.45,-14.74 1227.7,-44.71 23.31,-0.95 36.63,-14.27 40.44,-40.43 20.46,-127.96 22.35,-295.87 5.24,-502.78 -3.33,-45.67 -18.08,-69.45 -42.82,-71.35 -229.75,15.22 -547.97,28.54 -954.67,40.43zm1739.05 -645.01c0.95,369.59 17.59,774.86 49.94,1215.34 2.86,20.46 17.12,32.35 43.29,36.15 159.82,31.39 325.83,39.01 498.98,22.36 49.95,-2.86 76.1,-15.7 78.01,-37.58 29.49,-415.26 43.77,-832.9 41.86,-1252.92 185.51,-2.86 367.69,-5.7 546.07,-8.56 27.11,0 45.19,-27.12 54.23,-82.29 29.01,-224.51 34.73,-404.79 16.65,-540.36 -5.24,-29.01 -25.22,-45.66 -59.47,-50.42 -661.65,-76.1 -1263.38,-73.25 -1804.68,8.57 -26.17,1.9 -42.34,23.78 -48.99,65.17 0,197.88 17.12,400.51 51.36,607.9 5.71,20.46 19.5,29.97 40.44,29.01 166.49,-4.27 330.59,-8.56 492.32,-12.37z"/>
  </g>
 </g>
</svg>
