<?xml version="1.0" encoding="UTF-8"?>
<!DOCTYPE svg PUBLIC "-//W3C//DTD SVG 1.1//EN" "http://www.w3.org/Graphics/SVG/1.1/DTD/svg11.dtd">
<!-- Creator: CorelDRAW -->
<svg xmlns="http://www.w3.org/2000/svg" xml:space="preserve" width="173.311mm" height="195.149mm" version="1.1" style="shape-rendering:geometricPrecision; text-rendering:geometricPrecision; image-rendering:optimizeQuality; fill-rule:evenodd; clip-rule:evenodd"
viewBox="0 0 2470.67 2781.98"
 xmlns:xlink="http://www.w3.org/1999/xlink"
 xmlns:xodm="http://www.corel.com/coreldraw/odm/2003">
 <defs>
  <style type="text/css">
   <![CDATA[
    .fil5 {fill:#FEFEFE}
    .fil10 {fill:#FEFEFE}
    .fil7 {fill:#EF546F}
    .fil4 {fill:#FBD89B}
    .fil0 {fill:#EF9035}
    .fil9 {fill:#E88AB9}
    .fil2 {fill:#E9E6E6}
    .fil8 {fill:#C15F39}
    .fil6 {fill:#C99065}
    .fil3 {fill:#BE9796}
    .fil1 {fill:#5B302E}
   ]]>
  </style>
 </defs>
 <g id="Camada_x0020_1">
  <metadata id="CorelCorpID_0Corel-Layer"/>
  <g id="_2459252395136">
   <g>
    <path class="fil0" d="M786.06 1053.53c3.75,-2.29 50.24,-3.98 67.58,1.69 0.63,0.21 1.23,0.45 1.89,0.64 0.68,0.2 1.31,0.36 2.01,0.54 11.66,3.03 5.57,-0.28 15.55,5.07l6.27 3.31c2.57,1.29 3.46,1.69 6.47,3.13 34.88,16.66 21.47,10.75 46.01,34.17 3.24,3.09 6.81,5.91 9.66,9.76 14.65,19.74 18.01,32.21 26.26,55.41 0.2,0.56 0.51,1.15 0.7,1.72 0.19,0.57 0.47,1.16 0.63,1.75 2.41,8.76 0.29,12.97 1.41,20.29 1.91,12.48 -0.32,-0.11 2.39,7.47 6.92,19.39 -1.37,12.01 -2.69,31.18 -0.71,10.34 1.39,8.57 -2.39,19.19l-33.32 62.84c-9.73,9.49 -19.74,22.21 -30.65,27.69 -42.58,21.39 -42.48,24.47 -92.5,24.77 -4.97,0.03 -14.46,0.5 -18.95,-0.19 -10.25,-1.58 -2.45,-0.67 -7.13,-2.26l-5.65 -1.85c-47.39,-11.18 -53.14,-23.9 -86.48,-55.45 -7.81,-7.39 -16.92,-26.21 -20.98,-36.15l-4.23 -12.85c-4.47,-12.73 -1.68,-7.27 -3.22,-18.37 -1.99,-14.37 -3.47,-4.98 -4.77,-17 -2.09,-19.24 4.83,-50.03 10.43,-66.79 1.83,-5.48 2.69,-6.43 5.77,-12.33 3.77,-7.25 6.72,-17.43 13.4,-25.41 9.64,-11.52 29.76,-31.5 43.17,-39.54 21.71,-13.01 14.35,-12 44.68,-19.18l6.57 -2.22c0.44,-0.93 1.45,-0.63 2.12,-1.03zm823.08 0c5.28,-3.22 29.6,-1.41 37.41,-1.44 5.44,-0.02 14.19,-0.52 19.24,-0.04 6.99,0.67 2.8,0.23 7.44,1.78 0.74,0.25 2.69,1.19 3.46,1.44 14.49,4.62 8.39,-0.67 20.34,5.45l38.19 19.73c15.4,11.43 27.66,27.81 37.68,42.21 5.24,7.53 3.17,1.84 7.99,11.59 3.77,7.62 2.35,6.11 5.08,14.53 3.95,12.15 8.32,20.06 9.09,30.07 0.59,7.64 -1.01,13.05 0.96,20.67 2.61,10.09 4.92,-1.5 0.67,16.11 -5.29,21.91 3.48,10.87 -5.84,38.53l-2.91 8.56c-3.73,9.47 -5.23,18 -11.46,26.6l-6.08 8.56c-6.75,11.48 -29.67,35.8 -42.78,42.12 -42.27,20.36 -42.17,23.84 -93.16,24.15 -4.97,0.03 -14.46,0.5 -18.95,-0.19 -17.63,-2.71 -52.44,-15.81 -68.84,-29.52l-34.91 -34.98c-16.47,-21.39 -19.88,-45.84 -25.31,-63.74 -8.49,-27.96 -2,-55.61 6.99,-82.5 1.84,-5.5 2.7,-6.39 5.78,-12.33 18.89,-36.41 2.97,-14.32 34.16,-46.03 8.27,-8.41 11.46,-12.21 20.93,-18 3.54,-2.16 1.37,-0.57 5.78,-3.82 22.3,-16.41 39.86,-13.91 49.05,-19.52zm511.55 -42.41c-0.2,-0.61 -0.46,-1.24 -0.66,-1.83l-1.31 -3.44c-0.13,-0.49 -0.4,-1.16 -0.48,-1.64 -1.73,-10.22 0.76,-2.08 3.39,-16.07 0.15,-0.8 0.13,-1.42 0.27,-2.23 2.75,-15.1 19.48,-24.22 26.71,-24.22l19.31 0c18.94,0 42.15,40.21 52.82,55.5 3.19,4.57 3.7,4.15 6.19,8.37l25.69 68.99 0 53.11c0,15.39 -20.65,30.21 -36.42,30.21 -3.94,0 -24.25,-5.55 -30.51,-14.05 -8.08,-10.97 -8.72,-19.58 -8.43,-35.51 0.33,-18.3 -0.31,-14.3 -5.04,-28.68 -1.02,-3.12 -1.57,-4.82 -2.42,-7.28l-30.82 -55.61c-10.65,-14.75 -10.54,-2.31 -18.29,-25.62zm-640.83 -265.68c13.54,1.63 2.13,2.19 14.81,4.58 4.29,0.81 12.04,0.5 16.67,0.46 53.04,-0.5 33.87,5.48 67.64,4.96 25.55,-0.39 18.78,3.12 31.58,4.96 8.95,1.28 19.54,-1.21 28.51,0.82 9.22,2.1 -1.19,-0.36 5.4,1.98 12.73,4.51 20.51,0.19 32.22,3.82 8.17,2.54 1.03,3.07 15.69,3.58 15.55,0.54 14.47,4.48 31.39,5l31.3 5.18c14,1.52 5.12,1.58 13.25,3.73 6.92,1.83 10.5,0.43 17.32,2.08l81.5 20.31c0.59,0.16 1.18,0.42 1.76,0.6l5.39 1.99c6.07,1.67 8.48,1.02 13.96,2.8l108.03 38.85c9.64,5.02 2.96,1.99 14.14,5.36 19.7,5.94 38.36,18.32 42.53,26.99 0.25,0.51 0.56,1.12 0.78,1.64 5.15,11.78 6.29,36.87 -3.87,45.87 -15.33,13.58 -38.1,13.32 -53.76,5.25l-64.91 -27.32c-6.15,-2.72 -7,-2.27 -12.85,-4.23 -5.08,-1.71 -9.7,-3.1 -14.55,-4.68 -0.58,-0.19 -1.2,-0.42 -1.78,-0.62l-206.7 -48.99c-10.45,-2.02 -1.11,-2.27 -12.79,-4.16 -5.9,-0.96 -13.19,0.26 -19.11,-0.29 -12.92,-1.2 -5.06,-1.75 -12.98,-3.95 -12.02,-3.34 -12.8,1.92 -34.02,-4.68 -10.9,-3.39 -23.31,0.51 -33.89,-2.44 -17.84,-4.98 -7,-4.27 -32.53,-4 -24.27,0.25 -15.68,-0.77 -31.64,-4.34 -16.01,-3.59 -38.53,0.75 -55.28,-0.59 -14.69,-1.17 -3.84,-1.04 -12.82,-3.76 -12.86,-3.88 -55.24,-1.37 -71.62,-1.37 -28.23,0 -162.97,-3.99 -183.23,3.05 -9.39,3.26 -22.19,2.01 -34.01,2 -32.19,-0.02 -47.91,5.46 -62.6,-9.27 -16.91,-16.95 -10.3,-56.18 13.97,-64.84 13.79,-4.92 37.3,0.14 49.01,-4.02 28.35,-10.08 121.17,5.95 140.52,-5.59 14.46,-8.63 36.82,2.01 49.58,3.27 37.73,3.71 91.42,-4.36 128.02,0.03zm-1162.16 1006.74c0.65,-0.5 1.65,-2.02 1.97,-1.47 0.3,0.51 1.44,-1.08 1.82,-1.41 0.01,-0.01 3.96,-3.67 4.02,-3.73 10.16,-7.53 17.1,-18.49 26.72,-26.02 7,-5.48 8.82,-4.28 16,-10.69 5.67,-5.07 9.39,-10.93 14.46,-14.7 8.76,-6.51 6.28,-0.82 15.96,-10.56 16.23,-16.34 42.16,-32.72 61.57,-46.99l16.01 -10.73c16.66,-14.42 35.6,-24.91 54.7,-36.52l64.73 -37.17c0.75,-0.37 6.74,-3.37 8.09,-4.04l246.71 -100.51c0.55,-0.21 1.15,-0.52 1.67,-0.75l54.5 -25.66c1.55,-0.77 3.04,-1.54 4.88,-2.45l42.69 -26.79c10.11,-6.59 15.89,-16.38 29.1,-24.39 11.28,-6.84 14.88,-19.57 25.46,-29.6 8.12,-7.69 10,-14 16.89,-21.84 10.78,-12.29 13.03,-21.76 20.92,-34.67l11.42 -22.63c17.61,-43.51 9.85,-10.69 23.57,-69.77l10.08 -40.92c5.06,-21.9 14.58,-41.13 18.99,-63.52 1.1,-5.57 0.3,-4.53 1.97,-10.1l6.86 -19.83c1.48,-4.53 1.71,-7.04 3.3,-11.21l15.21 -34.68c0.25,-0.49 0.56,-1.12 0.81,-1.62 0.25,-0.49 0.55,-1.13 0.8,-1.62l6.27 -13.09c0.26,-0.52 0.56,-1.14 0.82,-1.66 0.26,-0.52 0.56,-1.14 0.82,-1.65 0.26,-0.51 0.56,-1.13 0.82,-1.64l30.98 -51.34c15.98,-16.17 25.48,-24.7 48.54,-27.47 11.84,-1.42 31.52,7.28 40.3,16.32 17.46,17.98 30.58,40.34 41.77,62.42 0.25,0.5 0.56,1.13 0.81,1.63 0.25,0.49 0.56,1.13 0.81,1.62l36.93 97.88c1.39,4.05 2.33,5.49 3.45,11.13 0.5,2.53 0.37,3.77 0.93,6.4 4.13,19.42 10.21,30.71 14.09,49.04 1.08,5.1 0.45,4.98 1.93,9.95l14.89 54.17c0.2,0.6 0.44,1.22 0.65,1.81l5.99 18.29c0.2,0.58 0.45,1.19 0.65,1.77 0.2,0.59 0.42,1.21 0.61,1.8 0.76,2.33 0.87,3.29 1.63,5.65 1.93,5.95 0.14,1.14 1.94,5.41l34.53 60.02c0.31,0.45 0.69,1.04 0.99,1.51 0.29,0.46 0.63,1.09 0.91,1.56 4.51,7.52 15.49,16.37 20.37,24.87 8.19,14.29 21.37,28.92 35.63,37.04 8.81,5.02 14.24,13.3 22.59,18.52 17.74,11.1 32.97,21.98 52.49,31.57 0.52,0.25 1.12,0.59 1.63,0.84l47.33 18.19c2.39,0.79 3.19,0.93 5.57,1.68l62.53 20.06c8.94,4.68 7.86,3.5 18.2,7.04l105.8 44.82c0.49,0.24 1.11,0.55 1.61,0.79l36.35 18.6c16.78,8.4 59.77,30.65 73.06,40.74 6.64,5.04 14.98,6.66 21.8,12.08l25.72 17.5c0.47,0.28 1.1,0.61 1.56,0.9l22.91 15.72c0.44,0.29 1.04,0.67 1.49,0.95l20.81 15.68c6.92,4.12 1.73,0.15 8.94,5.58l75.29 59.99c13.37,13.52 32.21,22.22 43.62,39.42l5.53 2.51 28.27 -15.06c5.2,-3.92 0.83,-1.06 5.62,-3.98 5.2,-3.17 -4.11,2.6 3.14,-1.7l29.54 -20.53c8.77,-4.5 12.52,-10.98 20.93,-15.8 8.99,-5.14 12.91,-10.31 19.83,-16.54l14.63 -11.97c2.48,-1.55 1.44,0.39 5.85,-3.87 1.48,-1.43 8.14,-13.49 25.15,-30.31 2.11,-2.09 2.92,-2.64 4.7,-4.98l2.86 -4.57c0.28,-0.48 0.57,-1.13 0.85,-1.61 16.48,-28.19 14.12,-18.34 14.11,-58.42l0 -436.91c0,-12.1 0.15,-24.25 0.14,-36.33l-22.95 -88.58c-12.69,-25.3 -38.64,-52.39 -41.55,-57.33 -0.28,-0.47 -0.57,-1.12 -0.84,-1.6l-10.59 -13.16c-4.24,-2.87 -2.08,-0.98 -6.26,-3.41 -4.35,-2.53 0.13,1.06 -5.93,-4.04 -5.9,-4.96 -12.18,-12.48 -17.95,-18.08l-90.09 -57.28c-8.61,-4.42 -15.85,-8.04 -24.35,-12.22 -18.14,-8.9 -31.68,-17.59 -49.75,-23.18l-28.66 -11.24c-0.76,-0.25 -2.89,-1.05 -3.6,-1.35l-71.32 -25.64c-0.59,-0.2 -1.22,-0.42 -1.82,-0.62 -0.61,-0.2 -1.25,-0.38 -1.87,-0.57l-30.55 -8.17c-31.68,-10.74 -65.75,-16.52 -96.53,-25.96 -6.36,-1.95 -9.54,-1.43 -15.89,-3.31l-61.78 -13.47c-5.66,-0.58 -10.41,0.53 -16.23,-0.7 -10.48,-2.22 0.21,-2.7 -15.19,-4.31l-62.56 -10.27c-5.16,-0.23 -11.46,0.68 -16.52,-0.22 -13.02,-2.32 0.9,-2.73 -14.88,-4.62 -5.17,-0.62 -11.8,0.33 -17.01,-0.03 -15.4,-1.06 -3.31,-1.56 -14.88,-4.33 -10.65,-2.55 -24.67,1.03 -35.1,-1.18 -11.32,-2.4 0.86,-2.85 -12.88,-4.61l-36.33 0.02c-20.88,-1.79 -3.39,-5.2 -50.46,-5.06 -39.65,0.11 -24.47,-5.05 -70,-5.04 -23.92,0 -48.84,0.71 -72.61,0.16 -19.27,-0.45 -10.14,-5.28 -31.03,-5.31l-74.99 0.13c-5.24,-0.02 -12.01,-0.39 -17.04,-0.13 -15.36,0.79 -6.36,1.55 -15.06,4 -21.26,5.99 -80.87,0.53 -108.08,0.99 -10.03,0.17 -6.83,-0.01 -13.96,2.54 -7.18,2.56 5.34,0.32 -7.52,2.39 -14.82,2.39 -31.23,-0.41 -46.07,0.11 -14.95,0.53 -12.8,5.44 -33.6,5.23 -11.04,-0.11 -24.56,-1.47 -33.2,2.08 -12.69,5.22 -18.15,2.31 -32.19,2.75 -17.55,0.56 -10.74,5.48 -31.12,5.22 -6.14,-0.08 -10.72,-0.56 -16.54,0.98l-14.83 4.1c-5.25,0.27 -11.86,-0.62 -17,0.11 -15.82,2.25 -0.89,2.55 -14.82,4.61 -5.31,0.79 -10.95,-0.27 -16.34,0.57 -13.48,2.12 -0.9,2.76 -14.87,4.52 -5.51,0.69 -10.71,-0.39 -16.36,0.68l-24.19 4.91c-11.82,1.89 -0.11,-0.15 -7.39,2.29 -9.66,3.23 -6.61,1.19 -16.79,2.66 -13.26,1.91 -1.6,1.58 -12.9,3.99 -7.13,1.52 -10.09,-0 -17.28,2.08l-101.37 25.83c-0.58,0.2 -1.18,0.48 -1.77,0.68l-84.99 26.5c-0.61,0.21 -1.27,0.37 -1.89,0.57 -0.63,0.2 -1.28,0.34 -1.91,0.54 -13.19,4.11 -27.22,7.08 -39.81,13.41l-32.06 13.72c-4.06,2.24 -9.19,4.86 -12.36,6.47 -13.67,6.95 -25.82,9.59 -38.98,16.88l-30.85 17.52c-0.49,0.25 -1.13,0.54 -1.61,0.8l-69.62 45.99c-8.43,6.89 -13.95,15.44 -23.24,20.74 -4.55,2.6 -0.09,-0.9 -5.99,3.62 -12.63,9.69 -12.58,18.06 -25.03,29.98 -23.24,22.24 -45.93,66.32 -49.57,98.36 -1.24,10.89 -5.05,17.38 -4.91,31.53l0.05 473.15c0,11.71 -0.63,24.99 -0.17,36.46 0.53,13.38 5.56,17.23 12.2,26.72 9.81,14.02 41.62,51.08 54.73,59.14l48.73 36.22c0.45,0.24 1.13,0.5 1.56,0.76l45.85 28.81c1.57,0.78 6.33,3.25 6.36,3.27 2.65,1.28 -2.58,0.62 6.35,2.77z"/>
    <path class="fil1" d="M2142.46 1752.21c22.03,54.05 127.42,105.55 144.9,165.49 -165.54,295.41 -998.15,346.06 -1299.76,301.12 -213.02,-31.74 -668.96,-72.29 -796.51,-274.84 -37.15,-58.99 40.21,-89.1 87.29,-151.25 8.24,-10.88 33.12,-25.84 39.33,-40.54 -72.92,-17.56 -175.59,-116.62 -175.6,-194.15 -0.01,-165.53 -13.75,-340.8 4.86,-504.68 24.75,-217.99 457.3,-315.49 630.84,-342.74 422.6,-66.37 1073.06,-63.58 1434.23,192.81 57.58,40.87 91.47,110.47 106.07,186.19 4.84,25.1 22.82,497.82 -22.67,542.82 -51.11,50.56 -91.97,87.28 -152.97,119.76zm-649.21 -1292.76c-1.64,-291.7 447.04,-540.15 747.82,-239.32 155.35,155.39 134.42,345.22 54.48,519.47 -10.26,22.36 -48.26,61.4 -64.85,80.78 -269.89,-188.56 -565.21,-166.06 -673.18,-203.89 -75.83,-26.57 -66.41,29.7 -70.9,-152.87l6.63 -4.17zm-715.4 173.92c-227.71,56.37 -322.21,54.13 -553.04,186.38 -14.19,-14.61 -18.26,-27.81 -37.66,-39.67l-1.39 -9.94c-77.04,-36.57 -229.54,-514.7 256.87,-679.09 263.46,-89.04 586.56,206.18 521.79,500.6 -2.07,9.4 -3.75,-0.11 -4.79,16.57 -51.81,13.98 -137.8,1.95 -181.78,25.14zm629.5 -103.65c0,21.2 10.06,50.55 10.1,74.77 -96.24,0.65 -289.67,7.58 -376.61,-0.31 0,-177.86 8.62,-253.79 -108.01,-410.64 -296.32,-398.54 -937.67,-133.01 -911.96,355.75 6.27,119.22 76.73,225.44 140.89,320.79 -9.99,36.28 -78.54,84.8 -95.31,178.93 -2.46,13.83 -18.53,763.7 6.79,837.53 127.85,372.75 847.86,429.09 1201.78,423.57 302.22,-4.72 1119,-90.16 1118.69,-484.13 -0.13,-160.74 31.15,-766.15 -26.77,-857.87 -17.96,-28.44 -59.6,-67.07 -68.7,-98.03 61.98,-96.27 107.3,-156.34 132.07,-276.08 106.39,-514.19 -644.76,-840.8 -947,-346.14 -50.93,83.36 -75.96,186.37 -75.96,281.86z"/>
    <path class="fil2" d="M325.52 1745.57l-2.39 10.4 35.33 18.39c7.59,3.45 7.77,1.26 19.27,7.1 0.49,0.25 1.09,0.6 1.58,0.85l56.87 22.99c0.5,0.24 1.09,0.59 1.58,0.84l53.81 18.88c0.58,0.21 1.21,0.44 1.79,0.65l52.3 16.48c9.94,1.76 5.5,1.6 11.45,3.34l51.87 13.79c12.09,3.98 29.54,4.96 45.53,10.17l55.89 11.95c10.25,2.16 6.28,-1.67 20.74,3.33l3.57 1.37c9.32,2.44 14.64,-0.36 23.9,2.72 23.61,7.85 14.17,-0.79 32.78,5.85l12.59 2.65c4.38,0.16 10.19,-0.58 14.47,-0.07 13.12,1.57 1.43,0.51 9.52,3.52 8.46,3.15 15.24,0.55 24.55,1.6 16.06,1.82 2.71,4.52 21.44,5.08 17.72,0.53 16.13,-2.78 31.59,2.72l19.17 2.26c47.98,-0.59 14.87,5.23 48.25,5.04 60.48,-0.34 32.52,3.08 49.83,4.95l-0.56 -14.63c-3.23,-4.34 -7.25,-32.56 -7.17,-40.69 0.14,-14.98 4.64,-60.81 -3.74,-71.93 -7.59,-10.07 -15.59,-7.85 -21.2,-17.77 -7.91,-13.98 -20.77,-23.99 -27.5,-39.32l-12.29 -36.09c-1.61,-7.1 -0.62,-18.05 -0.62,-25.68 0.01,-23 -4.07,-25 10.63,-39.36 8.83,-8.62 6.38,-6.71 19.84,-6.9 10.33,-0.14 19.39,-0.49 28.1,3.7l12.66 11.37c0.26,0.48 0.58,1.11 0.83,1.6 6.44,12.68 2.41,28.2 7.11,41.24 6.07,16.86 16,32.96 29.28,43.39l16.99 9.32c0.64,0.32 2.47,1.27 3.14,1.58 0.49,0.23 4.71,2.08 5.03,2.18 28.01,8.93 26.67,4.67 39.78,1.95 7.66,-1.59 4.74,0.32 12.14,-2.48 23.34,-8.81 44.46,-28.68 50.16,-53.62l5.39 -21.4c1.14,-6.38 0.36,-20.38 0.36,-27.52 -29.72,-0.84 -12.36,0.62 -28.72,-4.21 -21,-6.21 -42.74,-10.54 -61.35,-23.81 -4.4,-3.14 -5.88,-6.27 -10.11,-9.38 -9.32,-6.85 -12.04,-3.25 -18.68,-14.38 -14.03,-23.53 -29.66,-48.79 -21.04,-81.32 3.85,-14.53 10.86,-24.92 18.31,-37.44 14.34,-24.1 53.09,-44.23 80.81,-50.91l43.66 -7.54c14.49,-4.75 16.61,-3.37 32.52,-3.34 41.35,0.08 26.06,3.38 45.8,5.05 42.46,3.59 74.5,16.84 105.59,47.99 20.52,20.57 18.64,17.01 26.41,43.92 3.41,11.8 6.18,26 1.14,40.12 -0.2,0.56 -0.49,1.15 -0.7,1.71 -0.2,0.56 -0.45,1.18 -0.65,1.75 -13.54,38.73 -25.71,44.87 -54.27,66.48 -10.62,8.04 -18.06,9.52 -30.3,13.55 -3.18,1.05 -4.37,1.19 -7.53,2.17l-43.51 9.51c-5.45,21.84 -1.6,47.19 9.24,66 5.27,9.15 16.63,21.39 26.37,27.09 0.14,0.08 7.06,3.58 7.88,4 1.86,0.94 1.86,0.97 4.52,2.3l3.14 1.58c4.99,2.31 24.72,9.09 31.81,8.2 10.3,-1.28 -1.04,-0.89 10.81,-3.71l17.48 -4.2c73.91,-35.26 34.98,-107.02 75.99,-112.28 14.45,-1.85 31.87,-1.57 42.95,7.92 2.76,2.36 3.1,3.36 5.06,6.91l4.72 48.02 -5.26 21.39c-0.87,4.57 0.1,1.43 -1.41,5.66l-2.35 4.85c-17.05,33.87 -15.05,33.27 -42.65,60.85 -16.51,16.5 -13.8,9.17 -13.66,40.11 0.2,42.38 0.52,47.72 -9.51,82.41 -1.1,3.79 -0.51,5.49 -1.94,9.58 -0.84,11.43 10.27,1.78 15.16,0.41 12.29,-3.43 39.37,1.25 51.63,-1.7 9.32,-2.25 1.63,-4.66 24.88,-4.4 48.09,0.53 15.46,-5.59 50.72,-5.04 9.93,0.16 16,1.02 24.2,-1.82l3.38 -1.45c10.77,-3.45 13.29,-0.9 23.22,-1.61 16.96,-1.23 1.6,-4.23 19.13,-5.25 17.61,-1.02 7.85,3.04 26.49,-3.23 9.3,-3.13 14.48,-0.3 23.85,-2.47 13.98,-3.23 -7,-1.72 24.67,-4.28 16.95,-1.37 3.69,-3.49 21.71,-4.96l148.06 -33.92c13.8,-3.73 8.24,0.47 30.35,-8.08l42.05 -12.84c2.31,-0.75 3.19,-0.9 5.64,-1.72 0.6,-0.2 1.22,-0.44 1.82,-0.64l3.55 -1.32c3.35,-1.13 7.25,-2.09 11.12,-3.36l99.86 -39.9c0.48,-0.24 1.12,-0.55 1.61,-0.79l44.08 -21.31c10.15,-6.13 4.09,2.22 8.05,-8.59 -11.4,-17.2 -30.25,-25.9 -43.62,-39.42l-75.29 -59.99c-7.21,-5.43 -2.02,-1.45 -8.94,-5.58l-20.81 -15.68c-0.45,-0.28 -1.05,-0.65 -1.49,-0.95l-22.91 -15.72c-0.46,-0.29 -1.09,-0.62 -1.56,-0.9l-25.72 -17.5c-6.82,-5.42 -15.16,-7.04 -21.8,-12.08 -13.29,-10.09 -56.28,-32.34 -73.06,-40.74l-36.35 -18.6c-0.49,-0.24 -1.11,-0.55 -1.61,-0.79l-105.8 -44.82c-10.33,-3.53 -9.25,-2.36 -18.2,-7.04l-62.53 -20.06c-2.39,-0.75 -3.18,-0.88 -5.57,-1.68l-47.33 -18.19c-0.52,-0.25 -1.12,-0.59 -1.63,-0.84 -19.52,-9.59 -34.75,-20.47 -52.49,-31.57 -8.36,-5.23 -13.78,-13.5 -22.59,-18.52 -14.25,-8.12 -27.43,-22.74 -35.63,-37.04 -4.87,-8.5 -15.86,-17.36 -20.37,-24.87 -0.28,-0.47 -0.62,-1.1 -0.91,-1.56 -0.29,-0.46 -0.68,-1.06 -0.99,-1.51l-34.53 -60.02c-1.8,-4.27 -0.01,0.54 -1.94,-5.41 -0.77,-2.36 -0.88,-3.32 -1.63,-5.65 -0.19,-0.59 -0.41,-1.21 -0.61,-1.8 -0.2,-0.58 -0.45,-1.19 -0.65,-1.77l-5.99 -18.29c-0.21,-0.59 -0.44,-1.21 -0.65,-1.81l-14.89 -54.17c-1.48,-4.97 -0.85,-4.84 -1.93,-9.95 -3.88,-18.33 -9.95,-29.62 -14.09,-49.04 -0.56,-2.63 -0.43,-3.87 -0.93,-6.4 -1.12,-5.64 -2.06,-7.09 -3.45,-11.13l-36.93 -97.88c-0.25,-0.49 -0.56,-1.13 -0.81,-1.62 -0.25,-0.5 -0.56,-1.13 -0.81,-1.63 -11.18,-22.08 -24.31,-44.44 -41.77,-62.42 -8.78,-9.04 -28.46,-17.74 -40.3,-16.32 -23.07,2.77 -32.56,11.3 -48.54,27.47l-30.98 51.34c-0.26,0.51 -0.56,1.13 -0.82,1.64 -0.26,0.52 -0.56,1.13 -0.82,1.65 -0.26,0.52 -0.56,1.14 -0.82,1.66l-6.27 13.09c-0.25,0.5 -0.55,1.13 -0.8,1.62 -0.25,0.49 -0.56,1.13 -0.81,1.62l-15.21 34.68c-1.59,4.16 -1.82,6.68 -3.3,11.21l-6.86 19.83c-1.67,5.57 -0.87,4.53 -1.97,10.1 -4.41,22.39 -13.93,41.61 -18.99,63.52l-10.08 40.92c-13.72,59.08 -5.96,26.26 -23.57,69.77l-11.42 22.63c-7.89,12.91 -10.14,22.38 -20.92,34.67 -6.88,7.84 -8.77,14.15 -16.89,21.84 -10.58,10.03 -14.18,22.76 -25.46,29.6 -13.21,8 -18.99,17.8 -29.1,24.39l-42.69 26.79c-1.84,0.91 -3.33,1.68 -4.88,2.45l-54.5 25.66c-0.53,0.23 -1.12,0.54 -1.67,0.75l-246.71 100.51c-1.35,0.67 -7.34,3.67 -8.09,4.04l-64.73 37.17c-19.1,11.61 -38.04,22.1 -54.7,36.52l-16.01 10.73c-19.41,14.27 -45.34,30.65 -61.57,46.99 -9.68,9.74 -7.2,4.04 -15.96,10.56 -5.07,3.77 -8.79,9.63 -14.46,14.7 -7.18,6.41 -9,5.21 -16,10.69 -9.61,7.53 -16.56,18.49 -26.72,26.02z"/>
    <path class="fil3" d="M317.7 1752.18c-1.42,3.36 -17.72,19.74 -21.09,22.01 -4.68,3.15 -3.25,1 -7.85,4.22 -8.23,5.76 -4.85,7.01 -10.39,14.32 -15.02,19.83 -44.43,38.63 -56.6,59.28 -2.55,4.33 -0.74,2.47 -4.76,7.27 -5.58,6.67 -13.17,11.02 -17.77,18.86l-16.21 19.52c-20.32,20.52 -2.75,29.13 8.05,46.32 0.27,0.43 0.58,1.08 0.84,1.52l3.42 6.31c7.25,10.71 20.4,20.86 28.8,29.28 3.48,3.49 7.11,8.14 12.06,12.12 7.37,5.93 6.81,2.41 14.57,9.43l37.27 27.94c2.2,1.51 2.7,2.26 4.1,3.32l21.64 11.91c22.56,16.57 72.55,39.57 98.03,48.91 0.58,0.21 1.21,0.46 1.78,0.69l37.48 15.8c7.15,2.44 13.17,4.51 18.18,6.09l17.25 7.01c6.31,3.07 1.57,1.13 8.83,3.43l46.69 13.91c3.5,1.14 6.17,1.69 9.38,2.74 0.75,0.24 2.75,1.06 3.51,1.3l34.7 10.2c5.26,1.74 -2.42,-0.07 5.41,1.68l38.95 9.57c5.63,1.47 5.3,0.63 10.78,1.21l89.37 19.98c9.07,1.04 10.85,-1.16 19.92,1.8 12.61,4.11 6.37,2.64 21.14,3.38 7.88,0.4 4.07,-0.07 9.76,1.9 7.65,2.65 -5.92,1 9.46,3.01 10.7,1.4 10.59,-1.38 21.58,2.39 11.3,3.88 9.15,2.52 22.06,2.66 16.89,0.19 8.15,2.1 17.75,4.48 7.38,1.83 15.62,0.01 23.26,0.59 16.68,1.27 8.7,5.28 40.96,4.95 3.15,-0.03 9.17,-0.15 12.09,0.29 13.02,1.93 3.9,1.18 9.39,3.05 13.07,4.46 31.15,-0.27 46.08,1.96 14.7,2.19 1.82,4.05 19.16,4.94 7.36,0.38 16.66,-0.13 24.27,-0.13 15.48,-0.01 32.12,-1.85 45.66,2.89 17.16,6.01 156.11,2.13 186.07,2.13 31.37,0 62.8,-0.21 94.16,0.02 7.91,0.06 15.85,0.74 22.57,-1.36 24.41,-7.64 60.63,-0.03 86.8,-7.47 15.31,-4.35 28.86,2.49 55.42,-5.02 10.99,-3.11 24.22,-0.37 35.59,-1.05 16.11,-0.96 4.17,-2.99 19.15,-4.98 7.23,-0.96 16.99,0.68 24.13,-0.17 14.77,-1.77 0.93,-3.89 16.94,-5.07 7.21,-0.53 14.33,0.96 21.57,-0.68l19.5 -4.22c14.11,-0.46 11.4,-2.39 20.12,-4.37 8.23,-1.87 13.65,0.48 22.3,-2.05 10.98,-3.21 4.56,-3.05 20.42,-3.7l211.13 -51.82c29.24,-10.04 59.29,-18.77 87.88,-31.18l69.13 -29.32c2.5,-1.26 2.67,-1.36 4.81,-2.42 13.27,-6.62 28.15,-12.19 39.68,-21.02l51.57 -32.44c16.84,-10.81 66.43,-50.05 75.97,-66.86l15.6 -21.06c4.19,-7.21 6.46,-8.07 10.17,-14.69 -4.04,-13.86 -16.71,-22.77 -25.11,-33.74 -13.81,-18.04 -1.31,-6.38 -26.21,-31.9 -7.37,-7.56 -8.86,-14.03 -16.81,-21.86 -11.36,-11.2 -74.89,-73.39 -76.77,-77.99l-5.53 -2.51c-3.96,10.82 2.09,2.47 -8.05,8.59l-44.08 21.31c-0.49,0.24 -1.13,0.55 -1.61,0.79l-99.86 39.9c-3.87,1.26 -7.77,2.22 -11.12,3.36l-3.55 1.32c-0.6,0.2 -1.22,0.44 -1.82,0.64 -2.46,0.82 -3.33,0.97 -5.64,1.72l-42.05 12.84c-22.12,8.54 -16.56,4.35 -30.35,8.08l-148.06 33.92c-18.02,1.48 -4.76,3.6 -21.71,4.96 -31.67,2.56 -10.69,1.05 -24.67,4.28 -9.37,2.17 -14.55,-0.66 -23.85,2.47 -18.64,6.27 -8.88,2.21 -26.49,3.23 -17.53,1.01 -2.17,4.02 -19.13,5.25 -9.93,0.72 -12.45,-1.84 -23.22,1.61l-3.38 1.45c-8.2,2.84 -14.27,1.97 -24.2,1.82 -35.26,-0.55 -2.64,5.57 -50.72,5.04 -23.25,-0.25 -15.56,2.16 -24.88,4.4 -12.26,2.95 -39.34,-1.73 -51.63,1.7 -4.89,1.37 -16.01,11.02 -15.16,-0.41 -6.94,6.48 -1.65,11.37 -14.23,31.72 -15.37,24.88 -32.05,48.93 -57.33,65.24l-17.47 11.5c-8.65,6.04 -16.01,11.43 -28.11,15.79l-16.38 5.36c-12.83,4.19 -40.41,11.27 -54.67,11.2 -65.73,-0.33 -28.73,2.27 -78.18,-9.4 -16,-3.78 -3.52,2.41 -25.32,-8.69l-21.2 -10.52c-10,-4.98 -5.03,-2.97 -13.22,-8.69 -7.04,-4.92 -5.75,-1.77 -13.2,-8.6 -6.8,-6.24 -14.12,-14.3 -21.37,-21.5 -3.43,-3.41 -8.17,-7.56 -11.01,-10.87 -7.77,-9.05 -18.57,-29.94 -24.26,-41.48l-9.81 -23.66c-0.24,-0.69 -0.5,-1.39 -0.74,-2l-1.9 -3.77c-0.16,-1.05 -0.61,-1.29 -1.08,-1.81l0.56 14.63c-17.31,-1.87 10.65,-5.3 -49.83,-4.95 -33.38,0.19 -0.27,-5.63 -48.25,-5.04l-19.17 -2.26c-15.45,-5.5 -13.87,-2.19 -31.59,-2.72 -18.73,-0.56 -5.37,-3.26 -21.44,-5.08 -9.32,-1.05 -16.09,1.55 -24.55,-1.6 -8.09,-3.01 3.6,-1.95 -9.52,-3.52 -4.29,-0.51 -10.09,0.23 -14.47,0.07l-12.59 -2.65c-18.61,-6.64 -9.17,2 -32.78,-5.85 -9.25,-3.08 -14.57,-0.28 -23.9,-2.72l-3.57 -1.37c-14.46,-5 -10.48,-1.17 -20.74,-3.33l-55.89 -11.95c-15.99,-5.21 -33.44,-6.19 -45.53,-10.17l-51.87 -13.79c-5.95,-1.74 -1.51,-1.58 -11.45,-3.34l-52.3 -16.48c-0.59,-0.2 -1.21,-0.44 -1.79,-0.65l-53.81 -18.88c-0.49,-0.25 -1.08,-0.6 -1.58,-0.84l-56.87 -22.99c-0.49,-0.25 -1.08,-0.6 -1.58,-0.85 -11.5,-5.84 -11.68,-3.66 -19.27,-7.1l-35.33 -18.39 2.39 -10.4c-0.06,0.06 -4.01,3.72 -4.02,3.73 -0.38,0.33 -1.52,1.92 -1.82,1.41 -0.33,-0.55 -1.32,0.98 -1.97,1.47z"/>
    <path class="fil4" d="M289.84 683.43c6.73,-3.47 19.62,-13.36 25.71,-17.16l28.1 -17c0.49,-0.25 1.1,-0.58 1.59,-0.83l8.09 -4.07c0.5,-0.25 1.13,-0.55 1.63,-0.8l11.4 -5.6c2.3,-1.14 5.78,-2.88 8.11,-4.06l51.81 -25.75c6.84,-3.02 0.4,-0.83 8.83,-2.92l152.35 -50.93c8.53,-2.96 -1.99,-0.55 9.36,-2.81l64.62 -15.6c13.01,-2.2 22.92,-7.84 43.68,-10.13l48.39 -9.91c16.72,-1.49 7.81,-2.33 17.53,-4.39 8.76,-1.85 13.04,0.7 22.27,-2.21 27.88,-8.77 6.68,2.62 37.79,-8.3 -0.11,-8 0.62,-16.42 0.08,-24.49 -1.03,-15.43 -2.57,-6 -4.63,-17.19 -1.81,-9.85 0.66,-8.57 -2.92,-19.03 -0.54,-1.58 -2.06,-5.82 -3.13,-9.01l-3.16 -8.96c-0.2,-0.6 -0.39,-1.24 -0.58,-1.84 -0.19,-0.61 -0.35,-1.27 -0.54,-1.88 -0.19,-0.62 -0.33,-1.28 -0.52,-1.89 -0.19,-0.61 -0.34,-1.26 -0.53,-1.86l-8.35 -23.2c-2.27,-4.5 -2.82,-5.15 -4.18,-7.89 -13.15,-26.42 -27.88,-48.14 -49.39,-68.67 -8.09,-7.72 -13.83,-13.49 -21.86,-21.55 -21.33,-21.41 -13.59,-9.6 -24.12,-19.34 -6.22,-5.75 -3.72,-5.59 -11.77,-9.89 -20.01,-10.69 -39.06,-20.08 -60.22,-27.3 -27.5,-9.38 -24.65,-10.45 -50.82,-12.9 -16.48,-1.54 -3.76,-2.91 -17.14,-4.82l-63.94 0.65c-25.21,6.39 -22.61,2.29 -35.39,7.13l-33.69 9.68c-48.02,16.66 -39.95,20.21 -60.05,29.67 -0.51,0.24 -1.15,0.52 -1.66,0.76 -0.51,0.24 -1.15,0.52 -1.66,0.77l-10.29 6.55c-4.17,3.81 -0.74,1.87 -6.15,6.09 -5.9,4.6 0.8,-0.24 -6.18,3.73 -17.22,9.79 -36.74,33.81 -48.16,50.22 -1.56,2.24 -3.29,3.8 -4.68,5.23l-30.47 51.67c-0.22,0.57 -0.45,1.2 -0.66,1.79 -0.21,0.6 -0.41,1.24 -0.61,1.86l-12.13 31.72c-2.49,7.55 -0.75,-0.92 -3.09,9.27 -0.85,3.68 -0.57,5.15 -1.32,8.48 -2.73,12.09 -3.52,0.29 -4.59,15.13 -1.89,26.08 3.59,1.64 -4.08,30.2l-0.94 51.94c1.43,16.13 2.56,1.75 4.79,16.98 1.2,8.2 -0.97,11.91 1.71,19.85l9.94 32.42c1.49,3.84 3.33,10.79 5.45,16.46l22.18 43.44c3.79,4.99 1.94,1.58 5.24,6.75 1.54,2.42 1.28,2.96 2.97,5.76z"/>
    <path class="fil1" d="M1157.45 1819c5.05,-2.9 5.61,-1.23 12.12,-3.73 0.11,-0.04 9.73,-4.69 9.97,-4.81l19.38 -12.01c21.62,-13.45 10.05,-8.51 30.04,-25.72 7.73,5.86 21.26,22.61 30.18,28.07 1.7,1.04 3.09,1.63 4.8,2.49l31.96 15.46c9.63,4.24 9.15,1.67 19.55,3.39 14.04,2.31 -1.15,2.17 14.84,4.54 11.24,1.66 24.68,-1.11 36.8,1.07 1.85,21.54 -3.25,47.61 -11.88,68.81 -9.96,24.48 -12.79,19.21 -24.49,38.72l-15.59 13.27c-13.79,8.8 -3.21,7 -26.88,18.52l-26.26 9.96c-7.55,1.52 -9.51,-0.15 -17.38,2.21 -24.28,7.3 -19.53,3.26 -46.53,-1.95l-38 -15.16c-29.76,-16.74 -40.7,-32.51 -53.83,-59.24 -10.92,-22.24 -7.3,-13.83 -14.3,-39.09 -2.99,-10.78 -1.17,-24.7 -1.17,-36.25 10.71,-0.74 30.02,0.83 38.75,-0.76l27.92 -7.78zm-31.02 -293.73c13.43,-7.69 8.9,-12.28 28.4,-22.07 25.93,-13.03 13.68,-5.27 29.05,-9.78 7.19,-2.11 -1.99,-3.55 8.87,-3.55l72.41 0 36.51 12.38c9.07,3.64 20.92,11.79 25.42,21.99 2.61,12.95 -13.2,19.59 -17.46,22.27 -15.94,10.01 -1.66,4.34 -26.41,12.45l-18.06 6.18 -72.41 0 -39.33 -13.89c-9.36,-4.37 -17.99,-13.64 -24.46,-22.09l-2.53 -3.88zm-104.19 382.51c0.47,0.52 0.92,0.76 1.08,1.81l1.9 3.77c0.24,0.61 0.49,1.31 0.74,2l9.81 23.66c5.69,11.54 16.49,32.43 24.26,41.48 2.84,3.31 7.58,7.46 11.01,10.87 7.25,7.2 14.57,15.27 21.37,21.5 7.45,6.83 6.16,3.68 13.2,8.6 8.19,5.72 3.22,3.72 13.22,8.69l21.2 10.52c21.8,11.1 9.32,4.91 25.32,8.69 49.45,11.67 12.45,9.07 78.18,9.4 14.26,0.07 41.84,-7.01 54.67,-11.2l16.38 -5.36c12.1,-4.36 19.46,-9.75 28.11,-15.79l17.47 -11.5c25.28,-16.31 41.96,-40.36 57.33,-65.24 12.58,-20.36 7.28,-25.25 14.23,-31.72 1.43,-4.09 0.84,-5.78 1.94,-9.58 10.03,-34.69 9.71,-40.03 9.51,-82.41 -0.15,-30.94 -2.85,-23.61 13.66,-40.11 27.59,-27.58 25.6,-26.98 42.65,-60.85l2.35 -4.85c1.51,-4.23 0.54,-1.08 1.41,-5.66l5.26 -21.39 -4.72 -48.02c-1.96,-3.56 -2.3,-4.55 -5.06,-6.91 -11.08,-9.49 -28.49,-9.77 -42.95,-7.92 -41.01,5.26 -2.08,77.02 -75.99,112.28l-17.48 4.2c-11.85,2.83 -0.51,2.43 -10.81,3.71 -7.09,0.88 -26.83,-5.89 -31.81,-8.2l-3.14 -1.58c-2.66,-1.33 -2.65,-1.36 -4.52,-2.3 -0.82,-0.42 -7.74,-3.91 -7.88,-4 -9.73,-5.69 -21.1,-17.94 -26.37,-27.09 -10.83,-18.82 -14.69,-44.16 -9.24,-66l43.51 -9.51c3.16,-0.98 4.35,-1.12 7.53,-2.17 12.24,-4.03 19.68,-5.51 30.3,-13.55 28.56,-21.62 40.73,-27.75 54.27,-66.48 0.2,-0.57 0.45,-1.18 0.65,-1.75 0.2,-0.56 0.49,-1.15 0.7,-1.71 5.04,-14.11 2.27,-28.32 -1.14,-40.12 -7.77,-26.91 -5.89,-23.35 -26.41,-43.92 -31.08,-31.15 -63.13,-44.4 -105.59,-47.99 -19.74,-1.67 -4.45,-4.97 -45.8,-5.05 -15.92,-0.03 -18.03,-1.41 -32.52,3.34l-43.66 7.54c-27.72,6.68 -66.46,26.8 -80.81,50.91 -7.45,12.52 -14.46,22.9 -18.31,37.44 -8.62,32.54 7.01,57.79 21.04,81.32 6.63,11.13 9.36,7.53 18.68,14.38 4.22,3.1 5.71,6.24 10.11,9.38 18.62,13.28 40.35,17.61 61.35,23.81 16.36,4.83 -1,3.37 28.72,4.21 0,7.14 0.77,21.14 -0.36,27.52l-5.39 21.4c-5.7,24.94 -26.82,44.81 -50.16,53.62 -7.41,2.79 -4.48,0.89 -12.14,2.48 -13.11,2.72 -11.77,6.98 -39.78,-1.95 -0.33,-0.1 -4.54,-1.95 -5.03,-2.18 -0.67,-0.31 -2.5,-1.26 -3.14,-1.58l-16.99 -9.32c-13.27,-10.43 -23.21,-26.53 -29.28,-43.39 -4.7,-13.04 -0.67,-28.56 -7.11,-41.24 -0.25,-0.49 -0.56,-1.12 -0.83,-1.6l-12.66 -11.37c-8.71,-4.19 -17.77,-3.84 -28.1,-3.7 -13.46,0.19 -11.01,-1.73 -19.84,6.9 -14.7,14.36 -10.62,16.36 -10.63,39.36 -0,7.63 -0.99,18.58 0.62,25.68l12.29 36.09c6.74,15.32 19.6,25.33 27.5,39.32 5.61,9.92 13.61,7.7 21.2,17.77 8.39,11.12 3.88,56.95 3.74,71.93 -0.08,8.13 3.94,36.35 7.17,40.69z"/>
    <path class="fil4" d="M1629.26 491.15c15.65,-1.11 10.34,1.19 18.42,3.47 7.55,2.13 12.97,0.55 20.71,1.02 17.04,1.02 4.39,2.38 17.13,4.75 7.65,1.42 15.71,-0.66 23.32,0.92 10.69,2.22 1.22,3.86 17.26,4.6 37.65,1.75 11.97,2.7 38.69,5.02 17.51,1.52 3.77,2.96 19.29,4.79l26.95 4.52c4.58,0.93 7.04,0.32 11.38,0.93l26.93 6.57c19.6,6.34 13.22,0.74 27.05,6.02l36.82 9.02c0.61,0.19 1.18,0.49 1.77,0.68l269.39 97.46c5.09,2.4 2.52,1.43 7.36,4.01 1.44,-13.61 4.75,-10.37 9.49,-24.24l10.54 -30.87c0.77,-3.5 0.5,-5.04 1.29,-8.46 2.26,-9.74 3.72,-2.28 4.51,-17.67 0.3,-5.91 -0.73,-13.64 -0.14,-19.43 1.35,-13.34 2.82,-3.14 4.81,-14.96 3.58,-21.32 -4.01,-31.8 -4.45,-34 -3.75,-18.64 7.17,-14.19 -12.11,-72.76l-25.71 -57.03c-0.24,-0.51 -0.53,-1.15 -0.77,-1.66l-15.54 -25.38c-3.29,-4.24 -5.09,-4.75 -9.72,-9.44 -6.55,-6.63 -13.46,-23.43 -30.06,-33.29 -18.27,-10.85 -10.77,-11.14 -21.79,-18.5l-79.64 -41.88c-0.62,-0.21 -1.27,-0.38 -1.9,-0.58 -5.85,-1.9 -11.02,-3.89 -14.84,-4.79l-35.8 -5.95c-20.32,-2.1 4.83,-5.16 -36.09,-4.94 -67.44,0.36 -35.97,2.99 -57.8,4.97l-25.51 4.31c-33.08,8.37 -22.19,6.33 -53.08,17.51 -13.27,4.8 -29.15,15.25 -39.8,23.27 -4.87,3.67 0.32,0.46 -5.66,4.06 -23.15,13.98 -6.04,8.83 -29.72,22.66 -19.48,11.37 -20.08,23.68 -29.9,33.57 -19.82,19.96 -7.76,10.61 -17.68,22.97l-5.92 8.46c-0.26,0.49 -0.54,1.13 -0.79,1.63l-27.19 60.12c-0.21,0.59 -0.43,1.22 -0.63,1.81l-1.17 3.71c-7.82,23.16 -2.52,10.38 -5.44,26.15 -2.53,13.68 -5.41,-3.76 -4.25,36.86z"/>
    <path class="fil0" d="M816.22 331.78c-4.31,-13.3 -1.04,-39.19 14.63,-47.76 0.63,-0.34 2.52,-1.3 3.19,-1.61 13.72,-6.31 40.13,-7.05 50.64,12.58l24.09 42.79c6.7,23.38 -2.38,39.91 -22.8,49.28 -23.98,11 -43.65,-8.31 -53.9,-30.02 -0.84,-1.78 -1.48,-3.14 -2.32,-4.92 -0.88,-1.85 -1.43,-3.11 -2.34,-4.95 -6.68,-13.49 -9.76,-10.95 -11.2,-15.4zm-302.29 -144.83c-7.62,4.5 -11.15,-1.67 -39.24,5.87l-83.88 30.07c-0.52,0.25 -1.14,0.55 -1.66,0.8l-17.09 9.18c-1,0.78 -3.52,3.11 -5.03,4.12 -0.42,0.28 -1.05,0.63 -1.5,0.91 -0.46,0.28 -1.12,0.58 -1.59,0.86l-36.88 26.37c-0.48,0.25 -1.09,0.58 -1.59,0.82l-11.32 3.43c-9.1,1 -15.76,0.05 -21.91,-2.56l-7.87 -4.24c-18.98,-12.39 -22.64,-38.11 -6.51,-56.3l43.04 -33.95c0.63,-0.38 2.44,-1.52 3.04,-1.94 17.41,-12.16 17.99,-11.15 38.88,-21.61l40.42 -17.69c5.31,-2.3 3.52,-1.2 9.16,-3.01l28.58 -7.74c29.32,-9.03 34.82,-4.47 49.65,-10.18 8.84,-3.4 77.34,-2.4 91.63,-1.94 18.17,0.58 6.21,2.54 17.4,4.81 12.36,2.5 0.81,-2.3 29.33,4.58 11.85,2.86 2.8,-2.77 31.92,7.07l57.45 22.64c4.44,1.45 5.61,0.92 9.44,2.55 5.27,2.25 6.29,5.38 14.66,9.73l31.56 18.51c0.45,0.27 1.11,0.56 1.57,0.83 27.66,15.84 23.4,50.59 13.01,64.41 -3.36,4.47 -3.71,3.86 -6.72,5.62 -9.9,5.77 -18.9,6.34 -31.02,5.45 -14.61,-1.07 -5.43,-0.39 -16.39,-7.87l-111.63 -52.33c-12.26,-1.83 -8.11,0.2 -20.37,-3.69 -9.57,-3.04 -13.23,-0.43 -22.22,-2.22 -9.95,-1.98 -2.27,-4.2 -19.74,-4.66l-36.47 0.11c-10.85,1.25 -3.65,-0.63 -10.12,3.18zm-328.18 583.19c0.45,0.59 1.17,0.72 1.37,1.77l3.89 6.3c4.03,-8.43 2.58,-6.17 8.93,-12.63l18.09 -18.07c5.94,-7.28 0.74,-0.49 4.68,-7.49 9.5,-16.89 13.01,-10.15 25.62,-22.51 11.16,-10.94 7.65,-10.3 19.54,-17.12 16.48,-9.45 8.79,-13.14 21.96,-14.1l0 -2.87c-1.69,-2.8 -1.43,-3.34 -2.97,-5.76 -3.29,-5.17 -1.45,-1.75 -5.24,-6.75l-22.18 -43.44c-2.12,-5.67 -3.96,-12.61 -5.45,-16.46l-9.94 -32.42c-2.68,-7.93 -0.51,-11.65 -1.71,-19.85 -2.23,-15.23 -3.36,-0.85 -4.79,-16.98l0.94 -51.94c7.67,-28.57 2.19,-4.12 4.08,-30.2 1.08,-14.85 1.86,-3.04 4.59,-15.13 0.75,-3.33 0.47,-4.79 1.32,-8.48 2.34,-10.19 0.6,-1.72 3.09,-9.27l12.13 -31.72c0.2,-0.62 0.4,-1.25 0.61,-1.86 0.21,-0.59 0.44,-1.22 0.66,-1.79l30.47 -51.67c1.39,-1.43 3.12,-2.99 4.68,-5.23 11.42,-16.41 30.95,-40.42 48.16,-50.22 6.98,-3.97 0.28,0.87 6.18,-3.73 5.41,-4.22 1.98,-2.28 6.15,-6.09l10.29 -6.55c0.51,-0.25 1.15,-0.53 1.66,-0.77 0.51,-0.24 1.15,-0.52 1.66,-0.76 20.1,-9.46 12.03,-13.01 60.05,-29.67l33.69 -9.68c12.78,-4.84 10.17,-0.74 35.39,-7.13l63.94 -0.65c13.37,1.91 0.65,3.28 17.14,4.82 26.18,2.45 23.33,3.53 50.82,12.9 21.16,7.21 40.21,16.61 60.22,27.3 8.06,4.31 5.56,4.14 11.77,9.89 10.52,9.74 2.78,-2.07 24.12,19.34 8.03,8.06 13.77,13.82 21.86,21.55 21.51,20.53 36.24,42.25 49.39,68.67 1.36,2.74 1.91,3.38 4.18,7.89l8.35 23.2c0.19,0.6 0.34,1.25 0.53,1.86 0.19,0.62 0.33,1.28 0.52,1.89 0.19,0.62 0.34,1.27 0.54,1.88 0.19,0.61 0.39,1.24 0.58,1.84l3.16 8.96c1.06,3.19 2.58,7.43 3.13,9.01 3.57,10.46 1.11,9.18 2.92,19.03 2.06,11.19 3.6,1.76 4.63,17.19 0.54,8.06 -0.19,16.49 -0.08,24.49 21.86,0 16.3,1.77 32.51,-3.52 10.64,-3.48 18.21,-0.65 27.43,-1.64 10.11,-1.09 -3.76,1.2 4.11,-0.7 0.63,-0.15 1.22,-0.39 1.82,-0.58 27.93,-8.49 19.9,-0.77 37.05,-4.15 13.61,-2.69 -4.29,-4.53 32.67,-4.53 2.77,-13.72 -1.73,-2.91 -3.46,-18.82 -1.21,-11.12 1.51,-14.61 -2.16,-26.48 -1.77,-5.49 -3.73,-30.8 -9.61,-47.87 -2.67,-7.75 -4.87,-15.61 -7.75,-23.9l-9.12 -22.3c-4.69,-15.28 -12.03,-28.8 -20.34,-43.04l-25.15 -37c-6.45,-8.77 -4.69,-10.08 -13.31,-18.41 -11.21,-10.84 -6.28,-5.87 -12.81,-18.44 -5.23,-10.07 -28.07,-29.75 -38.02,-39.36 -10.58,-10.21 -25.12,-16.93 -36.29,-26.19 -3.02,-2.5 -7.73,-7.52 -8.76,-8.23 -3.67,-2.51 -4.6,-2 -9.34,-5.12 -5.88,-3.87 -3.16,-3.25 -9.91,-7.08l-124.97 -50.98 -34.85 -6.29c-11.18,-3.8 -30.08,-0.76 -42.15,-3.88 -10.35,-2.67 1.07,-2.38 -12.84,-4.14 -17.05,-2.15 -28.56,5.17 -58.01,4.91 -14.08,-0.12 -44.61,7.63 -45.19,7.82l-119.15 44.91c-0.25,0.12 -4.93,2.39 -4.95,2.4 -0.49,0.26 -1.12,0.57 -1.6,0.84l-21.58 14.5c-1.61,1.19 -2.58,2.06 -4.28,3.13 -33.65,21.39 -93.63,78.96 -114.79,114.11l-6.19 8.5c-2.4,3.41 -0.24,-0.19 -2.74,4.42l-2.31 4.93c-7.65,16.22 -20.97,33.02 -30.6,56.78 -0.23,0.56 -0.48,1.19 -0.69,1.77l-29.38 102.91c-3.97,11.52 -4.57,106.88 -2.42,122.83 1.74,12.91 1.28,3.01 3.56,10.99 1.98,6.92 0.61,8.52 1.88,15.05l10.7 42.58c3.93,14.55 10.51,25.58 15.14,39.34 7.15,21.25 21.51,43.65 32.72,62.12 5.81,9.57 9,21.84 19.81,26.97z"/>
    <path class="fil0" d="M1583.79 390.04c-21.16,0 -37.97,-17.79 -39.99,-22.05 -7.21,-15.21 12.83,-75.11 40.12,-86.4 7.4,-3.06 25.56,-3.01 30.62,-1.83 2.98,0.7 24.46,15.6 24.46,30.29 0,22.12 1.31,11.82 -8.81,32.17 -3.5,7.03 -6.69,13.68 -10.21,20.7 -6.45,12.89 -20.49,27.1 -36.2,27.1zm296.4 -203.09c-5.44,3.2 -16.41,-0.22 -39.26,5.88l-28.63 7.76c-0.58,0.2 -1.19,0.45 -1.78,0.65l-40.65 15.17c-0.09,0.04 -7.64,3.85 -7.97,4.06 -2.22,1.44 -4.27,3.55 -6.71,5.36l-12.84 6.74c-21.48,9.48 -34.17,30.34 -62.38,19.72 -3.41,-1.28 1.24,0.59 -3.31,-1.52 -0.19,-0.09 -4.59,-2.25 -4.81,-2.38l-7.04 -7.07c-0.28,-0.45 -0.58,-1.1 -0.84,-1.57 -0.26,-0.47 -0.58,-1.11 -0.83,-1.6 -8.9,-17.4 -7.06,-44.8 11.95,-56.93l62.13 -36.08 68.09 -24.21c0.59,-0.2 1.16,-0.49 1.78,-0.68 0.64,-0.19 1.21,-0.44 1.88,-0.61l4.24 -0.83c13.01,-1.88 20.2,-5.07 31.25,-5.36 19.45,-0.51 19.05,-5.21 41.02,-5.05 16.08,0.12 32.22,0.04 48.31,0.02 34.34,-0.05 24.25,3.58 50.79,5.04 4.11,0.23 0.54,-0.27 4.73,0.39l170.34 76.44c9.61,5.58 19.55,16.54 24.29,26.48 0.52,1.09 1.86,4 2.19,5.12 1.08,3.56 1.53,6.83 1.4,10.94 -0.22,7.11 -0.32,5.66 -2.05,10.37 -0.28,0.75 -5.69,13.88 -16.08,20.17 -15.06,9.12 -37.66,8.08 -52.28,-6.36 -15.5,-15.31 -52.12,-34.12 -71.85,-43.83 -0.5,-0.25 -1.1,-0.58 -1.6,-0.82l-73.9 -23c-7.63,-1.48 -15.71,0.59 -23.31,-0.99 -9.93,-2.06 -2.26,-4.22 -19.74,-4.67 -12.47,-0.32 -36.01,-2.91 -46.56,3.29zm-386.94 272.5c-3.32,6.06 -4.18,11.13 -1.46,21.33 29.66,0 37.4,-2.71 59.57,3.91 13.22,3.95 30.07,-1.56 43.64,2.25 23.81,6.68 8.33,3.18 34.26,4.21 -1.16,-40.62 1.72,-23.18 4.25,-36.86 2.92,-15.77 -2.38,-2.99 5.44,-26.15l1.17 -3.71c0.2,-0.59 0.43,-1.22 0.63,-1.81l27.19 -60.12c0.25,-0.5 0.53,-1.14 0.79,-1.63l5.92 -8.46c9.93,-12.36 -2.14,-3.01 17.68,-22.97 9.82,-9.89 10.42,-22.2 29.9,-33.57 23.68,-13.83 6.57,-8.69 29.72,-22.66 5.97,-3.61 0.78,-0.39 5.66,-4.06 10.65,-8.02 26.53,-18.47 39.8,-23.27 30.89,-11.18 19.99,-9.15 53.08,-17.51l25.51 -4.31c21.84,-1.98 -9.63,-4.61 57.8,-4.97 40.92,-0.22 15.77,2.84 36.09,4.94l35.8 5.95c3.82,0.9 8.99,2.89 14.84,4.79 0.63,0.2 1.28,0.37 1.9,0.58l79.64 41.88c11.02,7.36 3.52,7.65 21.79,18.5 16.61,9.86 23.52,26.65 30.06,33.29 4.63,4.69 6.44,5.2 9.72,9.44l15.54 25.38c0.24,0.51 0.52,1.15 0.77,1.66l25.71 57.03c19.28,58.58 8.36,54.12 12.11,72.76 0.44,2.2 8.03,12.68 4.45,34 -1.98,11.81 -3.46,1.62 -4.81,14.96 -0.59,5.8 0.44,13.53 0.14,19.43 -0.79,15.39 -2.25,7.93 -4.51,17.67 -0.79,3.42 -0.52,4.95 -1.29,8.46l-10.54 30.87c-4.74,13.87 -8.04,10.63 -9.49,24.24l111.38 77.53 5.39 -5.1c0.31,-0.29 0.98,-0.9 1.48,-1.33l42.6 -119.52c1.19,-5.67 0.12,-10.51 0.67,-16.09 1.79,-18.27 4.94,-1.46 4.94,-55.53 0,-12.42 1.58,-50.07 -0.61,-59.58l-4.45 -24.88c-0.98,-13.36 -2.05,-6.48 -4.12,-14.99l-24.03 -76.52c-0.04,-0.08 -1.95,-3.71 -2.57,-4.92l-24.79 -50.21c-2.86,-4.8 -0.71,-1.23 -4.09,-5.76 -18.57,-24.85 -30.49,-45.93 -52.46,-67.91 -10.08,-10.08 -19.81,-19.74 -30.3,-30.3 -3.57,-3.59 -3.67,-4.31 -7.3,-7.08l-129.96 -74.56c-0.65,-0.19 -1.3,-0.34 -1.94,-0.53l-76.56 -20.37c-25.23,-6.45 -16.31,-2.55 -42.06,-3.82 -14.63,-0.73 -20.97,-7.24 -38.46,-5.15 -19.06,2.27 -6.22,5.1 -41.15,4.9 -13.34,-0.08 -59.35,11.14 -75.52,16.63l-74 29.24 -37.2 23.13c-25.04,15.59 -31.49,25.3 -44.4,32.66 -15.62,8.9 -31.94,29.63 -45.5,43.73 -6.24,6.49 -7.16,11.87 -13.02,18.57l-35.93 48.3c-12.03,22.16 -22.57,43.03 -30.55,66.39l-18.62 57.01c-2.99,16.41 -5.44,21.28 -5.33,40.58z"/>
    <path class="fil5" d="M1302.26 742.14c-19.34,11.54 -112.16,-4.49 -140.52,5.59 -11.71,4.16 -35.22,-0.9 -49.01,4.02 -24.27,8.66 -30.88,47.89 -13.97,64.84 14.69,14.73 30.41,9.25 62.6,9.27 11.83,0.01 24.63,1.26 34.01,-2 20.26,-7.04 155,-3.05 183.23,-3.05 16.38,0 58.75,-2.51 71.62,1.37 8.98,2.71 -1.87,2.59 12.82,3.76 16.75,1.34 39.27,-3 55.28,0.59 15.96,3.58 7.38,4.6 31.64,4.34 25.53,-0.27 14.69,-0.98 32.53,4 10.58,2.95 23,-0.95 33.89,2.44 21.22,6.6 22,1.35 34.02,4.68 7.93,2.2 0.06,2.75 12.98,3.95 5.92,0.55 13.21,-0.67 19.11,0.29 11.68,1.89 2.34,2.14 12.79,4.16l206.7 48.99c0.58,0.2 1.2,0.43 1.78,0.62 4.85,1.58 9.47,2.97 14.55,4.68 5.85,1.97 6.7,1.51 12.85,4.23l64.91 27.32c15.66,8.06 38.43,8.32 53.76,-5.25 10.16,-9 9.01,-34.1 3.87,-45.87 -0.23,-0.52 -0.54,-1.13 -0.78,-1.64 -4.17,-8.66 -22.83,-21.05 -42.53,-26.99 -11.18,-3.37 -4.5,-0.34 -14.14,-5.36l-108.03 -38.85c-5.48,-1.79 -7.89,-1.14 -13.96,-2.8l-5.39 -1.99c-0.58,-0.18 -1.17,-0.44 -1.76,-0.6l-81.5 -20.31c-6.83,-1.65 -10.41,-0.25 -17.32,-2.08 -8.13,-2.15 0.75,-2.22 -13.25,-3.73l-31.3 -5.18c-16.92,-0.51 -15.83,-4.46 -31.39,-5 -14.66,-0.51 -7.52,-1.04 -15.69,-3.58 -11.71,-3.64 -19.49,0.69 -32.22,-3.82 -6.59,-2.34 3.82,0.12 -5.4,-1.98 -8.96,-2.04 -19.56,0.46 -28.51,-0.82 -12.8,-1.83 -6.03,-5.35 -31.58,-4.96 -33.77,0.52 -14.6,-5.46 -67.64,-4.96 -4.63,0.04 -12.38,0.35 -16.67,-0.46 -12.68,-2.39 -1.27,-2.95 -14.81,-4.58 -36.59,-4.39 -90.29,3.68 -128.02,-0.03 -12.76,-1.25 -35.12,-11.9 -49.58,-3.27z"/>
    <path class="fil6" d="M1676.53 633.8c10.45,1.24 22.12,-0.71 31,2.06 7.55,2.35 1.48,2.23 13.9,3.47 23.54,2.36 6.18,4.74 26.39,5.13 24.8,0.48 8.28,2.93 29.12,5.01l123.76 29.32c6.71,1.6 7.34,0.7 14.05,2.82l188.1 65.86c13.95,-2.93 38.87,-26.07 47.44,-40.05l41.43 -62.49c-4.84,-2.57 -2.27,-1.61 -7.36,-4.01l-269.39 -97.46c-0.59,-0.19 -1.16,-0.49 -1.77,-0.68l-36.82 -9.02c-13.83,-5.27 -7.45,0.32 -27.05,-6.02l-26.93 -6.57c-4.34,-0.61 -6.79,-0.01 -11.38,-0.93l-26.95 -4.52c-15.52,-1.83 -1.78,-3.27 -19.29,-4.79 -26.72,-2.32 -1.04,-3.27 -38.69,-5.02 -16.03,-0.75 -6.57,-2.38 -17.26,-4.6 -7.6,-1.58 -15.67,0.5 -23.32,-0.92 -12.74,-2.37 -0.08,-3.73 -17.13,-4.75 -7.74,-0.46 -13.16,1.11 -20.71,-1.02 -8.08,-2.28 -2.77,-4.58 -18.42,-3.47 -0.33,15.84 -3.07,3.06 -4.88,19.27 -1.77,15.82 3.12,21.31 3.13,21.35 5.94,16.86 -4.38,29.07 11.86,70.41l5.34 16.56c6.25,20.28 22.08,-2.05 31.82,15.07z"/>
    <path class="fil1" d="M1608.87 1116.29c11.57,-6.99 34.6,-4.38 45.42,1.55 14.59,7.99 22.76,31.2 23.98,40.15 0.72,5.3 0.53,1.86 -0.26,5.82 -5.63,28.48 -19.69,39.12 -43.82,46.68 -0.51,0.16 -1.16,0.48 -1.66,0.61 -9.54,2.39 -1.46,0.1 -15.24,-2.78 -8.15,-1.7 -6.31,0.46 -15.63,-3.77l-4.79 -2.47c-4.65,-2.87 -17.68,-18.74 -18.09,-32.47 -0.1,-3.31 -0.05,-9.06 0.03,-12.43 0.67,-26.92 18.3,-33.78 30.06,-40.88zm0.28 -62.76c-9.19,5.61 -26.75,3.11 -49.05,19.52 -4.41,3.25 -2.24,1.66 -5.78,3.82 -9.48,5.79 -12.67,9.59 -20.93,18 -31.19,31.71 -15.27,9.62 -34.16,46.03 -3.08,5.94 -3.94,6.83 -5.78,12.33 -8.99,26.89 -15.48,54.54 -6.99,82.5 5.43,17.9 8.84,42.36 25.31,63.74l34.91 34.98c16.4,13.7 51.21,26.81 68.84,29.52 4.49,0.69 13.98,0.22 18.95,0.19 50.99,-0.31 50.89,-3.78 93.16,-24.15 13.11,-6.32 36.03,-30.64 42.78,-42.12l6.08 -8.56c6.23,-8.59 7.73,-17.12 11.46,-26.6l2.91 -8.56c9.32,-27.67 0.54,-16.62 5.84,-38.53 4.25,-17.61 1.94,-6.02 -0.67,-16.11 -1.97,-7.63 -0.37,-13.03 -0.96,-20.67 -0.77,-10.01 -5.14,-17.93 -9.09,-30.07 -2.73,-8.42 -1.31,-6.91 -5.08,-14.53 -4.83,-9.75 -2.75,-4.06 -7.99,-11.59 -10.02,-14.4 -22.28,-30.78 -37.68,-42.21l-38.19 -19.73c-11.95,-6.12 -5.85,-0.83 -20.34,-5.45 -0.77,-0.25 -2.72,-1.19 -3.46,-1.44 -4.64,-1.55 -0.44,-1.11 -7.44,-1.78 -5.06,-0.49 -13.8,0.02 -19.24,0.04 -7.81,0.03 -32.13,-1.79 -37.41,1.44z"/>
    <path class="fil1" d="M810.69 1116.29c8.71,-6.55 32.26,-5.43 43.38,0.38 6.12,3.2 21.94,17.77 24.25,24.52 3.48,10.17 1.97,35.25 -2.56,44.23 -9.49,18.84 -31.96,27.58 -41.51,26.08 -5.38,-0.85 0.26,-0.78 -8.87,-2.94 -28.66,-6.76 -39.41,-15.03 -39.44,-46.39 -0.02,-16.8 0.21,-24.81 12.58,-36.99 0.09,-0.09 10.55,-7.69 12.16,-8.9zm-24.62 -62.76c-0.67,0.41 -1.68,0.1 -2.12,1.03l-6.57 2.22c-30.33,7.17 -22.97,6.16 -44.68,19.18 -13.41,8.04 -33.53,28.02 -43.17,39.54 -6.68,7.98 -9.62,18.15 -13.4,25.41 -3.07,5.9 -3.94,6.85 -5.77,12.33 -5.6,16.77 -12.51,47.55 -10.43,66.79 1.3,12.02 2.78,2.63 4.77,17 1.54,11.1 -1.26,5.64 3.22,18.37l4.23 12.85c4.06,9.93 13.17,28.76 20.98,36.15 33.34,31.55 39.09,44.27 86.48,55.45l5.65 1.85c4.69,1.6 -3.11,0.68 7.13,2.26 4.49,0.69 13.98,0.22 18.95,0.19 50.02,-0.3 49.91,-3.38 92.5,-24.77 10.91,-5.48 20.93,-18.2 30.65,-27.69l33.32 -62.84c3.78,-10.62 1.68,-8.86 2.39,-19.19 1.32,-19.17 9.61,-11.78 2.69,-31.18 -2.71,-7.58 -0.48,5.01 -2.39,-7.47 -1.12,-7.32 1,-11.53 -1.41,-20.29 -0.16,-0.59 -0.45,-1.18 -0.63,-1.75 -0.19,-0.57 -0.49,-1.15 -0.7,-1.72 -8.26,-23.2 -11.61,-35.67 -26.26,-55.41 -2.86,-3.85 -6.42,-6.67 -9.66,-9.76 -24.54,-23.41 -11.13,-17.51 -46.01,-34.17 -3.01,-1.44 -3.9,-1.84 -6.47,-3.13l-6.27 -3.31c-9.98,-5.34 -3.89,-2.04 -15.55,-5.07 -0.7,-0.18 -1.33,-0.34 -2.01,-0.54 -0.65,-0.19 -1.26,-0.43 -1.89,-0.64 -17.34,-5.68 -63.83,-3.98 -67.58,-1.69z"/>
    <path class="fil6" d="M289.84 683.43l0 2.87c12.75,6.15 4.6,6.73 14.36,17.55 5.22,5.78 11.52,10.47 17.27,16.36 16.73,17.15 22.82,28.71 35.77,26.78l18.44 -8.5c0.51,-0.24 1.11,-0.56 1.63,-0.79l103.64 -38.04c0.6,-0.2 1.28,-0.36 1.89,-0.56 0.61,-0.2 1.27,-0.41 1.88,-0.61l3.59 -1.34c7.78,-2.6 6.29,-1.37 13.85,-3.02l3.97 -1.05c0.62,-0.19 1.21,-0.45 1.81,-0.65l100.68 -27.78c3.01,-0.55 2.79,-0.15 6.22,-1.02 7.47,-1.88 -0.38,-0.4 7.07,-2.56 7.68,-2.23 7.98,-0.77 15.3,-1.88 13.18,-1.99 0.33,-1.5 12.74,-4.02 5.9,-1.2 9.87,-0.1 15.62,-1.37 10.84,-2.4 -3.33,-1.76 13.06,-4.04 7.79,-1.08 7.09,0.5 14.77,-1.91l55.92 -10.61c13.58,-4.57 17.02,-1.01 28.53,-3.86 7.46,-9.91 17.54,-5.57 31.1,-6.61 10.56,-15.92 9.64,-21.64 13.08,-33.05 6.29,-20.87 1.66,-9.98 4.22,-22.41 2.68,-13.01 4.47,4.09 4.31,-34.34 -0.05,-11.98 -0.29,-24.18 0.51,-36.01 -31.11,10.92 -9.91,-0.47 -37.79,8.3 -9.23,2.9 -13.5,0.35 -22.27,2.21 -9.71,2.06 -0.8,2.9 -17.53,4.39l-48.39 9.91c-20.76,2.29 -30.67,7.93 -43.68,10.13l-64.62 15.6c-11.35,2.26 -0.83,-0.15 -9.36,2.81l-152.35 50.93c-8.44,2.09 -1.99,-0.1 -8.83,2.92l-51.81 25.75c-2.33,1.18 -5.81,2.92 -8.11,4.06l-11.4 5.6c-0.5,0.25 -1.13,0.55 -1.63,0.8l-8.09 4.07c-0.49,0.25 -1.1,0.58 -1.59,0.83l-28.1 17c-6.09,3.8 -18.98,13.7 -25.71,17.16z"/>
    <path class="fil5" d="M513.93 186.95c6.46,-3.81 -0.73,-1.93 10.12,-3.18l36.47 -0.11c17.47,0.45 9.8,2.68 19.74,4.66 8.99,1.79 12.65,-0.82 22.22,2.22 12.26,3.89 8.11,1.86 20.37,3.69l111.63 52.33c10.96,7.48 1.79,6.8 16.39,7.87 12.12,0.89 21.12,0.32 31.02,-5.45 3.02,-1.76 3.36,-1.15 6.72,-5.62 10.39,-13.82 14.65,-48.57 -13.01,-64.41 -0.46,-0.27 -1.12,-0.56 -1.57,-0.83l-31.56 -18.51c-8.37,-4.35 -9.39,-7.48 -14.66,-9.73 -3.83,-1.64 -5,-1.1 -9.44,-2.55l-57.45 -22.64c-29.13,-9.83 -20.07,-4.21 -31.92,-7.07 -28.52,-6.88 -16.97,-2.08 -29.33,-4.58 -11.2,-2.27 0.77,-4.22 -17.4,-4.81 -14.3,-0.46 -82.8,-1.46 -91.63,1.94 -14.83,5.71 -20.33,1.15 -49.65,10.18l-28.58 7.74c-5.64,1.81 -3.85,0.7 -9.16,3.01l-40.42 17.69c-20.89,10.46 -21.46,9.44 -38.88,21.61 -0.59,0.41 -2.41,1.56 -3.04,1.94l-43.04 33.95c-16.13,18.19 -12.48,43.91 6.51,56.3l7.87 4.24c6.15,2.61 12.81,3.56 21.91,2.56l11.32 -3.43c0.5,-0.24 1.11,-0.57 1.59,-0.82l36.88 -26.37c0.47,-0.28 1.13,-0.58 1.59,-0.86 0.44,-0.27 1.07,-0.62 1.5,-0.91 1.51,-1.01 4.03,-3.34 5.03,-4.12l17.09 -9.18c0.52,-0.25 1.14,-0.55 1.66,-0.8l83.88 -30.07c28.09,-7.54 31.62,-1.37 39.24,-5.87z"/>
    <path class="fil5" d="M1880.19 186.95c10.54,-6.2 34.09,-3.61 46.56,-3.29 17.48,0.44 9.81,2.6 19.74,4.67 7.59,1.58 15.67,-0.49 23.31,0.99l73.9 23c0.51,0.24 1.11,0.57 1.6,0.82 19.73,9.72 56.36,28.53 71.85,43.83 14.62,14.44 37.22,15.48 52.28,6.36 10.39,-6.29 15.8,-19.42 16.08,-20.17 1.73,-4.7 1.83,-3.25 2.05,-10.37 0.13,-4.11 -0.32,-7.37 -1.4,-10.94 -0.34,-1.12 -1.68,-4.03 -2.19,-5.12 -4.74,-9.94 -14.69,-20.89 -24.29,-26.48l-170.34 -76.44c-4.19,-0.66 -0.62,-0.16 -4.73,-0.39 -26.54,-1.46 -16.45,-5.09 -50.79,-5.04 -16.09,0.02 -32.22,0.1 -48.31,-0.02 -21.97,-0.16 -21.56,4.53 -41.02,5.05 -11.05,0.29 -18.24,3.49 -31.25,5.36l-4.24 0.83c-0.67,0.17 -1.24,0.42 -1.88,0.61 -0.61,0.19 -1.18,0.48 -1.78,0.68l-68.09 24.21 -62.13 36.08c-19,12.13 -20.85,39.53 -11.95,56.93 0.25,0.49 0.56,1.12 0.83,1.6 0.26,0.47 0.57,1.12 0.84,1.57l7.04 7.07c0.22,0.13 4.62,2.3 4.81,2.38 4.55,2.11 -0.1,0.24 3.31,1.52 28.21,10.62 40.9,-10.23 62.38,-19.72l12.84 -6.74c2.45,-1.81 4.5,-3.92 6.71,-5.36 0.33,-0.22 7.87,-4.02 7.97,-4.06l40.65 -15.17c0.58,-0.2 1.19,-0.45 1.78,-0.65l28.63 -7.76c22.85,-6.1 33.82,-2.68 39.26,-5.88z"/>
    <path class="fil7" d="M1295.9 1818.74c7.25,9.21 6.11,0.89 6.53,16.82 0.36,13.71 -2.66,15.94 -3.71,18.9l-1.23 3.59c-0.24,0.75 -0.84,3.02 -1.08,3.78 -5.2,16.17 -17.13,29.8 -32.45,37.12 -23.45,11.21 -42.03,13.34 -66.54,1.64 -0.51,-0.24 -1.15,-0.53 -1.66,-0.78 -0.51,-0.24 -1.15,-0.53 -1.66,-0.77 -11.43,-5.53 -23.18,-17.52 -28.85,-28.67 -8.77,-17.23 -12.61,-24.28 -7.81,-51.38l-27.92 7.78c-8.73,1.59 -28.04,0.02 -38.75,0.76 0,11.55 -1.81,25.46 1.17,36.25 7,25.26 3.38,16.85 14.3,39.09 13.13,26.74 24.07,42.5 53.83,59.24l38 15.16c27,5.21 22.25,9.25 46.53,1.95 7.87,-2.37 9.83,-0.69 17.38,-2.21l26.26 -9.96c23.67,-11.51 13.1,-9.71 26.88,-18.52l15.59 -13.27c11.7,-19.51 14.53,-14.24 24.49,-38.72 8.63,-21.2 13.73,-47.27 11.88,-68.81 -12.12,-2.18 -25.56,0.59 -36.8,-1.07 -16,-2.37 -0.81,-2.22 -14.84,-4.54 -10.4,-1.71 -9.92,0.86 -19.55,-3.39z"/>
    <path class="fil8" d="M1676.53 633.8c-9.74,-17.12 -25.57,5.21 -31.82,-15.07l-5.34 -16.56c-16.24,-41.34 -5.92,-53.55 -11.86,-70.41 -0.01,-0.04 -4.9,-5.53 -3.13,-21.35 1.81,-16.2 4.55,-3.42 4.88,-19.27 -25.93,-1.03 -10.45,2.47 -34.26,-4.21 -13.58,-3.81 -30.43,1.7 -43.64,-2.25 -22.16,-6.62 -29.91,-3.91 -59.57,-3.91 -2.72,-10.2 -1.86,-15.27 1.46,-21.33l-6.63 4.17c0.52,21.34 -1.41,93.48 4.51,107.96 5.49,13.42 -2.36,24.46 8.22,35.02 15.76,15.72 38.19,2.9 58.16,9.89 8.77,3.07 -4.98,0.19 7.22,2.59 9.26,1.82 25.11,-1.29 34.91,1.31 8.38,2.23 1.18,3.93 17.82,4.28 37.55,0.81 11.87,5.1 36.15,5.23 12.81,0.07 14.22,-2.06 22.93,3.89z"/>
    <path class="fil8" d="M831.07 500.96c-0.81,11.82 -0.56,24.02 -0.51,36.01 0.16,38.43 -1.63,21.33 -4.31,34.34 -2.56,12.43 2.06,1.54 -4.22,22.41 -3.44,11.41 -2.52,17.13 -13.08,33.05 -13.56,1.04 -23.65,-3.31 -31.1,6.61 9.87,-5.21 10.94,-3.37 24.08,-3.4 19.53,-0.05 7.81,-2.49 19.57,-4.98 6.66,-1.41 16.85,0.21 23.84,-0.34 18.4,-1.46 3.24,-4.26 21.43,-5.22 29.55,-1.57 2.59,3.49 32.27,-4.11 8.55,-2.19 29.36,0.07 40.4,-0.73 14.62,-1.06 5.69,-2.44 20.18,-6.35 1.03,-16.68 2.72,-7.17 4.79,-16.57 1.66,-7.57 -0.37,-15.7 0.8,-23.39 2.86,-18.86 4.82,8.51 4.77,-40.96 -0.01,-10.92 1.55,-36.73 0.38,-45.56 -1.57,-11.92 -4.25,-1.67 -4.51,-19.49 -0.04,-2.52 0.47,-10.39 0.15,-12.26 -2.56,-14.88 1.94,-4.82 -4.96,-9.46 3.67,11.87 0.95,15.36 2.16,26.48 1.73,15.9 6.23,5.09 3.46,18.82 -36.96,0 -19.05,1.84 -32.67,4.53 -17.15,3.39 -9.12,-4.34 -37.05,4.15 -0.6,0.18 -1.19,0.42 -1.82,0.58 -7.87,1.9 6,-0.39 -4.11,0.7 -9.21,0.99 -16.78,-1.84 -27.43,1.64 -16.2,5.3 -10.64,3.53 -32.51,3.52z"/>
    <path class="fil8" d="M2102.86 747.47l66.63 34.09c28.7,14.38 17.48,10.25 32.31,18.63l28.9 20.19 51.94 -60.66c5.91,-10.77 4.66,-2.14 12.91,-20.11 10.12,-22.05 10.65,-4.33 14.43,-23.57 -0.5,0.43 -1.17,1.04 -1.48,1.33l-5.39 5.1 -111.38 -77.53 -41.43 62.49c-8.57,13.97 -33.49,37.11 -47.44,40.05z"/>
    <path class="fil5" d="M2216.21 1177.88c15.77,0 36.42,-14.82 36.42,-30.21l0 -53.11 -25.69 -68.99c-2.48,-4.22 -3,-3.8 -6.19,-8.37 -10.67,-15.29 -33.88,-55.5 -52.82,-55.5l-19.31 0c-7.23,0 -23.96,9.12 -26.71,24.22 -0.15,0.8 -0.12,1.42 -0.27,2.23 -2.63,13.99 -5.12,5.84 -3.39,16.07 0.08,0.48 0.36,1.15 0.48,1.64l1.31 3.44c0.2,0.59 0.45,1.22 0.66,1.83 7.75,23.31 7.64,10.87 18.29,25.62l30.82 55.61c0.85,2.46 1.4,4.17 2.42,7.28 4.73,14.38 5.37,10.39 5.04,28.68 -0.29,15.93 0.35,24.54 8.43,35.51 6.26,8.5 26.57,14.05 30.51,14.05z"/>
    <path class="fil5" d="M1157.45 1819c-4.8,27.09 -0.95,34.15 7.81,51.38 5.67,11.15 17.42,23.14 28.85,28.67 0.5,0.24 1.15,0.53 1.66,0.77 0.51,0.24 1.15,0.53 1.66,0.78 24.5,11.7 43.08,9.57 66.54,-1.64 15.31,-7.32 27.24,-20.95 32.45,-37.12 0.24,-0.75 0.83,-3.03 1.08,-3.78l1.23 -3.59c1.05,-2.97 4.07,-5.19 3.71,-18.9 -0.42,-15.93 0.72,-7.61 -6.53,-16.82l-31.96 -15.46c-1.71,-0.86 -3.1,-1.45 -4.8,-2.49 -8.92,-5.46 -22.45,-22.21 -30.18,-28.07 -19.98,17.21 -8.41,12.28 -30.04,25.72l-19.38 12.01c-0.24,0.12 -9.87,4.77 -9.97,4.81 -6.51,2.49 -7.07,0.82 -12.12,3.73z"/>
    <path class="fil9" d="M1126.43 1525.27l2.53 3.88c6.47,8.44 15.1,17.72 24.46,22.09l39.33 13.89 72.41 0 18.06 -6.18c24.75,-8.11 10.47,-2.44 26.41,-12.45 4.26,-2.67 20.07,-9.32 17.46,-22.27 -4.49,-10.19 -16.35,-18.35 -25.42,-21.99l-36.51 -12.38 -72.41 0c-10.86,0 -1.68,1.44 -8.87,3.55 -15.37,4.51 -3.12,-3.25 -29.05,9.78 -19.5,9.8 -14.96,14.38 -28.4,22.07z"/>
    <path class="fil8" d="M185.75 770.14l1.39 9.94c14.41,8.8 15.87,13.58 21.99,23.53l15.67 16.14 104.79 -60.04c13.54,-7.09 19.32,-4.08 27.63,-12.73 -12.94,1.93 -19.04,-9.63 -35.77,-26.78 -5.74,-5.89 -12.05,-10.58 -17.27,-16.36 -9.76,-10.81 -1.61,-11.4 -14.36,-17.55 -13.17,0.96 -5.48,4.66 -21.96,14.1 -11.89,6.82 -8.39,6.18 -19.54,17.12 -12.61,12.36 -16.12,5.62 -25.62,22.51 -3.94,7 1.26,0.21 -4.68,7.49l-18.09 18.07c-6.35,6.46 -4.9,4.19 -8.93,12.63l-3.89 -6.3c-0.2,-1.05 -0.92,-1.17 -1.37,-1.77z"/>
    <path class="fil5" d="M1583.79 390.04c15.71,0 29.74,-14.22 36.2,-27.1 3.52,-7.02 6.71,-13.68 10.21,-20.7 10.12,-20.35 8.81,-10.05 8.81,-32.17 0,-14.69 -21.49,-29.59 -24.46,-30.29 -5.06,-1.19 -23.22,-1.23 -30.62,1.83 -27.29,11.28 -47.33,71.18 -40.12,86.4 2.02,4.26 18.83,22.05 39.99,22.05z"/>
    <path class="fil5" d="M1608.87 1116.29c-11.76,7.1 -29.38,13.96 -30.06,40.88 -0.08,3.37 -0.13,9.12 -0.03,12.43 0.41,13.72 13.44,29.6 18.09,32.47l4.79 2.47c9.32,4.23 7.48,2.07 15.63,3.77 13.79,2.89 5.71,5.17 15.24,2.78 0.49,-0.12 1.14,-0.45 1.66,-0.61 24.13,-7.56 38.19,-18.19 43.82,-46.68 0.78,-3.96 0.98,-0.52 0.26,-5.82 -1.22,-8.95 -9.39,-32.15 -23.98,-40.15 -10.82,-5.93 -33.85,-8.53 -45.42,-1.55z"/>
    <path class="fil5" d="M816.22 331.78c1.44,4.46 4.52,1.91 11.2,15.4 0.91,1.84 1.46,3.09 2.34,4.95 0.84,1.78 1.48,3.14 2.32,4.92 10.25,21.71 29.92,41.02 53.9,30.02 20.42,-9.37 29.5,-25.9 22.8,-49.28l-24.09 -42.79c-10.51,-19.63 -36.92,-18.88 -50.64,-12.58 -0.67,0.31 -2.56,1.26 -3.19,1.61 -15.68,8.57 -18.94,34.46 -14.63,47.76z"/>
    <path class="fil5" d="M810.69 1116.29c-1.61,1.21 -12.08,8.81 -12.16,8.9 -12.37,12.19 -12.59,20.2 -12.58,36.99 0.03,31.36 10.78,39.63 39.44,46.39 9.13,2.15 3.49,2.09 8.87,2.94 9.55,1.5 32.02,-7.24 41.51,-26.08 4.52,-8.98 6.04,-34.06 2.56,-44.23 -2.31,-6.75 -18.13,-21.32 -24.25,-24.52 -11.12,-5.82 -34.67,-6.93 -43.38,-0.38z"/>
   </g>
   <ellipse class="fil1" cx="343.03" cy="2336.7" rx="343.03" ry="445.28"/>
   <ellipse class="fil3" cx="343.03" cy="2336.7" rx="259.31" ry="383.48"/>
   <path class="fil2" d="M343.03 1953.22c45.21,0 87.71,17.13 124.72,47.21 4.89,27.07 7.48,55.02 7.48,83.61 0,223.49 -156.52,408.15 -359.54,437.26 -20.38,-54.76 -31.98,-117.67 -31.98,-184.6 0,-211.79 116.1,-383.48 259.31,-383.48z"/>
   <path class="fil1" d="M242.63 2515.86l0 0c12.72,0 23.13,8.95 23.13,19.9l0 167.1c-16.16,-7.45 -31.64,-17.17 -46.27,-28.92l0 -138.18c0,-10.95 10.41,-19.9 23.13,-19.9z"/>
   <path class="fil1" d="M452.1 2505.42l0 0c12.72,0 23.13,8.95 23.13,19.9l0 141.32c-14.57,12.79 -30.05,23.52 -46.27,31.95l0 -173.27c0,-10.95 10.41,-19.9 23.13,-19.9z"/>
   <ellipse class="fil10" cx="160.79" cy="2270.33" rx="45.83" ry="39.42"/>
   <path class="fil10" d="M236.17 2185.93c43.6,-103.56 103.96,-109.14 73.01,-151.18 -63.23,-85.9 -165.77,112.67 -165.35,134.1 1.03,51.91 80.62,51.47 92.33,17.09z"/>
   <ellipse class="fil1" cx="2127.64" cy="2336.7" rx="343.03" ry="445.28"/>
   <ellipse class="fil3" cx="2127.64" cy="2336.7" rx="259.31" ry="383.48"/>
   <path class="fil2" d="M2127.64 1953.22c45.21,0 87.71,17.13 124.72,47.21 4.89,27.07 7.48,55.02 7.48,83.61 0,223.49 -156.52,408.15 -359.54,437.26 -20.38,-54.76 -31.98,-117.67 -31.98,-184.6 0,-211.79 116.1,-383.48 259.31,-383.48z"/>
   <path class="fil1" d="M2027.24 2515.86l0 0c12.72,0 23.13,8.95 23.13,19.9l0 167.1c-16.16,-7.45 -31.64,-17.17 -46.27,-28.92l0 -138.18c0,-10.95 10.41,-19.9 23.13,-19.9z"/>
   <path class="fil1" d="M2236.71 2505.42l0 0c12.72,0 23.13,8.95 23.13,19.9l0 141.32c-14.57,12.79 -30.05,23.52 -46.27,31.95l0 -173.27c0,-10.95 10.41,-19.9 23.13,-19.9z"/>
   <ellipse class="fil10" cx="1945.4" cy="2270.33" rx="45.83" ry="39.42"/>
   <path class="fil10" d="M2020.78 2185.93c43.6,-103.56 103.96,-109.14 73.01,-151.18 -63.23,-85.9 -165.77,112.67 -165.35,134.1 1.03,51.91 80.62,51.47 92.33,17.09z"/>
  </g>
 </g>
</svg>
